<svg id="Layer_1" data-name="Layer 1" xmlns="http://www.w3.org/2000/svg" viewBox="0 0 305 75"><defs><style>.cls-1{fill:#231f20;}.cls-2{fill:#fff;}.cls-3{fill:#ea0029;}.cls-4{fill:#0a0203;}.cls-5{fill:none;}</style></defs><path class="cls-1" d="M16.15,16.1h1.24v7.37H10.26a5.54,5.54,0,0,1-3.89-1.3A5,5,0,0,1,5,18.33q0-.48,0-1a8.67,8.67,0,0,1,.16-1l1.22.22a7.81,7.81,0,0,0-.13.9,8.13,8.13,0,0,0,0,.84,4,4,0,0,0,1,2.91,4,4,0,0,0,3,1h6ZM9.83,14.78A.79.79,0,0,1,9,14a.81.81,0,0,1,.23-.57.8.8,0,0,1,.58-.24.82.82,0,0,1,.81.81.8.8,0,0,1-.24.58A.81.81,0,0,1,9.83,14.78ZM11.89,12a.8.8,0,0,1-.24.58.77.77,0,0,1-1.15,0,.8.8,0,0,1-.24-.58.74.74,0,0,1,.24-.56.83.83,0,0,1,1.15,0A.74.74,0,0,1,11.89,12Zm.64,2.77a.81.81,0,0,1-.57-.23.8.8,0,0,1-.24-.58.82.82,0,0,1,1.63,0,.8.8,0,0,1-.24.58A.82.82,0,0,1,12.53,14.78Z"/><path class="cls-1" d="M20.88,24a14.44,14.44,0,0,1-.09,1.6,4.69,4.69,0,0,1-.43,1.49,2.85,2.85,0,0,1-1,1.09,3.19,3.19,0,0,1-1.75.42V27.37a1.82,1.82,0,0,0,1.1-.29,1.72,1.72,0,0,0,.61-.75,3.17,3.17,0,0,0,.25-1.06c0-.4.05-.82.05-1.25V16.1h1.24Z"/><path class="cls-1" d="M22.89,10.91h1.25V23.47H22.89Z"/><path class="cls-1" d="M31.84,24.09a11.47,11.47,0,0,1-.11,1.68,4.41,4.41,0,0,1-.46,1.45,2.81,2.81,0,0,1-1,1,3.18,3.18,0,0,1-1.69.39V27.4a1.9,1.9,0,0,0,1.15-.31,1.79,1.79,0,0,0,.6-.8,4,4,0,0,0,.23-1.17q0-.66,0-1.38v-.27h-.43A5.2,5.2,0,0,1,27,22.61a2.78,2.78,0,0,1-1.1-2.3,4.23,4.23,0,0,1,.44-1.89,5.16,5.16,0,0,1,1.24-1.57,6.79,6.79,0,0,1,1.9-1.11,8.6,8.6,0,0,1,2.4-.55v7h1.08v1.24H31.84ZM30.6,22.23V16.67a5.6,5.6,0,0,0-2.54,1.38,3,3,0,0,0-.95,2.21,1.69,1.69,0,0,0,.72,1.44,3.92,3.92,0,0,0,2.29.53Z"/><path class="cls-1" d="M37.25,23.47H32.94a.87.87,0,0,1-.59-.21.47.47,0,0,1,0-.82.87.87,0,0,1,.59-.21h4.31Z"/><path class="cls-1" d="M45.46,22.23h.7v1.24h-1.7a13.56,13.56,0,0,0-.4-1.58,8,8,0,0,0-.75-1.7,5.27,5.27,0,0,1,.09,1,6.17,6.17,0,0,1-.08.94c-.06.33-.15.77-.29,1.33H37.25a.88.88,0,0,1-.6-.21.47.47,0,0,1,0-.82.88.88,0,0,1,.6-.21h4.81a4.87,4.87,0,0,0,.1-1,3.42,3.42,0,0,0-.46-1.86,3.92,3.92,0,0,0-1.12-1.17,5.46,5.46,0,0,0-1.43-.66c-.5-.14-.94-.24-1.32-.31l.19-.57a6.58,6.58,0,0,1,1.4-2.46,13.56,13.56,0,0,1,2.07-1.89A16.67,16.67,0,0,1,43.64,11c.69-.36,1.22-.61,1.61-.77V13.3H44V12.2c-.32.18-.68.39-1.08.66a14.67,14.67,0,0,0-1.23.9,10.39,10.39,0,0,0-1.2,1.11,6.17,6.17,0,0,0-.92,1.28,16,16,0,0,1,2.15,1,7.88,7.88,0,0,1,1.68,1.22A6.87,6.87,0,0,1,44.64,20,9.44,9.44,0,0,1,45.46,22.23Z"/><path class="cls-1" d="M47.25,10.84H48.5V23.47H46.18a.88.88,0,0,1-.6-.21.47.47,0,0,1,0-.82.88.88,0,0,1,.6-.21h1.07Z"/><path class="cls-1" d="M50.51,10.91h1.24V23.47H50.51Z"/><path class="cls-1" d="M59.46,24.09a11.45,11.45,0,0,1-.12,1.68,4.41,4.41,0,0,1-.46,1.45,2.73,2.73,0,0,1-1,1,3.17,3.17,0,0,1-1.68.39V27.4a1.94,1.94,0,0,0,1.15-.31,1.7,1.7,0,0,0,.59-.8,3.74,3.74,0,0,0,.23-1.17c0-.44,0-.9,0-1.38v-.27h-.67a4.76,4.76,0,0,1-3-.86,2.78,2.78,0,0,1-1.07-2.3,4.1,4.1,0,0,1,.44-1.89,4.87,4.87,0,0,1,1.24-1.57,6.73,6.73,0,0,1,1.89-1.11,8.59,8.59,0,0,1,2.41-.55Zm-1.25-1.86V16.67a5.66,5.66,0,0,0-2.54,1.38,3,3,0,0,0-1,2.21,1.69,1.69,0,0,0,.72,1.44,4,4,0,0,0,2.29.53Z"/><path class="cls-1" d="M76.59,16.1h1.25v7.37H70.71a5.53,5.53,0,0,1-3.89-1.3,5,5,0,0,1-1.43-3.84c0-.32,0-.64,0-1a7,7,0,0,1,.16-1l1.22.22a7.92,7.92,0,0,0-.14.9q0,.43,0,.84a4,4,0,0,0,1,2.91,4,4,0,0,0,3,1h6ZM71,14.78a.82.82,0,0,1-.58-.23.8.8,0,0,1-.24-.58.82.82,0,0,1,1.63,0,.8.8,0,0,1-.24.58A.81.81,0,0,1,71,14.78Zm2.7,0a.79.79,0,0,1-.57-.23.8.8,0,0,1-.24-.58.78.78,0,0,1,.24-.57.76.76,0,0,1,.57-.24.82.82,0,0,1,.81.81.8.8,0,0,1-.24.58A.81.81,0,0,1,73.65,14.78Z"/><path class="cls-1" d="M79.85,23.47V10.91h1.24V22.23h1.08v1.24Z"/><path class="cls-1" d="M86.48,23.47H82.17a.88.88,0,0,1-.6-.21.47.47,0,0,1,0-.82.88.88,0,0,1,.6-.21h4.31Z"/><path class="cls-1" d="M93.15,15.36v8.11H86.46a.88.88,0,0,1-.6-.21.47.47,0,0,1,0-.82.88.88,0,0,1,.6-.21h1.7a3.33,3.33,0,0,1-.58-1,3.81,3.81,0,0,1-.22-1.4,3.24,3.24,0,0,1,.7-2.1,5.77,5.77,0,0,1,1.66-1.37,7.91,7.91,0,0,1,1.92-.76A11.17,11.17,0,0,1,93.15,15.36Zm-1.24,1.51a8.36,8.36,0,0,0-1,.36,5.5,5.5,0,0,0-1.09.59,3.59,3.59,0,0,0-.87.87,2,2,0,0,0-.34,1.17,1.85,1.85,0,0,0,.86,1.8,5.43,5.43,0,0,0,2.44.52Z"/><path class="cls-1" d="M96.67,24a12.38,12.38,0,0,1-.1,1.6,4.23,4.23,0,0,1-.43,1.49,2.77,2.77,0,0,1-1,1.09,3.17,3.17,0,0,1-1.75.42V27.37a1.85,1.85,0,0,0,1.11-.29,1.8,1.8,0,0,0,.61-.75,3.43,3.43,0,0,0,.25-1.06c0-.4.05-.82.05-1.25V16.1h1.24Zm.17-10.72a.83.83,0,0,1-.23.58.77.77,0,0,1-.56.23.82.82,0,0,1-.58-.23.8.8,0,0,1-.24-.58.82.82,0,0,1,.82-.81.74.74,0,0,1,.56.24A.81.81,0,0,1,96.84,13.3Z"/><path class="cls-1" d="M101.34,9.19a2.59,2.59,0,0,0-1-.24.78.78,0,0,0-.5.15.6.6,0,0,0-.19.49.68.68,0,0,0,.36.62,1.6,1.6,0,0,0,.88.22h.72v.62H98.22v-.62H99.3a.58.58,0,0,1-.19-.31,1.89,1.89,0,0,1-.1-.55,1.09,1.09,0,0,1,.41-1,1.53,1.53,0,0,1,.89-.29,2.3,2.3,0,0,1,.64.09,4.48,4.48,0,0,1,.62.2Zm4,8.71c.39.6.74,1.19,1,1.75s.55,1.1.76,1.58.37.92.5,1.31l.31.93H98.66V22.23h.19a3.16,3.16,0,0,0,1.4-.33,5.43,5.43,0,0,0,1.33-.89,9.31,9.31,0,0,0,1.22-1.34A13.84,13.84,0,0,0,103.88,18c-.29-.41-.64-.87-1-1.36s-.85-1-1.28-1.46-.87-.93-1.27-1.34l-1-1,.87-.89L101.22,13c.31.31.61.64.92,1s.65.71,1,1.14l1.35,1.59a19.58,19.58,0,0,0,.9-2.56,8.83,8.83,0,0,0,.34-2.3v-.93H107v1a10.63,10.63,0,0,1-.44,2.88A17.84,17.84,0,0,1,105.34,17.9Zm-3.25,4.33h4.09c-.14-.37-.34-.82-.6-1.36a19,19,0,0,0-.94-1.71c-.25.4-.47.75-.66,1a7.35,7.35,0,0,1-.58.77c-.19.22-.39.43-.59.63S102.36,22,102.09,22.23Z"/><path class="cls-1" d="M109.14,10.91h1.24V23.47h-1.24Z"/><path class="cls-1" d="M118.09,24.09a11.45,11.45,0,0,1-.12,1.68,4.41,4.41,0,0,1-.46,1.45,2.81,2.81,0,0,1-1,1,3.17,3.17,0,0,1-1.68.39V27.4a1.88,1.88,0,0,0,1.14-.31,1.79,1.79,0,0,0,.6-.8,3.74,3.74,0,0,0,.23-1.17c0-.44,0-.9,0-1.38v-.27h-.67a4.74,4.74,0,0,1-3-.86,2.79,2.79,0,0,1-1.08-2.3,4.23,4.23,0,0,1,.44-1.89,5.16,5.16,0,0,1,1.24-1.57,6.94,6.94,0,0,1,1.9-1.11,8.59,8.59,0,0,1,2.41-.55Zm-1.25-1.86V16.67a5.6,5.6,0,0,0-2.54,1.38,3,3,0,0,0-1,2.21,1.69,1.69,0,0,0,.72,1.44,4,4,0,0,0,2.29.53Z"/><path class="cls-1" d="M126.1,19.35a2.72,2.72,0,0,0-1-.23,1,1,0,0,0-.5.12.46.46,0,0,0-.19.43.68.68,0,0,0,.36.65,1.72,1.72,0,0,0,.89.21h.59v.62H123v-.62h1c-.07,0-.13-.14-.2-.31a1.71,1.71,0,0,1-.09-.55,1,1,0,0,1,.41-.91,1.55,1.55,0,0,1,.88-.27,3.32,3.32,0,0,1,1.29.27Zm6.42,4.14a3.94,3.94,0,0,1-.23,1.23,3.76,3.76,0,0,1-.75,1.26,4.34,4.34,0,0,1-1.37,1,4.84,4.84,0,0,1-2,.39,4.07,4.07,0,0,1-1.2-.2,3.82,3.82,0,0,1-1.17-.6,3,3,0,0,1-.88-1,3.15,3.15,0,0,1-.35-1.51V22.25h1.27V24A1.91,1.91,0,0,0,126,25a2.11,2.11,0,0,0,.57.65,2.33,2.33,0,0,0,.77.39,2.85,2.85,0,0,0,.78.12,3.5,3.5,0,0,0,1.52-.28,2.77,2.77,0,0,0,.93-.66,2.18,2.18,0,0,0,.48-.78,4.66,4.66,0,0,0,.18-.63l-.05-.1c-.3-.22-.66-.5-1.08-.83a7.88,7.88,0,0,1-1.18-1.14,7,7,0,0,1-1-1.43,3.83,3.83,0,0,1-.39-1.71,4.24,4.24,0,0,1,.17-1.12,4.35,4.35,0,0,1,.5-1.12,3.21,3.21,0,0,1,.73-.85,1.44,1.44,0,0,1,.89-.34,1.62,1.62,0,0,1,1.2.52,5,5,0,0,1,.89,1.28l.55,1.07-1.13.58-.62-1.22c-.3-.62-.59-.93-.86-.93a.51.51,0,0,0-.32.17,2.13,2.13,0,0,0-.35.48,3.67,3.67,0,0,0-.29.69,2.56,2.56,0,0,0-.12.79,2.76,2.76,0,0,0,.24,1.13,4.24,4.24,0,0,0,.64,1,7.62,7.62,0,0,0,.89.91c.34.29.68.56,1,.81a2.64,2.64,0,0,1,.58.53Z"/><path class="cls-1" d="M136,24a14.44,14.44,0,0,1-.09,1.6,4.69,4.69,0,0,1-.43,1.49,2.85,2.85,0,0,1-1,1.09,3.19,3.19,0,0,1-1.75.42V27.37a1.82,1.82,0,0,0,1.1-.29,1.72,1.72,0,0,0,.61-.75,3.17,3.17,0,0,0,.25-1.06c0-.4,0-.82,0-1.25V16.1H136Z"/><path class="cls-1" d="M138,10.91h1.25V23.47H138Z"/><path class="cls-1" d="M147,24.09a13,13,0,0,1-.11,1.68,4.41,4.41,0,0,1-.46,1.45,2.81,2.81,0,0,1-1,1,3.18,3.18,0,0,1-1.69.39V27.4a1.9,1.9,0,0,0,1.15-.31,1.79,1.79,0,0,0,.6-.8,4,4,0,0,0,.23-1.17q0-.66,0-1.38v-.27h-.43a5.2,5.2,0,0,1-3.23-.86,2.78,2.78,0,0,1-1.1-2.3,4.23,4.23,0,0,1,.44-1.89,5.16,5.16,0,0,1,1.24-1.57,6.79,6.79,0,0,1,1.9-1.11,8.6,8.6,0,0,1,2.4-.55v7h1.08v1.24H147Zm-1.24-1.86V16.67a5.6,5.6,0,0,0-2.54,1.38,3,3,0,0,0-1,2.21A1.69,1.69,0,0,0,143,21.7a3.92,3.92,0,0,0,2.29.53Z"/><path class="cls-1" d="M152.4,23.47h-4.31a.87.87,0,0,1-.59-.21.47.47,0,0,1,0-.82.87.87,0,0,1,.59-.21h4.31Z"/><path class="cls-1" d="M152.4,23.47a.88.88,0,0,1-.6-.21.47.47,0,0,1,0-.82.88.88,0,0,1,.6-.21h1.2V10.84h1.24v8.63A9.64,9.64,0,0,1,156,18a7.75,7.75,0,0,1,1.71-1.32,10.57,10.57,0,0,1,2.35-1,11.33,11.33,0,0,1,3.06-.38h.65v6.87h1.08v1.24Zm10.12-6.8a10.12,10.12,0,0,0-3.55.89,8.25,8.25,0,0,0-2.25,1.56,6.38,6.38,0,0,0-1.26,1.73,10.44,10.44,0,0,0-.55,1.38h7.61Z"/><path class="cls-1" d="M165.92,10.84h1.25V23.47h-2.33a.87.87,0,0,1-.59-.21.47.47,0,0,1,0-.82.87.87,0,0,1,.59-.21h1.08Z"/><path class="cls-1" d="M169.18,10.91h1.24V23.47h-1.24Z"/><path class="cls-1" d="M182.17,23.47h-1.31a6.12,6.12,0,0,1-1.4-.17,5,5,0,0,1-1.46-.55,3.49,3.49,0,0,1-1.15-1,2.61,2.61,0,0,1-.47-1.57,3.51,3.51,0,0,1,.34-1.57,5,5,0,0,1,.86-1.27,6.66,6.66,0,0,1,1.18-1,10.17,10.17,0,0,1,1.31-.73,10.69,10.69,0,0,1,1.2-.48c.38-.12.68-.2.9-.25Zm-1.24-1.29V16.63c-.29.13-.62.29-1,.5a6.06,6.06,0,0,0-1.07.75,4.7,4.7,0,0,0-.87,1,2.36,2.36,0,0,0-.36,1.29,1.45,1.45,0,0,0,.32.94,2.35,2.35,0,0,0,.79.62,3.49,3.49,0,0,0,1,.33,5.51,5.51,0,0,0,1,.1Zm-1.29-9.36a.83.83,0,0,1-.24.58.8.8,0,0,1-.58.24.82.82,0,0,1,0-1.63.8.8,0,0,1,.58.24A.82.82,0,0,1,179.64,12.82Zm2.7,0a.82.82,0,1,1-.24-.57A.78.78,0,0,1,182.34,12.82Z"/><path class="cls-1" d="M185.67,24a14.47,14.47,0,0,1-.1,1.6,4.45,4.45,0,0,1-.43,1.49,2.85,2.85,0,0,1-1,1.09,3.19,3.19,0,0,1-1.75.42V27.37a1.82,1.82,0,0,0,1.1-.29,1.72,1.72,0,0,0,.61-.75,3.17,3.17,0,0,0,.25-1.06c0-.4,0-.82,0-1.25V16.1h1.25Z"/><path class="cls-1" d="M187.68,10.91h1.24V23.47h-1.24Z"/><path class="cls-1" d="M190.64,16.34a6,6,0,0,1,1.22-.77,4.05,4.05,0,0,1,1.77-.35,3.47,3.47,0,0,1,1.68.39,3.61,3.61,0,0,1,1.19,1,4.54,4.54,0,0,1,.7,1.47,6.05,6.05,0,0,1,.24,1.69,7.06,7.06,0,0,1-.11,1.24,7.14,7.14,0,0,1-.26,1.08,6.38,6.38,0,0,1-.31.83c-.11.23-.2.4-.26.51h-5.93V22.23h5.15c.09-.24.2-.56.31-1a5.61,5.61,0,0,0,.16-1.46,4.88,4.88,0,0,0-.17-1.28,3.54,3.54,0,0,0-.51-1.07,2.48,2.48,0,0,0-.81-.73,2.23,2.23,0,0,0-1.09-.27,3.15,3.15,0,0,0-1,.18,4.9,4.9,0,0,0-1.2.66Z"/><path class="cls-1" d="M201.22,25.36a2.6,2.6,0,0,0-1-.24.9.9,0,0,0-.5.12.46.46,0,0,0-.19.43.71.71,0,0,0,.35.66,1.75,1.75,0,0,0,.89.2h.6v.63h-3.21v-.63h1.05a.59.59,0,0,1-.2-.31,1.46,1.46,0,0,1-.11-.55,1,1,0,0,1,.41-.91,1.65,1.65,0,0,1,.89-.26,3.49,3.49,0,0,1,1.29.26Zm-.55-1.89h-1.25V10.91h1.25Z"/><path class="cls-1" d="M208.59,24a14.44,14.44,0,0,1-.09,1.6,4.46,4.46,0,0,1-.44,1.49,2.77,2.77,0,0,1-1,1.09,3.15,3.15,0,0,1-1.74.42V27.37a1.82,1.82,0,0,0,1.1-.29,1.8,1.8,0,0,0,.61-.75,3.43,3.43,0,0,0,.25-1.06c0-.4,0-.82,0-1.25V16.1h1.24v6.13h1.08v1.24h-1.08Zm.17-10.72a.83.83,0,0,1-.23.58.77.77,0,0,1-.56.23.79.79,0,0,1-.57-.23.8.8,0,0,1-.24-.58.78.78,0,0,1,.24-.57.76.76,0,0,1,.57-.24.74.74,0,0,1,.56.24A.81.81,0,0,1,208.76,13.3Z"/><path class="cls-1" d="M214,23.47h-4.31a.88.88,0,0,1-.6-.21.47.47,0,0,1,0-.82.88.88,0,0,1,.6-.21H214Z"/><path class="cls-1" d="M214.91,16.41a7.09,7.09,0,0,1,1-2.1,9.24,9.24,0,0,1,1.55-1.7,12.29,12.29,0,0,1,1.94-1.37c.7-.4,1.4-.75,2.11-1.07V13.3h-1.25V12.2c-.25.14-.55.33-.87.55a11.09,11.09,0,0,0-1,.75,9.41,9.41,0,0,0-1,.94,6.62,6.62,0,0,0-.82,1.09l.38,0h.4a4,4,0,0,1,3,1.1,4.73,4.73,0,0,1,1.07,3.4v3.49H214a.88.88,0,0,1-.6-.21.47.47,0,0,1,0-.82.88.88,0,0,1,.6-.21h6.27V20a3.6,3.6,0,0,0-.7-2.51,2.7,2.7,0,0,0-2.06-.74,5.27,5.27,0,0,0-1.24.16c-.42.11-1,.28-1.63.51Z"/><path class="cls-1" d="M225.17,24a14.44,14.44,0,0,1-.09,1.6,4.69,4.69,0,0,1-.43,1.49,2.85,2.85,0,0,1-1,1.09,3.19,3.19,0,0,1-1.75.42V27.37a1.82,1.82,0,0,0,1.1-.29,1.8,1.8,0,0,0,.61-.75,3.17,3.17,0,0,0,.25-1.06c0-.4.05-.82.05-1.25V16.1h1.24v6.13h1.08v1.24h-1.08Z"/><path class="cls-1" d="M230.56,23.47h-4.31a.88.88,0,0,1-.6-.21.47.47,0,0,1,0-.82.88.88,0,0,1,.6-.21h4.31Z"/><path class="cls-1" d="M237.23,15.36v8.11h-6.69a.88.88,0,0,1-.6-.21.47.47,0,0,1,0-.82.88.88,0,0,1,.6-.21h1.7a3.31,3.31,0,0,1-.57-1,3.8,3.8,0,0,1-.23-1.4,3.2,3.2,0,0,1,.71-2.1,5.73,5.73,0,0,1,1.65-1.37,8.07,8.07,0,0,1,1.92-.76A11.17,11.17,0,0,1,237.23,15.36ZM236,16.87a8.36,8.36,0,0,0-1,.36,5.5,5.5,0,0,0-1.09.59,3.39,3.39,0,0,0-.86.87,1.93,1.93,0,0,0-.35,1.17,1.86,1.86,0,0,0,.86,1.8,5.43,5.43,0,0,0,2.44.52Z"/><path class="cls-1" d="M4.83,43.76V33.59h5.31v1.14h-4V38H9.85V39.1H6.16v3.52h4.06v1.14Z"/><path class="cls-1" d="M11.92,33.59H14l2.63,8.58,2.64-8.58h2.14V43.76H20.1v-9l-2.87,9H16L13.14,34.7v9.06H11.92Z"/><path class="cls-1" d="M23.68,43.76V33.59H29v1.14H25V38H28.7V39.1H25v3.52h4.06v1.14Z"/><path class="cls-1" d="M30.73,43.76V33.59h3.5a2.45,2.45,0,0,1,1.82.67,2.58,2.58,0,0,1,.65,1.87,2.17,2.17,0,0,1-1.91,2.36A1.72,1.72,0,0,1,36,39a2.56,2.56,0,0,1,.46,1.6,13.92,13.92,0,0,0,.38,3.13H35.49a3.39,3.39,0,0,1-.27-1.33c0-.68-.09-1.35-.12-2-.05-.88-.55-1.31-1.5-1.31H32.06v4.66ZM32.06,38H34a1.23,1.23,0,0,0,1-.46,1.9,1.9,0,0,0,.38-1.23A1.72,1.72,0,0,0,35,35.19a1.16,1.16,0,0,0-1-.46h-2Z"/><path class="cls-1" d="M41.59,39.38V38.25h3.2v5a6.06,6.06,0,0,1-3.1.76,3.09,3.09,0,0,1-2.4-.89,4.56,4.56,0,0,1-.8-3V36.73q0-3.34,3.25-3.35c2,0,3,.85,3,2.57v.41H43.46c0-1.26-.58-1.88-1.76-1.88a1.67,1.67,0,0,0-1.46.62,2.87,2.87,0,0,0-.42,1.62v3.49a3.19,3.19,0,0,0,.51,2.16,1.73,1.73,0,0,0,1.28.5,3.07,3.07,0,0,0,1.85-.45v-3Z"/><path class="cls-1" d="M47.25,43.76V33.59h5.31v1.14h-4V38h3.68V39.1H48.59v3.52h4v1.14Z"/><path class="cls-1" d="M54.41,33.59h1.85l4,8.78V33.59h1.16V43.76H59.63L55.57,34.9v8.86H54.41Z"/><path class="cls-1" d="M68.4,40.77h1.33A3.49,3.49,0,0,1,69,43.2a2.92,2.92,0,0,1-2.22.77,3.11,3.11,0,0,1-2.32-.82A4.44,4.44,0,0,1,63.65,40V37q0-3.65,3.22-3.64c1.83,0,2.75.78,2.75,2.34v.64H68.29V36c0-1-.49-1.54-1.48-1.54a1.76,1.76,0,0,0-1.32.51A3.49,3.49,0,0,0,65,37.28v2.93a4.21,4.21,0,0,0,.38,2,1.52,1.52,0,0,0,1.44.65A1.36,1.36,0,0,0,68,42.31,2.45,2.45,0,0,0,68.4,40.77Z"/><path class="cls-1" d="M71.78,33.59h1.34V43.76H71.78Z"/><path class="cls-1" d="M75.55,43.76V33.59h5.31v1.14h-4V38h3.69V39.1H76.88v3.52h4.06v1.14Z"/><path class="cls-1" d="M82.36,40.77h1.33v.36a1.73,1.73,0,0,0,.46,1.25,1.84,1.84,0,0,0,1.35.46,1.81,1.81,0,0,0,1.24-.42,1.5,1.5,0,0,0,.48-1.2,1.47,1.47,0,0,0-.48-1.1,6.88,6.88,0,0,0-1.67-1,6.56,6.56,0,0,1-2-1.4,2.43,2.43,0,0,1-.51-1.55,2.62,2.62,0,0,1,.8-2,3.07,3.07,0,0,1,2.22-.76,3,3,0,0,1,2.13.69,2.53,2.53,0,0,1,.71,1.9v.39H87.1c0-1.23-.52-1.85-1.58-1.85a1.66,1.66,0,0,0-1.18.4A1.43,1.43,0,0,0,83.92,36a1.63,1.63,0,0,0,.64,1.26,9.5,9.5,0,0,0,1.62,1,5.4,5.4,0,0,1,1.75,1.23,2.67,2.67,0,0,1,.62,1.74q0,2.8-3.27,2.8a3,3,0,0,1-2.16-.72,2.78,2.78,0,0,1-.76-2.11Z"/><path class="cls-1" d="M89.78,45.57l.75-3.31H92L90.7,45.57Z"/><path class="cls-1" d="M101.41,40.77h1.33A3.49,3.49,0,0,1,102,43.2,2.92,2.92,0,0,1,99.8,44a3.11,3.11,0,0,1-2.32-.82A4.44,4.44,0,0,1,96.66,40V37q0-3.65,3.22-3.64c1.83,0,2.75.78,2.75,2.34v.64H101.3V36c0-1-.49-1.54-1.48-1.54A1.76,1.76,0,0,0,98.5,35,3.49,3.49,0,0,0,98,37.28v2.93a4.21,4.21,0,0,0,.38,2,1.52,1.52,0,0,0,1.44.65,1.36,1.36,0,0,0,1.17-.56A2.45,2.45,0,0,0,101.41,40.77Z"/><path class="cls-1" d="M104.61,43.76V33.59h3.5a2.41,2.41,0,0,1,1.81.67,2.54,2.54,0,0,1,.66,1.87,2.18,2.18,0,0,1-1.91,2.36,1.76,1.76,0,0,1,1.22.54,2.62,2.62,0,0,1,.46,1.6,14,14,0,0,0,.37,3.13h-1.35a3.39,3.39,0,0,1-.27-1.33c0-.68-.09-1.35-.12-2,0-.88-.55-1.31-1.5-1.31h-1.54v4.66Zm1.33-5.8h1.91a1.24,1.24,0,0,0,1-.46,1.9,1.9,0,0,0,.38-1.23,1.78,1.78,0,0,0-.34-1.08,1.17,1.17,0,0,0-1-.46h-2Z"/><path class="cls-1" d="M112.66,33.59H114V43.76h-1.33Z"/><path class="cls-1" d="M116.17,40.77h1.33v.36a1.73,1.73,0,0,0,.45,1.25,1.87,1.87,0,0,0,1.35.46,1.79,1.79,0,0,0,1.24-.42,1.5,1.5,0,0,0,.48-1.2,1.47,1.47,0,0,0-.48-1.1,6.77,6.77,0,0,0-1.66-1,6.31,6.31,0,0,1-2-1.4,2.43,2.43,0,0,1-.51-1.55,2.61,2.61,0,0,1,.79-2,3.07,3.07,0,0,1,2.22-.76,2.93,2.93,0,0,1,2.13.69,2.53,2.53,0,0,1,.71,1.9v.39h-1.33c0-1.23-.53-1.85-1.58-1.85a1.64,1.64,0,0,0-1.18.4,1.4,1.4,0,0,0-.43,1.08,1.64,1.64,0,0,0,.65,1.26,9.29,9.29,0,0,0,1.61,1,5.29,5.29,0,0,1,1.75,1.23,2.67,2.67,0,0,1,.62,1.74q0,2.8-3.26,2.8a3,3,0,0,1-2.16-.72,2.78,2.78,0,0,1-.76-2.11Z"/><path class="cls-1" d="M124.29,43.76V33.59h5.3v1.14h-4V38h3.68V39.1h-3.68v3.52h4.06v1.14Z"/><path class="cls-1" d="M131.1,40.77h1.33v.36a1.69,1.69,0,0,0,.46,1.25,2.13,2.13,0,0,0,2.59,0,1.52,1.52,0,0,0,.47-1.2,1.5,1.5,0,0,0-.47-1.1,7.09,7.09,0,0,0-1.67-1,6.56,6.56,0,0,1-2-1.4,2.43,2.43,0,0,1-.51-1.55,2.65,2.65,0,0,1,.79-2,3.09,3.09,0,0,1,2.23-.76,2.92,2.92,0,0,1,2.12.69,2.5,2.5,0,0,1,.72,1.9v.39h-1.34c0-1.23-.52-1.85-1.58-1.85a1.66,1.66,0,0,0-1.18.4,1.44,1.44,0,0,0-.43,1.08,1.64,1.64,0,0,0,.65,1.26,9.5,9.5,0,0,0,1.62,1,5.34,5.34,0,0,1,1.74,1.23,2.62,2.62,0,0,1,.63,1.74q0,2.8-3.27,2.8a3,3,0,0,1-2.16-.72,2.78,2.78,0,0,1-.76-2.11Z"/><path class="cls-1" d="M141.43,43.76l3.2-10.17h1.67l3.31,10.17h-1.46l-.73-2.44h-3.93l-.76,2.44Zm2.39-3.57h3.24l-1.65-5.44Z"/><path class="cls-1" d="M151.08,33.59h1.85l4,8.78V33.59h1.16V43.76h-1.79l-4.07-8.86v8.86h-1.16Z"/><path class="cls-1" d="M160.47,43.76V33.59h3.13a3,3,0,0,1,2.46,1c.55.65.82,1.94.82,3.87q0,3.45-.93,4.38a3.75,3.75,0,0,1-2.8.94Zm1.33-1.14h1.32A2.32,2.32,0,0,0,165,42a3.64,3.64,0,0,0,.54-2.25V37.44a3.37,3.37,0,0,0-.5-2.09,1.79,1.79,0,0,0-1.49-.62H161.8Z"/><path class="cls-1" d="M172.25,43.76V33.59h3.13a3,3,0,0,1,2.46,1c.55.65.82,1.94.82,3.87q0,3.45-.93,4.38a3.75,3.75,0,0,1-2.8.94Zm1.33-1.14h1.32a2.32,2.32,0,0,0,1.89-.66,3.64,3.64,0,0,0,.54-2.25V37.44a3.37,3.37,0,0,0-.5-2.09,1.79,1.79,0,0,0-1.49-.62h-1.76Z"/><path class="cls-1" d="M181,33.59h1.33V43.76H181Z"/><path class="cls-1" d="M184.52,40.77h1.33v.36a1.69,1.69,0,0,0,.46,1.25,2.13,2.13,0,0,0,2.59,0,1.52,1.52,0,0,0,.47-1.2,1.5,1.5,0,0,0-.47-1.1,7.09,7.09,0,0,0-1.67-1,6.56,6.56,0,0,1-2-1.4,2.43,2.43,0,0,1-.51-1.55,2.62,2.62,0,0,1,.8-2,3.05,3.05,0,0,1,2.22-.76,2.92,2.92,0,0,1,2.12.69,2.5,2.5,0,0,1,.72,1.9v.39h-1.34c0-1.23-.52-1.85-1.58-1.85a1.66,1.66,0,0,0-1.18.4,1.44,1.44,0,0,0-.43,1.08,1.64,1.64,0,0,0,.65,1.26,9.5,9.5,0,0,0,1.62,1,5.23,5.23,0,0,1,1.74,1.23,2.62,2.62,0,0,1,.63,1.74q0,2.8-3.27,2.8a3,3,0,0,1-2.16-.72,2.78,2.78,0,0,1-.76-2.11Z"/><path class="cls-1" d="M191.71,43.76l3.2-10.17h1.66l3.32,10.17h-1.46l-.73-2.44h-3.94L193,43.76Zm2.39-3.57h3.23l-1.64-5.44Z"/><path class="cls-1" d="M201,40.77h1.33v.36a1.73,1.73,0,0,0,.46,1.25,2.13,2.13,0,0,0,2.59,0,1.49,1.49,0,0,0,.47-1.2,1.46,1.46,0,0,0-.47-1.1,7.09,7.09,0,0,0-1.67-1,6.56,6.56,0,0,1-2-1.4,2.43,2.43,0,0,1-.51-1.55,2.62,2.62,0,0,1,.8-2,3.05,3.05,0,0,1,2.22-.76,2.92,2.92,0,0,1,2.12.69,2.5,2.5,0,0,1,.72,1.9v.39h-1.34c0-1.23-.52-1.85-1.58-1.85a1.66,1.66,0,0,0-1.18.4,1.44,1.44,0,0,0-.43,1.08,1.64,1.64,0,0,0,.65,1.26,9.5,9.5,0,0,0,1.62,1,5.4,5.4,0,0,1,1.75,1.23,2.67,2.67,0,0,1,.62,1.74q0,2.8-3.27,2.8a3,3,0,0,1-2.16-.72,2.78,2.78,0,0,1-.76-2.11Z"/><path class="cls-1" d="M208.22,33.59h6.64v1.14h-2.65v9h-1.34v-9h-2.65Z"/><path class="cls-1" d="M216.21,43.76V33.59h5.31v1.14h-4V38h3.69V39.1h-3.69v3.52h4.06v1.14Z"/><path class="cls-1" d="M223.26,43.76V33.59h3.5a2.45,2.45,0,0,1,1.82.67,2.58,2.58,0,0,1,.65,1.87,2.18,2.18,0,0,1-1.91,2.36,1.74,1.74,0,0,1,1.22.54,2.56,2.56,0,0,1,.46,1.6,13.92,13.92,0,0,0,.38,3.13H228a3.39,3.39,0,0,1-.27-1.33c-.05-.68-.09-1.35-.12-2,0-.88-.55-1.31-1.5-1.31h-1.54v4.66Zm1.33-5.8h1.91a1.24,1.24,0,0,0,1-.46,1.9,1.9,0,0,0,.38-1.23,1.72,1.72,0,0,0-.34-1.08,1.16,1.16,0,0,0-1-.46h-2Z"/><path class="cls-1" d="M230.89,40.77h1.33v.36a1.69,1.69,0,0,0,.46,1.25,2.13,2.13,0,0,0,2.59,0,1.52,1.52,0,0,0,.47-1.2,1.5,1.5,0,0,0-.47-1.1,7.09,7.09,0,0,0-1.67-1,6.56,6.56,0,0,1-2-1.4,2.43,2.43,0,0,1-.51-1.55,2.62,2.62,0,0,1,.8-2,3.05,3.05,0,0,1,2.22-.76,2.92,2.92,0,0,1,2.12.69A2.5,2.5,0,0,1,237,36v.39h-1.34c0-1.23-.52-1.85-1.58-1.85a1.66,1.66,0,0,0-1.18.4,1.44,1.44,0,0,0-.43,1.08,1.64,1.64,0,0,0,.65,1.26,9.5,9.5,0,0,0,1.62,1,5.23,5.23,0,0,1,1.74,1.23,2.62,2.62,0,0,1,.63,1.74q0,2.8-3.27,2.8a3,3,0,0,1-2.16-.72,2.78,2.78,0,0,1-.76-2.11Z"/><path class="cls-1" d="M100,50.56h2.1l2.63,8.58,2.64-8.58h2.14V60.72h-1.33v-9l-2.87,9h-1.22l-2.86-9v9H100Z"/><path class="cls-1" d="M110.8,60.72,114,50.56h1.67L119,60.72h-1.45l-.74-2.43h-3.93l-.75,2.43Zm2.4-3.57h3.23l-1.65-5.44Z"/><path class="cls-1" d="M120.45,50.56h1.85l4,8.78V50.56h1.16V60.72h-1.79l-4.07-8.85v8.85h-1.16Z"/><path class="cls-1" d="M128.87,60.72l3.2-10.16h1.67l3.31,10.16h-1.46l-.73-2.43h-3.93l-.76,2.43Zm2.4-3.57h3.23l-1.65-5.44Z"/><path class="cls-1" d="M141.41,56.35V55.21h3.21v5a6.11,6.11,0,0,1-3.1.76,3.07,3.07,0,0,1-2.4-.89,4.52,4.52,0,0,1-.81-3V53.7c0-2.24,1.09-3.35,3.26-3.35s3.05.85,3.05,2.57v.41h-1.33c0-1.26-.59-1.89-1.76-1.89a1.63,1.63,0,0,0-1.46.63,2.87,2.87,0,0,0-.42,1.62v3.49a3.19,3.19,0,0,0,.51,2.16,1.76,1.76,0,0,0,1.28.5,3.09,3.09,0,0,0,1.85-.45v-3Z"/><path class="cls-1" d="M147.08,60.72V50.56h5.31v1.13h-4v3.24h3.69v1.13h-3.69v3.53h4.06v1.13Z"/><path class="cls-1" d="M154.17,50.56h2.1l2.63,8.58,2.64-8.58h2.13V60.72h-1.33v-9l-2.86,9h-1.22l-2.87-9v9h-1.22Z"/><path class="cls-1" d="M165.92,60.72V50.56h5.31v1.13h-4v3.24h3.68v1.13h-3.68v3.53h4.06v1.13Z"/><path class="cls-1" d="M173.08,50.56h1.85l4,8.78V50.56h1.16V60.72H178.3l-4.06-8.85v8.85h-1.16Z"/><path class="cls-1" d="M181.51,50.56h6.63v1.13h-2.65v9h-1.33v-9h-2.65Z"/><path class="cls-1" d="M197.29,57.73h1.33a3.41,3.41,0,0,1-.73,2.43,2.88,2.88,0,0,1-2.22.78,3.17,3.17,0,0,1-2.32-.82,4.52,4.52,0,0,1-.81-3.12V54q0-3.65,3.21-3.64,2.76,0,2.76,2.34v.64h-1.33V53c0-1-.5-1.55-1.49-1.55a1.79,1.79,0,0,0-1.32.52,3.57,3.57,0,0,0-.5,2.29v2.93a4.16,4.16,0,0,0,.37,2,1.52,1.52,0,0,0,1.44.66,1.39,1.39,0,0,0,1.18-.56A2.55,2.55,0,0,0,197.29,57.73Z"/><path class="cls-1" d="M200.5,60.72V50.56h5.31v1.13h-4v3.24h3.69v1.13h-3.69v3.53h4.06v1.13Z"/><path class="cls-1" d="M207.65,50.56h1.86l4,8.78V50.56h1.16V60.72h-1.79l-4.07-8.85v8.85h-1.16Z"/><path class="cls-1" d="M216.09,50.56h6.63v1.13h-2.65v9h-1.33v-9h-2.65Z"/><path class="cls-1" d="M224.05,60.72V50.56h3.5a2.4,2.4,0,0,1,1.82.67A2.54,2.54,0,0,1,230,53.1a2.19,2.19,0,0,1-1.92,2.36,1.81,1.81,0,0,1,1.23.53,2.62,2.62,0,0,1,.45,1.61,13.74,13.74,0,0,0,.38,3.12h-1.35a3.07,3.07,0,0,1-.28-1.32c0-.68-.08-1.36-.11-2a1.3,1.3,0,0,0-1.5-1.32h-1.54v4.66Zm1.34-5.79h1.91a1.2,1.2,0,0,0,1-.46,1.85,1.85,0,0,0,.38-1.23,1.78,1.78,0,0,0-.33-1.08,1.19,1.19,0,0,0-1-.47h-2Z"/><path class="cls-1" d="M231.94,60.72V50.56h5.31v1.13h-4v3.24H237v1.13h-3.69v3.53h4.06v1.13Z"/><path id="WHITE_LAYER" data-name="WHITE LAYER" class="cls-2" d="M300,37.37c.13-13.92-2.93-21.72-5.58-25.54.9-1.2,1.46-1.93,1.5-2A2.7,2.7,0,0,1,297.61,9a31.48,31.48,0,0,1,.95-4A22.31,22.31,0,0,1,295,7.08a2.49,2.49,0,0,1-.34,1.83l-1.16,1.55A16.69,16.69,0,0,0,289,6.73q-.72-.41-1.53-.78a2.65,2.65,0,0,0-.72-2,1.4,1.4,0,0,0-.82-1.13h0a1.81,1.81,0,0,0-1.47.4,3.4,3.4,0,0,0-2,1.08,38.56,38.56,0,0,0-5.58-.73,3.25,3.25,0,0,0-1.74-2.18A1.83,1.83,0,0,0,273.79.5h0a1.85,1.85,0,0,0-1.37.93,3.25,3.25,0,0,0-1.74,2.18,38.75,38.75,0,0,0-5.58.73,3.4,3.4,0,0,0-2-1.08,1.8,1.8,0,0,0-1.48-.4h0A1.42,1.42,0,0,0,260.82,4a2.61,2.61,0,0,0-.71,2c-.55.25-1.06.51-1.54.78a14.58,14.58,0,0,0-4.41,3.68l-1-1.41a2.41,2.41,0,0,1-.34-1.82,22.31,22.31,0,0,1-3.55-2.06,30.09,30.09,0,0,1,.94,4,2.81,2.81,0,0,1,1.68.82l1.33,1.74c-2.67,3.8-5.77,11.66-5.64,25.68,0,1.3-.54,13.43,3.41,21.62a19.39,19.39,0,0,0,3.8,5.06,14.44,14.44,0,0,0,6.31,3.51l.29.08a9.6,9.6,0,0,0,6.56-.25l-.14.37a2.33,2.33,0,0,0-.14.33c-.55,1.5-.18,3.06,1.85,3.3a5.18,5.18,0,0,1,1.84.41A5.39,5.39,0,0,1,273,73a7.28,7.28,0,0,1,1,1.47h0A7.28,7.28,0,0,1,275,73a5.63,5.63,0,0,1,1.65-1.23,5.28,5.28,0,0,1,1.84-.41c2-.24,2.42-1.79,1.86-3.3,0-.08-.1-.24-.14-.34l-.15-.36c1.41.82,5.75,1.45,9.91-1.19a17.21,17.21,0,0,0,6.6-7.15C300.57,50.87,300,38.49,300,37.37ZM281.64,26.15a.76.76,0,0,1-.29.27,1.15,1.15,0,0,1-.68.16.74.74,0,0,1-.65-.34,11.77,11.77,0,0,1-1.27-2.49c-.43-1-.35-.86-1-2.41A14.3,14.3,0,0,0,276.61,19,5.61,5.61,0,0,0,275,17.64a4.64,4.64,0,0,0-1.48-.32,8.55,8.55,0,0,0-2.44.2,2.52,2.52,0,0,0-1.22.65,1.14,1.14,0,0,1-.37.31,4.16,4.16,0,0,0-1.1.61,1.37,1.37,0,0,0-.3,2.12h0c0-.27,0-.5.06-.49a1.86,1.86,0,0,0,1.2.22c.51-.07.83.7.83.7l.08-.22a1.8,1.8,0,0,0,.3.59.38.38,0,0,0,.08-.11c.15.19.4.32.42.63a1.23,1.23,0,0,1-.49.88c-.13.13-.94.79-1.79,1.66-.45.46-.67.73-1.12,1.22a1,1,0,0,1-.67.42h-.1a.76.76,0,0,1-.57-.25l-6.52-8.62c3.78-3.69,10-4.3,11.6-4.18.37,0,.78.32.32.91a2.74,2.74,0,0,0,2.08-.4,2.75,2.75,0,0,0,2.08.4c-.46-.59,0-.89.32-.91,1.55-.11,7.5.17,11.66,4.27C285.82,20.62,283.1,24,281.64,26.15Z"/><g id="RED_LAYER" data-name="RED LAYER"><path class="cls-3" d="M299.18,33.56a37.11,37.11,0,0,1-5.89,4l-1,.51v-.68c0-.07.26-9.27-4.21-17.2-.28.37-1.23,1.57-2.19,2.8a1.94,1.94,0,0,1,1.67.6,17,17,0,0,1,3.31,5.35,14.21,14.21,0,0,1,.75,5h0s-.54,9.37-1.61,18.34c-1,8.16-1.51,9.23-1.51,9.23a6,6,0,0,1-1-2.26l-.09.08a7.19,7.19,0,0,1-.9-2.42,36,36,0,0,1-.42-6.67h0a3,3,0,0,0-.36-1.26,5.77,5.77,0,0,1-.42-1.14v0a7.62,7.62,0,0,0-2.37-4,11.36,11.36,0,0,1-1.65-2.72l-.06,0a2.37,2.37,0,0,0-.75,1,10,10,0,0,1,.06,3.25,3.76,3.76,0,0,1-.31-.25c.1,1-.36,2.09-.07,3l-.57-.08.06.14a.84.84,0,0,0,.3.25l.18.09s.2.08.59.2A1.73,1.73,0,0,0,280.5,47c-.27-.33.06-.81.62-.57A8.37,8.37,0,0,1,283.48,48c1.19,1.13,1.54,2.23,1.29,2.45s-.35.13-.58,0a.69.69,0,0,1,0,.13.7.7,0,0,1-.52.44l0,0c-.13.18-.33.25-.7.24a1.92,1.92,0,0,1-.69-.21.77.77,0,0,1-.24-.17l-.22.17a50.1,50.1,0,0,1,4.06,5.69,17.46,17.46,0,0,1,1.36,3,2.37,2.37,0,0,1-1.15,0,4.31,4.31,0,0,1,.31,1.69,3.37,3.37,0,0,1-1.84-.43l.06.33,1.52,1.1c-2.85,1.33-7,.72-7,.71l-.53-.08c0,.07-.06.17-.1.26.28.66.92,2.19,1.07,2.5a9.42,9.42,0,0,0,6.07.94,8.87,8.87,0,0,0,1.54-.42A16,16,0,0,0,292,63.29a18.8,18.8,0,0,0,3.66-4.69c3.14-6.14,3.66-15.25,3.66-18.93V37.75C299.29,36.52,299.23,34.5,299.18,33.56Z"/><path class="cls-3" d="M268.53,65.84c.13-.34.7-1.7,1-2.39l-.12-.36c-.39.07-.78.13-1.18.17s-4.17.63-7-.71c.34-.24,1-.77,1.87-1.34l0-.17a3.42,3.42,0,0,1-1.84.42,4.3,4.3,0,0,1,.31-1.68,2.38,2.38,0,0,1-1.14,0,18.24,18.24,0,0,1,1.35-3,34.11,34.11,0,0,1,3.11-4.39,2.2,2.2,0,0,1,.55-1l.17-.19-.34-.28a.69.69,0,0,1-.28.22,1.91,1.91,0,0,1-.7.21c-.36,0-.57-.06-.69-.24l0,0a.68.68,0,0,1-.51-.44.34.34,0,0,1,0-.14.46.46,0,0,1-.52-.07c-.25-.22.1-1.31,1.29-2.45a8.1,8.1,0,0,1,2.36-1.57c.56-.25.89.23.62.56a1.75,1.75,0,0,0-.25,1.83,5.29,5.29,0,0,0,.53-.19.92.92,0,0,0,.47-.33.33.33,0,0,0,.06-.12l-.5.06c.26-.63-.14-2.17.12-3.16a1.79,1.79,0,0,1-.34.19,12.65,12.65,0,0,1-.09-3,2,2,0,0,0-.62-.86,9.86,9.86,0,0,1-1.58,2.6,7.51,7.51,0,0,0-2.37,4v0a6.28,6.28,0,0,1-.42,1.14,2.94,2.94,0,0,0-.36,1.25h0A36.16,36.16,0,0,1,261,57a7.17,7.17,0,0,1-.91,2.42l-.09-.08a5.79,5.79,0,0,1-1,2.25s-.54-1.07-1.51-9.22c-1.07-9-1.62-18.34-1.62-18.34h0a14.21,14.21,0,0,1,.75-5A17.17,17.17,0,0,1,260,23.64a2,2,0,0,1,1.84-.57c-.17-.24-.37-.5-.37-.5-.61-.81-1.32-1.71-1.93-2.52-4.39,7.73-4.28,16.94-4.28,17v1l-.77-.41a38.19,38.19,0,0,1-6.07-4.07c0,.93-.14,4.11-.14,4.11V39.6c0,3.69.66,12.73,3.66,18.94a18.65,18.65,0,0,0,3.57,4.75,13.9,13.9,0,0,0,5.33,3.12l.46.15a9.51,9.51,0,0,0,7.25-.65Z"/><path class="cls-3" d="M270.4,68.18a40.3,40.3,0,0,1,.46-4.13,2.72,2.72,0,0,1-.68.51c-.05,0-.12-.06-.18-.15l-1.66,4.06A1.91,1.91,0,0,1,270.4,68.18Z"/><path class="cls-3" d="M277.06,69.26a44.47,44.47,0,0,0-.69-6l-.1-.14-.16-.24a7.54,7.54,0,0,1-.4,1.08,2.52,2.52,0,0,1-.56.87,4,4,0,0,1-1.4-1.72,4.17,4.17,0,0,1-1.39,1.7,2.73,2.73,0,0,1-.56-.88c-.09-.19-.16-.39-.23-.58a48.22,48.22,0,0,0-.63,5.86c-1.7-1.12-2.73,0-2.38.78l.11.19a1.13,1.13,0,0,0,.85.45,5.34,5.34,0,0,1,2.1.48,6.6,6.6,0,0,1,2.38,2,6.7,6.7,0,0,1,2.39-2,5.3,5.3,0,0,1,2.1-.48,1.17,1.17,0,0,0,.84-.45.88.88,0,0,0,.12-.19C279.8,69.26,278.76,68.14,277.06,69.26Z"/><path class="cls-3" d="M277.67,64.56a2,2,0,0,1-.57-.41,32.42,32.42,0,0,1,.51,4,1.91,1.91,0,0,1,2.06.29L278,64.19A1.43,1.43,0,0,1,277.67,64.56Z"/></g><path id="BLACK_LAYER" data-name="BLACK LAYER" class="cls-4" d="M285.65,35.47a1.73,1.73,0,0,1-.88,1.25c-.29-.9-.46-1.62.82-4.28-.88,2.61-.5,3.48-.5,3.48A1.48,1.48,0,0,0,285.65,35.47Zm-1.41-1.82s-.3-.58.48-2.85c-1.43,2.16-.8,3.66-.8,3.66a2,2,0,0,0,.94-1.19A1.28,1.28,0,0,1,284.24,33.65Zm5.12-3.85c-.23,2.28-.42,2.75-.66,3.15a1.65,1.65,0,0,1-.37-.61,1.67,1.67,0,0,0,.38,1.39C289.19,33.13,289.52,31.86,289.36,29.8Zm-.45-1.53c-.36,2.56-.77,3.14-1.05,3.58a2.2,2.2,0,0,1-.4-.79,1.88,1.88,0,0,0,.36,1.57A6.31,6.31,0,0,0,288.91,28.27ZM287,30.74a3.89,3.89,0,0,1-.19-1.38,2.37,2.37,0,0,0,.12,2.24,6.66,6.66,0,0,0,1.33-4.28A7.29,7.29,0,0,1,287,30.74Zm-.92-1.45a7.16,7.16,0,0,1-.08-1.8,3.45,3.45,0,0,0-.07,2.73,6.18,6.18,0,0,0,1.6-4A6.21,6.21,0,0,1,286.07,29.29Zm3.12,4.32a1.05,1.05,0,0,0,.42.86,4.16,4.16,0,0,0,.46-2.91,5.71,5.71,0,0,1-.54,2.31S289.23,33.73,289.19,33.61Zm.86.79a.93.93,0,0,0,.41.74,3.66,3.66,0,0,0,.3-2.57,4.66,4.66,0,0,1-.44,2.08A.93.93,0,0,1,290.05,34.4ZM258.87,33c-.24-.39-.43-.86-.66-3.15-.16,2.07.17,3.34.65,3.93a1.69,1.69,0,0,0,.38-1.38A1.56,1.56,0,0,1,258.87,33Zm.84-1.1c-.28-.43-.69-1-1-3.58a6.38,6.38,0,0,0,1.08,4.36,1.88,1.88,0,0,0,.37-1.57A2.2,2.2,0,0,1,259.71,31.92Zm.87-1.1a7.35,7.35,0,0,1-1.26-3.43,6.64,6.64,0,0,0,1.33,4.28,2.34,2.34,0,0,0,.11-2.24A3.79,3.79,0,0,1,260.58,30.82Zm.92-1.46a6.21,6.21,0,0,1-1.45-3.05,6.18,6.18,0,0,0,1.6,4,3.42,3.42,0,0,0-.07-2.72A7.08,7.08,0,0,1,261.5,29.36ZM258,34a5.52,5.52,0,0,1-.54-2.32,4.2,4.2,0,0,0,.46,2.92,1.08,1.08,0,0,0,.42-.87C258.34,33.81,258,34,258,34Zm-.79.78a4.75,4.75,0,0,1-.44-2.09,3.68,3.68,0,0,0,.3,2.58.94.94,0,0,0,.4-.75C257.47,34.58,257.25,34.73,257.25,34.73ZM262.47,36a1.41,1.41,0,0,1-.55-.44,1.76,1.76,0,0,0,.88,1.25c.28-.91.46-1.62-.82-4.28C262.86,35.13,262.47,36,262.47,36Zm.86-2.26a1.38,1.38,0,0,1-.62-.38,2,2,0,0,0,.94,1.19s.63-1.51-.8-3.67C263.63,33.14,263.33,33.73,263.33,33.73Zm6.41,11a6.08,6.08,0,0,0-.6-2.68,1.15,1.15,0,0,0-.13.53,3.62,3.62,0,0,1-.62-1.51,6.94,6.94,0,0,1-.48,1.6,1.1,1.1,0,0,0,.52-.19C268.64,43.47,269.45,43.69,269.74,44.74Zm8.56-2.07a1.13,1.13,0,0,0-.14-.54,6.42,6.42,0,0,0-.6,2.68c.29-1.05,1.11-1.27,1.32-2.24a1.21,1.21,0,0,0,.51.18,8.19,8.19,0,0,1-.48-1.59A3.69,3.69,0,0,1,278.3,42.67ZM272,41.5a6.65,6.65,0,0,0-.85-2.31A2.73,2.73,0,0,0,272,41.5Zm3.23,1.3a5.09,5.09,0,0,0,.69-2.84A5,5,0,0,0,275.2,42.8Zm-1,.68a2.32,2.32,0,0,0-.05-2A2.51,2.51,0,0,0,274.17,43.48Zm-.79-2.11a2.67,2.67,0,0,0-.14-2.21A2.83,2.83,0,0,0,273.38,41.37ZM279,34.18a9,9,0,0,0-.78,2.64C278.4,36.67,279.3,34.56,279,34.18Zm0-2.39s.8-1.42.34-2.2C278.86,29.71,279.06,31.8,279.05,31.79Zm-2.34,3.43a4.09,4.09,0,0,0,1.22-2.73,2.65,2.65,0,0,1-1.22,1.45,1.85,1.85,0,0,1-.69-1A2.54,2.54,0,0,0,276.71,35.22Zm2.49-1.73c.34-.54.81-1.31.42-1.81A14.08,14.08,0,0,0,279.2,33.49Zm-3.94,5.95a4.82,4.82,0,0,0,.66-2.55A4.22,4.22,0,0,0,275.26,39.44Zm1.82-1.62a3.32,3.32,0,0,0,.82-3.07A6.89,6.89,0,0,0,277.08,37.82Zm-1.62-3.23a3.82,3.82,0,0,1-1.09,1.77,3.45,3.45,0,0,1-.77-1.1,2.33,2.33,0,0,0,1,2.21A3.69,3.69,0,0,0,275.46,34.59Zm-3.27,3.1a3.89,3.89,0,0,1-1.13-1.16,5.18,5.18,0,0,0,1.52,2.33,4,4,0,0,0,.22-3.1A6.38,6.38,0,0,1,272.19,37.69Zm-4.42-8.34c-.09-.61.66-1.16.4-2.14A1.93,1.93,0,0,0,267.77,29.35Zm1.52,7.19a6.15,6.15,0,0,0,1.08,1.38c-.52-.8-.94-2.28-1.46-2.68A2.57,2.57,0,0,0,269.29,36.54Zm-.37-3.3a3.07,3.07,0,0,0,.95,2.44A3.9,3.9,0,0,0,268.92,33.24Zm.87-2.31a8.85,8.85,0,0,1-.13,1.58,1.92,1.92,0,0,1-.77-.54,6.28,6.28,0,0,0,1.21,1.7A4.18,4.18,0,0,0,269.79,30.93Zm-.54-3.19a21.57,21.57,0,0,1,1.28-2.65A2.64,2.64,0,0,0,269.25,27.74Zm-1.06,5.42a7,7,0,0,0-.61-2.67A5,5,0,0,0,268.19,33.16Zm3.08-4.08c-.83,1,.45,2.33.45,2.34S271.82,29.46,271.27,29.08Zm.62-2.83a1.52,1.52,0,0,0-.43,2.27A8.56,8.56,0,0,0,271.89,26.25Zm.72,8.32a3.88,3.88,0,0,0,.5-2.81,2.3,2.3,0,0,1-.81,1.59,2,2,0,0,1-.71-.89A2.57,2.57,0,0,0,272.61,34.57Zm6.28-8.17a7.29,7.29,0,0,0,.75,2.4A2.23,2.23,0,0,0,278.89,26.4Zm-1.67-2.76c-.1.6.85,1.49.85,1.5A1.45,1.45,0,0,0,277.22,23.64Zm1.4,4.54a3.37,3.37,0,0,1-.85,1.8,5.6,5.6,0,0,1-.84-.87,3.72,3.72,0,0,0,.87,2.08A3.3,3.3,0,0,0,278.62,28.18ZM276,25.73c-.5.54,0,1.61.25,2.56C276.5,27.82,276.82,26.24,276,25.73Zm.42-1.5a1.33,1.33,0,0,0-1.21-1.45C275.13,23.33,276.07,23.67,276.41,24.23Zm-1.17-2c.25.25,1,.43,1.47.84A1.06,1.06,0,0,0,275.24,22.22Zm-1.07,3.05a1.2,1.2,0,0,0-.29,1.49S274.8,25.77,274.17,25.27Zm1.13,7.8a4,4,0,0,0,1-2.7,6.91,6.91,0,0,1-1.12,1.4,4.71,4.71,0,0,1-.93-.86A3.57,3.57,0,0,0,275.3,33.07Zm-1.4-5a2.48,2.48,0,0,0,0,2.57S274.47,28.88,273.9,28.06Zm.28-9c.23.23,1,.54,1.38.92C275.5,19.34,275,19,274.18,19.05Zm.39.73a2.2,2.2,0,0,0-1.3-.74A1.51,1.51,0,0,0,274.57,19.78Zm1.52,1.29a1.52,1.52,0,0,0-1.12-.79,3,3,0,0,1,.4.66,2.86,2.86,0,0,1-.67.14A1.54,1.54,0,0,0,276.09,21.07Zm-6.64-1.83c-.07,0-.13.25.11.26s.24-.22.24-.22S269.54,19.18,269.45,19.24Zm6.43-12.6c-.24-.17-.39-.3-.64-.46-.21.14-.45.34-.61.47.21.16.37.29.61.46C275.48,6.92,275.6,6.83,275.88,6.64ZM271.94,18.7a.72.72,0,0,1,.05.4.64.64,0,0,1-.53.59.65.65,0,0,1-.83-.58.84.84,0,0,1,.07-.35c-.13,0-.14.11-.27.28s-.2.09-.39.21a1.05,1.05,0,0,1,.57-.77,4.55,4.55,0,0,1,3.1.31,6.8,6.8,0,0,0-1.09-.07Zm-.2,0c-.05,0-.4,0-.43.05s.21.18.29.2a.14.14,0,0,0,.16-.08C271.79,18.81,271.79,18.73,271.74,18.71Zm5.12-9a48.54,48.54,0,0,0-11.86.94,4.38,4.38,0,0,0-.56-1c-.78-.83-1.1.07-1.1.17,1,.06,1.14.56,1.14.56a2.2,2.2,0,0,1-.94.93,3.49,3.49,0,0,1-1.66.58c-1.83.09-1.33-1.81-.22-2.59-.14.17-.8,1.17-.4,1.68s2.15.1,2.56-.41a1.64,1.64,0,0,0-1.24-.22,2.73,2.73,0,0,1,1.05-1.82,2.56,2.56,0,0,1,1.52,1.32A47.22,47.22,0,0,1,273,8.86c-.06-.46-.22-2.21-.23-2.32a.55.55,0,0,1,.35-.53,1.36,1.36,0,0,0,.85.68,3,3,0,0,1-.55.46c0,.35.06,1,.07,1.25a10.12,10.12,0,0,1,1.79-.62,2.59,2.59,0,0,1,.81-.07,1.4,1.4,0,0,1,.71.3.77.77,0,0,1,.29.56A3,3,0,0,1,276.86,9.68Zm-.62-1.15c-.38-.61-1.78-.06-2.67.31.51,0,.95,0,1.5,0l1.2,0A.34.34,0,0,0,276.24,8.53Zm-12.63,3.28-.55-.16c-.13.2-.28.46-.38.63l.75.24.28-.44.53.17c.16-.25.23-.37.41-.63-.29-.09-.48-.16-.78-.24C263.78,11.51,263.69,11.67,263.61,11.81ZM286,9.55c.6-.05,1.15.1,1.41-.18a2,2,0,0,1-.89-.39c.17-.13.39,0,.51.15l.23-.21a.78.78,0,0,0-1.14.2,1.46,1.46,0,0,1,.35.2A1.87,1.87,0,0,0,286,9.55Zm-.35,1.12c-.24.56-.45,1.13-.73,1.65.17.06.39-.08.55-.18A5.32,5.32,0,0,0,287,9.69a2.41,2.41,0,0,0-.67.19C285.92,10.08,285.85,10.19,285.64,10.67Zm-5.62.26.53.53.71-.38c-.2-.2-.33-.34-.55-.54Zm5-.58a2.73,2.73,0,0,1-.61.91,23.6,23.6,0,0,0-4.58-1.11,3.14,3.14,0,0,1-1.39,1,6.75,6.75,0,0,1-1.83-.53c.31,0,.4,0,.61,0a4.08,4.08,0,0,0,2-.57c-1.09-.17-1.35-.47-.82-1.17.24-.31.64-.89,1.22-.74s.57.77.51,1.25a22.58,22.58,0,0,1,4.16,1c.08-.36-.15-.54-.29-.8a4.11,4.11,0,0,1,.68-.57A1.32,1.32,0,0,1,285,10.35Zm-6-1.63a.89.89,0,0,0-.32.35c.1.15.29.21.58.25l.16,0C279.56,9,279.27,8.63,279,8.72Zm-13.64,2.6.71.31.49-.59-.73-.31A7.11,7.11,0,0,0,265.36,11.32Zm31.25,47.73A17.21,17.21,0,0,1,290,66.2c-4.16,2.64-8.5,2-9.91,1.19l.15.36c0,.1.1.26.14.34.56,1.51.18,3.06-1.86,3.3a5.28,5.28,0,0,0-1.84.41A5.63,5.63,0,0,0,275,73a7.28,7.28,0,0,0-1,1.47h0A7.28,7.28,0,0,0,273,73a5.39,5.39,0,0,0-1.65-1.23,5.18,5.18,0,0,0-1.84-.41c-2-.24-2.4-1.8-1.85-3.3a2.33,2.33,0,0,1,.14-.33l.14-.37a9.6,9.6,0,0,1-6.56.25l-.29-.08a14.44,14.44,0,0,1-6.31-3.51,19.39,19.39,0,0,1-3.8-5.06c-3.95-8.19-3.4-20.32-3.41-21.62-.13-14,3-21.88,5.64-25.68L251.84,10a2.81,2.81,0,0,0-1.68-.82,30.09,30.09,0,0,0-.94-4,22.31,22.31,0,0,0,3.55,2.06A2.41,2.41,0,0,0,253.11,9l1,1.41a14.58,14.58,0,0,1,4.41-3.68c.48-.27,1-.53,1.54-.78a2.61,2.61,0,0,1,.71-2,1.42,1.42,0,0,1,.82-1.13h0a1.8,1.8,0,0,1,1.48.4,3.4,3.4,0,0,1,2,1.08,38.75,38.75,0,0,1,5.58-.73,3.25,3.25,0,0,1,1.74-2.18A1.85,1.85,0,0,1,273.79.5h0a1.83,1.83,0,0,1,1.37.93,3.25,3.25,0,0,1,1.74,2.18,38.56,38.56,0,0,1,5.58.73,3.4,3.4,0,0,1,2-1.08,1.81,1.81,0,0,1,1.47-.4h0A1.4,1.4,0,0,1,286.76,4a2.65,2.65,0,0,1,.72,2q.81.38,1.53.78a16.69,16.69,0,0,1,4.5,3.73l1.16-1.55A2.49,2.49,0,0,0,295,7.08,22.31,22.31,0,0,0,298.56,5a31.48,31.48,0,0,0-.95,4,2.7,2.7,0,0,0-1.67.82s-.6.77-1.5,2c2.65,3.82,5.71,11.62,5.58,25.54C300,38.49,300.57,50.87,296.61,59.05Zm-1.25-44a12.72,12.72,0,0,1-3.36.31,6.8,6.8,0,0,0-.74,3.32,2.81,2.81,0,0,1-1.39-.78l-1.25,1.65a36,36,0,0,1,4.47,17.14,40.41,40.41,0,0,0,6-4.14C298.71,25.27,297.58,19.79,295.36,15Zm-7,21.89a5.75,5.75,0,0,0,.11,2.31,5.56,5.56,0,0,0,1-1.91,5.26,5.26,0,0,0,.37,1.86c.53-.76.83-3.84.83-3.84s0,.08.28.17a12.55,12.55,0,0,0-.1-4.41,14.72,14.72,0,0,0-3.43-6.82c-1.17-1.39-2.16-.76-3.16.32-1.59,1.74-1.94,2.51-3.85,2.86,0,0,0,0,0,0-.19,0-.05.13.33.13,2.31,0,3-1.57,3.72-2.34.46-.51,1.05-1,1.54-.68.19.11.82.84.16,2.65a1.66,1.66,0,0,0-.23-.87,11.15,11.15,0,0,1-1.19,3,6.13,6.13,0,0,1-.15-.64c-.22,1.46-1.53,3-1.72,5.07a1.49,1.49,0,0,1-.26-.91c-1,1.82-2,5.08-1.38,6.72a10.74,10.74,0,0,1,1.53-4.82c-.68,2.14-1.46,4.79-.78,6.38a11.77,11.77,0,0,1,1.39-4.51c-.93,3.51-1.32,5.31-.28,6.66a10.44,10.44,0,0,1,1.09-4.95c-.49,2.75-1.19,5.14.1,6.35a11.93,11.93,0,0,1,.87-5c-.42,2.65-.79,5.2.07,6.48a13.54,13.54,0,0,1,.35-2.76c.22-1.16.56-2.27.56-2.27s-.26,1.86-.41,4.11c0,.38,0,.76,0,1.13a8.19,8.19,0,0,0,.14,1.39,3.55,3.55,0,0,0,.4,1.13,36.31,36.31,0,0,1,1-6.77s-.34,2.8-.57,7.08c0,.16,0,.31,0,.46-.28,6.15.55,8.13.81,8.72a4.12,4.12,0,0,1-.08-.91,7.33,7.33,0,0,1,.05-1.38,9.9,9.9,0,0,1-.46-2.87c0-.92.11-1.83.18-2.71s.15-1.61.23-2.36.16-1.35.26-2.05c.14-1,.33-2,.51-3,.14-.78.06-.1.05.09-.07.89-.23,2.83-.39,4.82-.11,1.49-.44,4.44-.37,5.86a7.43,7.43,0,0,0,.41,2,8.57,8.57,0,0,0,.59,4.27,18.25,18.25,0,0,0,.43-1.93.48.48,0,0,1-.24.22,7.77,7.77,0,0,1-.25-3.55,5.56,5.56,0,0,1-.31-1.71,52.08,52.08,0,0,1,.5-5.28c.08-.59.15-1.16.24-1.7.05-.35.1-.69.16-1,.08-.56.18-1.11.3-1.66a2,2,0,0,1,.05-.26s0,.41-.06.94c-.19,2.38-.73,8.43-.73,8.91a5.76,5.76,0,0,0,.27,1.76,12.92,12.92,0,0,0,.08,2.82,6.86,6.86,0,0,0,.18-1s.34-2.46.73-5.95c.06-.54.12-1.08.17-1.62s.11-1,.16-1.56l.18-1.86c0-.27.05-.54.07-.81.15-1.65.31-3.5.45-5.14,0,0,.22-2.67.27-3.47l-.13-.09s-.3,3.29-1.18,4.44a4.09,4.09,0,0,1-.5-1.86,5.53,5.53,0,0,1-1,1.53,4.54,4.54,0,0,1-.24-1.72,2.67,2.67,0,0,1-.9.9,3.69,3.69,0,0,1-.34-1.82,2.65,2.65,0,0,1-.75.64c-.1-.25-.69-1.18.37-4.61-.42,3.17-.17,3.54-.09,3.79a1.86,1.86,0,0,0,.49-.31,18.14,18.14,0,0,1,.33-2.27c-.16,2.53,0,3.32.23,3.81A4.27,4.27,0,0,0,288.38,36.93ZM280.64,38a33.44,33.44,0,0,1,1.26-6.91C280.17,33,280.42,37.32,280.64,38Zm.32-7.12c.55-1.64.09-2.47-.23-2.63C280.72,29,280.92,29.35,281,30.88Zm1.4,1.36a12.28,12.28,0,0,0,.67-3.65A7.05,7.05,0,0,0,282.36,32.24ZM283.85,29a4.88,4.88,0,0,0,.06-1.83,7.28,7.28,0,0,0-.47,2.87A6.43,6.43,0,0,0,283.85,29Zm-4,12.33a.08.08,0,0,1,0-.09h0c.05,0,.11,0,.22.11l.22.13a3.75,3.75,0,0,1-.18-1.2,6.34,6.34,0,0,0-.2-1.48.24.24,0,0,1,0-.07,3.08,3.08,0,0,1-.43.7,2.63,2.63,0,0,0-.59,1.12v.09l-.07-.06c.13.12-.36-.44-.36-.45a10.58,10.58,0,0,1-1.71,2.59h0a5.64,5.64,0,0,0-.69,2.49,10.78,10.78,0,0,0,0,2.64l.44-.47a7,7,0,0,1,0,1,2.9,2.9,0,0,1-.17.73,1.72,1.72,0,0,0,1.53-.66l.12.32c.11.31.19.68-.06.88,0,0-.45.39-.4.75a.55.55,0,0,0,.24.35h0v0a.43.43,0,0,0,.26.36.69.69,0,0,1,0-.34.43.43,0,0,1,.38-.31.8.8,0,0,1,.2,0s.11,1,.2,1.4a13.62,13.62,0,0,1,.22,1.35c0,.11,0,.22,0,.34,0,.34.23.37.41.4a3,3,0,0,0,.42,0h0c-.25.07-.24.17-.23.2a1.07,1.07,0,0,1,0,.66l0,0a.79.79,0,0,0,.35-.9v0l0,0c.29-.17.22-.76-.2-1.67-.2-.42-.28-1.14-.15-1.2s0,0,0,0,.15,0,.35.29a7.42,7.42,0,0,0,.46.6,1,1,0,0,1,.28.57c0,.07,0,.11-.06.14a.21.21,0,0,1-.12,0,1.27,1.27,0,0,1-.28,0c.09.1.45.51.56.39.27-.32,0,.19.5.24a.51.51,0,0,0,.54-.56,1.66,1.66,0,0,0,0-.33,1.89,1.89,0,0,0-.46-.84l-.11-.11c-.79-.88-.73-1.07-.68-1.16s.15-.17.36-.18.65,0,.67,0c.32.07.85.15.83.32a.12.12,0,0,1-.08.09c-.11,0-.3.12-.32.07a.76.76,0,0,0,.29.21c.14.06.69.22.85,0l.06-.11c.09,0,.36,0,.42-.23s-.17-.4-.4-.52a10.38,10.38,0,0,0-1.18-.44l-.57-.15-1-.25a6.41,6.41,0,0,1-.71-.25l-.2-.09a1.15,1.15,0,0,1-.41-.35,4.35,4.35,0,0,1-.32-1,2.09,2.09,0,0,0,.76.31,3.85,3.85,0,0,1,0-.86c.15-1.58.18-2.49.18-2.49l.31.33a10.51,10.51,0,0,0-.09-1.59v0A16.53,16.53,0,0,0,279.9,41.35ZM281,48.86l.74.2.36.08a2.87,2.87,0,0,0,.17-1.08c0-.41.93.46,1.55,1.09.26.26.31.15.16-.06a8.6,8.6,0,0,0-2.21-1.88c-.6-.37-.9-.28-.69,0A1.88,1.88,0,0,1,281,48.86ZM282.14,55c.7.88,1.82,2.54,2.25,3,.92,1,1.31,1.07,2,1.11a12.8,12.8,0,0,0-1.54-3,28.22,28.22,0,0,0-2.49-3.45,1.43,1.43,0,0,1-.06.5l-.06.1a.78.78,0,0,1-.25.29.93.93,0,0,1-.54.14.72.72,0,0,1-.47-.22.55.55,0,0,1-.34-.09.94.94,0,0,1-.18.77,1.31,1.31,0,0,1-.37.94l.05.07c.23.41.13.61,0,.74s-1.21,1.36-1.46,1.58a.45.45,0,0,1-.61,0l-.19-.16-.51.52.06.06h0a4.35,4.35,0,0,0,1.25.77c.41.17,1.59.61,2.39.94-.19-.59-.41-1.26-.64-1.92.2.28.78,1.29,1.27,2.19,0,0,.06,0,0,0A19.61,19.61,0,0,1,283.9,61c0-.22-.09-.37-.09-.37a10.67,10.67,0,0,1-1-1.19,12.28,12.28,0,0,1-1.6-3.2c.93,1.39,1.16,1.78,1.53,2.27a5.21,5.21,0,0,0,2.88,2.25c-.17-.86-.48-1.06-.48-1.06A8.55,8.55,0,0,1,284,58.35l0,0c-.24-.33-.14-.2,0,0A15.62,15.62,0,0,1,282.14,55ZM279,62.67a18.81,18.81,0,0,0,6.16-.32,25.1,25.1,0,0,0-5.32-2.78,9.74,9.74,0,0,1-1.92-.93,6.92,6.92,0,0,1-.88-.7c-1-.89-3.52-3.55-4-4l-1.69,1.56a64.33,64.33,0,0,0,5.61,5,33.94,33.94,0,0,0,5.58,1.72A21.89,21.89,0,0,1,277,61c-1.45-.58-6-5.1-6-5.1l-1.11,1a31.88,31.88,0,0,0,3.8,3.63A10.1,10.1,0,0,0,279,62.67Zm-4.86-1a3,3,0,0,0,.88,1.87,2.59,2.59,0,0,0,.39-1.16A6.65,6.65,0,0,1,274.1,61.66Zm-7.65-5.53a12.48,12.48,0,0,1-1.6,3.21,10.57,10.57,0,0,1-1,1.17,1.83,1.83,0,0,0-.07.28l-.12.07.67-.37a2.55,2.55,0,0,1,.33-.17c.44-.24.92-.46,1.41-.67.48-.86,1.05-1.89,1.23-2.16a8.94,8.94,0,0,1-.68,1.93l.37-.14c.76-.3,1.42-.54,1.74-.69a4.28,4.28,0,0,0,1-.6l.21-.19-.54-.54-.19.15a.46.46,0,0,1-.61,0c-.25-.23-1.37-1.47-1.46-1.58s-.24-.35,0-.75v0a1.29,1.29,0,0,1-.39-1,.94.94,0,0,1-.18-.77.55.55,0,0,1-.34.09.74.74,0,0,1-.47.22h-.07a.74.74,0,0,1-.49-.16.73.73,0,0,1-.28-.35s0,0,0-.05a19.17,19.17,0,0,0-2.11,2.93,13,13,0,0,0-1.55,3c.71,0,1.1-.15,2-1.11.43-.45,1.54-2.1,2.25-3a15.39,15.39,0,0,1-1.78,3.31,8.35,8.35,0,0,1-1.26,1.38s-.27.17-.43,1a5.26,5.26,0,0,0,2.88-2.26C265.29,57.91,265.53,57.52,266.45,56.13Zm-.64-4.64a1.85,1.85,0,0,0-.61,1.28.51.51,0,0,0,.54.56c.47,0,.23-.56.49-.24.11.12.47-.29.57-.39-.21,0-.5.07-.45-.23a1.23,1.23,0,0,1,.34-.58c.12-.16.51-.89.76-.8s.05.78-.15,1.2c-.43.91-.5,1.5-.2,1.67l0,0v0a.78.78,0,0,0,.35.9l0,0a1.13,1.13,0,0,1,0-.66s0-.13-.24-.2h0a3,3,0,0,0,.42,0c.17,0,.37-.06.41-.4,0-.12,0-.23,0-.34a13.62,13.62,0,0,1,.22-1.35c.09-.41.19-1.4.19-1.4a.8.8,0,0,1,.2,0,.43.43,0,0,1,.38.31.51.51,0,0,1,0,.34.46.46,0,0,0,.27-.36v0h0a.55.55,0,0,0,.24-.35c.05-.36-.36-.73-.4-.75-.25-.2-.17-.57-.06-.88l.14-.38a1.81,1.81,0,0,0,.49.41,1.66,1.66,0,0,0,1.15.31,2.9,2.9,0,0,1-.17-.73,7,7,0,0,1,0-1l.44.47a7,7,0,0,0,.09-2.5,9.49,9.49,0,0,0-.68-2.9,5.28,5.28,0,0,0-.38-.85.91.91,0,0,1-.34.5,7.12,7.12,0,0,1-1.18-2,1.66,1.66,0,0,1-.36.45l-.07.06v-.09a2.43,2.43,0,0,0-.59-1.12,2.71,2.71,0,0,1-.42-.7,6.73,6.73,0,0,0-.22,1.53,3.73,3.73,0,0,1-.18,1.19l.23-.13c.1-.07.16-.11.21-.1h0l0,0a.11.11,0,0,1,0,.08,13.3,13.3,0,0,0-.31,1.84,5.54,5.54,0,0,0,0,1.51,4.74,4.74,0,0,1,.49-.29,7.27,7.27,0,0,0-.15,2.53,4.66,4.66,0,0,1,0,.86,2,2,0,0,0,.69-.27,4.8,4.8,0,0,1-.32,1,3.23,3.23,0,0,1-1.83.83,10.63,10.63,0,0,0-2.2.7c-.23.12-.45.35-.4.52s.32.23.42.23l.05.11c.17.26.72.1.85,0a.74.74,0,0,0,.3-.21s-.21,0-.32-.07a.12.12,0,0,1-.08-.09c0-.32,1.3-.36,1.5-.36s.28.05.35.18S266.6,50.61,265.81,51.49Zm.38-4.26c.21-.33-.09-.42-.69,0a9,9,0,0,0-2.21,1.88c-.15.21-.1.33.16.06.62-.63,1.56-1.49,1.55-1.08a2.78,2.78,0,0,0,.18,1.09l.28-.07.81-.22A1.88,1.88,0,0,1,266.19,47.23Zm-1.35-12.39a10.7,10.7,0,0,1,1.53,4.82C267,38,266,34.75,265,32.93a1.44,1.44,0,0,1-.26.91c-.19-2.09-1.5-3.6-1.73-5.06a5.09,5.09,0,0,1-.14.64,11.15,11.15,0,0,1-1.19-3,1.66,1.66,0,0,0-.24.86c-.65-1.8,0-2.53.17-2.64.49-.29,1.08.17,1.54.68.69.76,1.41,2.29,3.72,2.33.38,0,.52-.09.33-.12h0c-1.92-.35-2.26-1.12-3.86-2.86-1-1.09-2-1.71-3.16-.33a14.81,14.81,0,0,0-3.42,6.83,12.79,12.79,0,0,0-.11,4.41c.27-.1.29-.17.29-.17s.3,3.07.83,3.84a5.31,5.31,0,0,0,.37-1.86,5.48,5.48,0,0,0,1,1.91,5.63,5.63,0,0,0,.1-2.32,4.09,4.09,0,0,0,1.07,1.74c.19-.48.39-1.28.23-3.8a18,18,0,0,1,.33,2.26,2.18,2.18,0,0,0,.49.32c.08-.26.33-.63-.09-3.8,1.06,3.44.47,4.37.37,4.62a2.82,2.82,0,0,1-.75-.64,3.64,3.64,0,0,1-.34,1.81,2.5,2.5,0,0,1-.9-.9,4.56,4.56,0,0,1-.24,1.73,5.53,5.53,0,0,1-1-1.53,4.16,4.16,0,0,1-.5,1.86c-.88-1.16-1.18-4.45-1.18-4.45l-.13.1c0,.8.15,2,.27,3.45h0c.14,1.64.3,3.5.45,5.14q.51,5.91,1.31,11.8a5.7,5.7,0,0,0,.18,1,12.5,12.5,0,0,0,.07-2.83,5.86,5.86,0,0,0,.28-1.76c0-.48-.55-6.53-.73-8.9,0-.29-.06-.93-.06-.94s0,.16.05.25c.19.9.33,1.8.46,2.71.08.53.16,1.11.24,1.69a44.85,44.85,0,0,1,.5,5.29,5.81,5.81,0,0,1-.31,1.7,7.62,7.62,0,0,1-.26,3.55.51.51,0,0,1-.24-.21c.19,1.07.44,1.93.44,1.93a8.61,8.61,0,0,0,.59-4.28,7.64,7.64,0,0,0,.41-2c0-.37-.05-1.53-.15-3-.18-2.57-.41-5.14-.61-7.71,0-.13,0-.43,0-.46s.05.24.08.36a62.41,62.41,0,0,1,1.18,10.09,9.92,9.92,0,0,1-.46,2.88,7.25,7.25,0,0,1,.05,1.37,4.12,4.12,0,0,1-.08.91c.26-.59,1.09-2.56.81-8.72l0-.45c-.22-4.29-.56-7.09-.56-7.09a36.31,36.31,0,0,1,1,6.77l.08-.15a8.15,8.15,0,0,0,.43-3.5c-.15-2.25-.41-4.1-.41-4.09l.06.18a17.88,17.88,0,0,1,.5,2.08,21.68,21.68,0,0,1,.34,2.42c0,.11,0,.22,0,.33h0c.86-1.27.49-3.83.07-6.48a12.15,12.15,0,0,1,.87,5c1.28-1.2.59-3.6.1-6.34a10.4,10.4,0,0,1,1.09,4.95c1-1.36.65-3.15-.28-6.67a12,12,0,0,1,1.39,4.52C266.3,39.63,265.52,37,264.84,34.84Zm11.56,7.78a4,4,0,0,0,.75-2.26,1.22,1.22,0,0,1,.36.5,12.17,12.17,0,0,0,1.12-3.54c.23.1,0,0,.29.18a11.66,11.66,0,0,0,.77-3.49c.08,0,.23,0,.29.1.12-.84.25-2.18.28-3.12a11,11,0,0,0-.33-3.44,10.46,10.46,0,0,0-1.06-2.34,1,1,0,0,0-.3.23,19.41,19.41,0,0,0-.78-2c-.53-1-.78-1.69-1.32-2a4.09,4.09,0,0,0,.65.05,10.49,10.49,0,0,0-.89-.87c.13-.09.36-.08.74,0-.54-.49-.72-1.24-2.11-1.77a7.42,7.42,0,0,1,.77,0,2.42,2.42,0,0,0-1.29-.93c-1.42-.28-3.39-.32-4.31.76-.06.08-.31.13-.53.21a1.19,1.19,0,0,0-.27.14c-.15.11-.18.28.12.71-.4-.06-.5-.44-.57-.4a1.34,1.34,0,0,0-.43.43,1.46,1.46,0,0,0-.21.8.27.27,0,0,0,.44-.2c0-.14.65-.2.87-.2s.6.08,1,.06l-.74.22c-.18.05-.19.24,0,.25s.26-.06.44-.1,0,.24.06.36c1.15-.27,1.23,1,2.46.72-.58-.44-1.07-1.2-1.52-1.42,1.2.19,1.86,1.27,3.16,1.32,0-.12,0-.12-.16-.34.45,0,.77.34.9.33A1.87,1.87,0,0,1,274,22c.09.16.58.2.75.23a1.2,1.2,0,0,1-1.16.23,5.19,5.19,0,0,1-1.3,1.11,2.71,2.71,0,0,1,0-.41c-.56.33-.93.92-1.34,1.08.12-.21.23-.57.32-.75A18.86,18.86,0,0,0,267.86,27a7.16,7.16,0,0,0-.7,4c.06,1,.48,3.76.55,4.3l.3-.13A23,23,0,0,0,270,41a.86.86,0,0,1,.32-.43,2.75,2.75,0,0,0,.83,1.56,1.47,1.47,0,0,1,.18-.71c.12.39.05,1.62.75,2.3a4,4,0,0,1,.18-1.08,8.65,8.65,0,0,0,.34,1.28,2.42,2.42,0,0,0,.75,1,3.91,3.91,0,0,1,.15-1.31,3.66,3.66,0,0,1,.56,1.65c.71-.55,1-2.35,1-2.35a1.56,1.56,0,0,1,.35.68,4.86,4.86,0,0,0,1-2.15A4,4,0,0,1,276.4,42.62Zm.71,9.51a8.6,8.6,0,0,0,1.42-.06c0-.1,0-.19,0-.27l0-.2h0a3.7,3.7,0,0,1-1.62.11c-.37-.08-.39-.09-.67-.17s-.67.35-1,.69l-.8.88s0,.06,0,.09c.29.26,3.83,3.5,4.05,3.69,0,.06.09.06.16,0l.62-.64-3.55-3.34c-.05,0-.06-.12,0-.15l.2-.22a.13.13,0,0,1,.16,0c0,.06,1.15,1.08,1.15,1.08l1.5,1.34.95.84a1.11,1.11,0,0,1,.16-.15c.14-.15.1-.26-.38-.72l-2.45-2.45C276.66,52.22,276.84,52.13,277.11,52.13Zm-5.45.74-3.55,3.35.62.63c.07.07.11.07.16,0l4.05-3.7s0-.06,0-.09l-.8-.87c-.32-.34-.73-.77-1-.7a3.81,3.81,0,0,1-.67.17,3.58,3.58,0,0,1-1.62-.1l-.08,0,0,.25c0,.07,0,.15,0,.24a8.16,8.16,0,0,0,1.47.06c.27,0,.45.09.21.37L268,54.91c-.49.46-.51.57-.37.72s0,0,.15.16l.95-.84,1.5-1.35s1.1-1,1.15-1.07a.11.11,0,0,1,.16,0l.2.21S271.71,52.82,271.66,52.87Zm.34-8.26a1.16,1.16,0,0,0-.13-.47,4.24,4.24,0,0,0-.41-.46.4.4,0,0,1-.11-.18,2.25,2.25,0,0,0,.07.58.74.74,0,0,0,.31.4A.89.89,0,0,0,272,44.61Zm0,6.72.3.3a9.87,9.87,0,0,0,.17-1.67A3.66,3.66,0,0,0,272,51.33Zm-1.41-.08c.13,0,.47-.2.65-.25l.13,0h0a9.41,9.41,0,0,1,.39-1.17A9.31,9.31,0,0,0,270.56,51.25Zm2.6,1.29c0-.48,0-1-.07-1.22a2.3,2.3,0,0,0-.31.82Zm.23-3.16a1.1,1.1,0,0,0-.54-.81C272.87,49,273.39,49.38,273.39,49.38Zm.36-1v0a1,1,0,0,1,.33-.35,9.64,9.64,0,0,0,1.34-1,1.92,1.92,0,0,0,.27-.62,1.67,1.67,0,0,1-.57.51,5.53,5.53,0,0,0-1.25.91.83.83,0,0,0-.11.31.53.53,0,0,0-.06-.23c-.24-.5-1-.71-1.39-1.2-.28-.32-.29-.46-.29-.46a1.22,1.22,0,0,0,.19.77,4.09,4.09,0,0,0,1,.79A1.59,1.59,0,0,1,273.75,48.37Zm-.47-1.79c0-.79-.86-.88-1.06-1.66C272.13,46,272.89,46,273.28,46.58Zm.41,3.13.35-.2a1.24,1.24,0,0,0,.52-.49.8.8,0,0,0,.08-.54,1.12,1.12,0,0,1-.34.47,4.89,4.89,0,0,0-.39.4A1.69,1.69,0,0,0,273.69,49.71Zm.75.46c.08.47.14,1.57.16,1.93h0l.39-.4A3.9,3.9,0,0,0,274.44,50.17Zm-.7,2.87a6.12,6.12,0,0,1,.41-.49l0,0a5.24,5.24,0,0,0-.42-1.65C273.72,51.17,273.72,52.23,273.74,53Zm0,.32c0,.26,0,.47,0,.57l.28-.3S273.81,53.44,273.74,53.36Zm.18.94c.49.51,1.15,1.2,1.59,1.63l.46-.45-1.7-1.55Zm2,2c.37.35.78.77,1.1,1.09l.48-.52-1.11-1Zm.33-5.25a9.41,9.41,0,0,0-1.05-1.22,8.9,8.9,0,0,1,.44,1.23h0l.06,0a.54.54,0,0,1,.22,0l.23,0Zm-.41-6.38a3.16,3.16,0,0,1-.67.8,2.35,2.35,0,0,0,.11-.55,3.71,3.71,0,0,1-.66.86,2.23,2.23,0,0,0-.6,1,3,3,0,0,1,.75-.54A2.45,2.45,0,0,0,275.84,44.7Zm-7.9-6.85a2.29,2.29,0,0,0,1,1.8A6.29,6.29,0,0,0,267.94,37.85Zm12.73-11.27a1.15,1.15,0,0,0,.68-.16.76.76,0,0,0,.29-.27c1.46-2.12,4.18-5.53,6.21-8.21-4.16-4.1-10.11-4.38-11.66-4.27-.36,0-.78.32-.32.91a2.75,2.75,0,0,1-2.08-.4,2.74,2.74,0,0,1-2.08.4c.46-.59.05-.89-.32-.91-1.56-.12-7.82.49-11.6,4.18l6.52,8.62a.76.76,0,0,0,.57.25h.1a1,1,0,0,0,.67-.42c.45-.49.67-.76,1.12-1.22.85-.87,1.66-1.53,1.79-1.66a1.23,1.23,0,0,0,.49-.88c0-.31-.27-.44-.42-.63a.38.38,0,0,1-.08.11,1.8,1.8,0,0,1-.3-.59l-.08.22s-.32-.77-.83-.7a1.86,1.86,0,0,1-1.2-.22s-.07.22-.06.49h0a1.37,1.37,0,0,1,.3-2.12,4.16,4.16,0,0,1,1.1-.61,1.14,1.14,0,0,0,.37-.31,2.52,2.52,0,0,1,1.22-.65,8.55,8.55,0,0,1,2.44-.2,4.64,4.64,0,0,1,1.48.32A5.61,5.61,0,0,1,276.61,19a14.3,14.3,0,0,1,1.15,2.32c.64,1.55.56,1.39,1,2.41A11.77,11.77,0,0,0,280,26.24.74.74,0,0,0,280.67,26.58Zm7.49-9,.42-.56a18.09,18.09,0,0,0-7.81-4,21.48,21.48,0,0,0-4.81-.48c-.87,0-1.42.35-1.42.89-.54-.1-.68-.78-.75-.9-.05.28-.31.83-.75.9,0-.54-.55-.87-1.41-.89a21.55,21.55,0,0,0-4.82.48A17.48,17.48,0,0,0,259,16.86l.42.56a16,16,0,0,1,6.41-3.59,20.62,20.62,0,0,1,5.61-.74c1,0,1.16.62,1,.93a1.63,1.63,0,0,1,2.54,0c-.11-.31,0-.89,1-.93a20.73,20.73,0,0,1,5.62.74A17.18,17.18,0,0,1,288.16,17.53Zm1.14-2.05a3.86,3.86,0,0,0,1.06,2.06,2.08,2.08,0,0,0,.29.19h0a6.16,6.16,0,0,1,.84-3h0a6.49,6.49,0,0,0,2.63,0c-1.34-.9-1.05-1.91-2-3a4.25,4.25,0,0,0-.37-.36,1.47,1.47,0,0,0-.81-.34.53.53,0,0,0-.45.2c-.14.14-1.53,1.64-2.44,2.67C288.84,13.86,289.06,14.61,289.3,15.48Zm.91-5A14.32,14.32,0,0,0,286,7.81c-4.65-2-10.54-2-12.22-2h0c-1.69,0-7.58,0-12.23,2.05a14.45,14.45,0,0,0-4.19,2.72s2.1,2.36,2.64,3a1,1,0,0,1,.22,1.12c3.22-2.16,6.89-3.24,13.43-3.28h.3c6.42.07,10.2,1.15,13.39,3.29a1,1,0,0,1,.22-1.12C288.11,12.89,290.21,10.53,290.21,10.53Zm-33.08.68h0c-.13-.14-.46-.43-1.27.14-1.44,1.25-1,2.38-2.46,3.38a8,8,0,0,0,1.31.13,5.57,5.57,0,0,0,.63,0l.69-.1h0a6.23,6.23,0,0,1,.83,3c1.73-.92,1-3.88,2.63-3.85Zm1.12,6,2.42,3.23a13.26,13.26,0,0,0,1.95,2.2,20.24,20.24,0,0,0-1.52-2.23c-.86-1.16-1.75-2.36-2.63-3.53C258.39,17,258.32,17.09,258.25,17.18Zm6.28,11.49a12.71,12.71,0,0,0,.68,3.65A6.9,6.9,0,0,0,264.53,28.67Zm-.87-1.4a4.83,4.83,0,0,0,.06,1.82,6.55,6.55,0,0,0,.41,1.05A7.28,7.28,0,0,0,263.66,27.27Zm3.27,10.81c.22-.68.46-5-1.26-6.92A33.7,33.7,0,0,1,266.93,38.08Zm-4.75,24.3a18.57,18.57,0,0,0,6.16.31,10.26,10.26,0,0,0,4.85-1.77c-.33-.29-.75-.67-1.18-1.07A7.57,7.57,0,0,1,270.35,61a22.38,22.38,0,0,1-5.58,1.22,33.26,33.26,0,0,0,5.58-1.73,9,9,0,0,0,1.29-1l-1.45-1.42c-.27.24-.48.39-.76.6a11.46,11.46,0,0,1-1.93.93A25.1,25.1,0,0,0,262.18,62.38Zm9.85,0a7.64,7.64,0,0,0,.49,1.16,3.43,3.43,0,0,0,1-2.08c-.15.12-.39.32-.59.45C272.58,62.1,272.26,62.26,272,62.37Zm15.08-42,2.24-3a3.09,3.09,0,0,1-.23-.31c-.82,1.08-1.65,2.2-2.44,3.27a20.73,20.73,0,0,0-1.52,2.23C285.14,22.75,286.66,20.92,287.11,20.32Zm6.83-7.83-.43.56A4.07,4.07,0,0,0,295.32,15C294.9,14.11,294.44,13.29,293.94,12.49Zm-1-.58.19.34,4.62-6.13a16.12,16.12,0,0,1-2.28,1.29A2.82,2.82,0,0,1,295,9.25ZM254.61,11l.36.47a15.69,15.69,0,0,1,7.08-5,1.4,1.4,0,0,1,.29-1.92h0A1.67,1.67,0,0,1,264,5.82a35.78,35.78,0,0,1,7.91-1.09,2.68,2.68,0,0,1,1.56-2.55.66.66,0,0,1,.34-.52h0a.63.63,0,0,1,.34.52,2.7,2.7,0,0,1,1.57,2.55,35.6,35.6,0,0,1,7.9,1.09,1.68,1.68,0,0,1,1.64-1.3h0a1.4,1.4,0,0,1,.29,1.92,16.07,16.07,0,0,1,7.16,5.09l.37-.49a16.62,16.62,0,0,0-6.53-4.79,1.88,1.88,0,0,0-.48-2,.83.83,0,0,0-.4-.73h0a1.1,1.1,0,0,0-.84.33A2.36,2.36,0,0,0,283,5.12a35.84,35.84,0,0,0-6.64-.88,2.76,2.76,0,0,0-1.67-2.43.88.88,0,0,0-1.74,0,2.75,2.75,0,0,0-1.66,2.43,35.84,35.84,0,0,0-6.65.88,2.36,2.36,0,0,0-1.83-1.25,1.08,1.08,0,0,0-.84-.33h0a.84.84,0,0,0-.41.73,1.86,1.86,0,0,0-.47,2A16.08,16.08,0,0,0,254.61,11Zm-.15,1.14c.08-.13.15-.23.21-.31l-1.9-2.48a2.87,2.87,0,0,1-.49-1.85A15.57,15.57,0,0,1,250,6.22ZM252.22,15a4.68,4.68,0,0,0,1.32-1.15,7.49,7.49,0,0,0,.51-.87l-.46-.58C253.1,13.23,252.64,14.1,252.22,15Zm-3.78,17.55a40.41,40.41,0,0,0,6,4.14A36.75,36.75,0,0,1,259,19.42l-1.2-1.59a3.27,3.27,0,0,1-1.5.84,6.8,6.8,0,0,0-.74-3.32A12.72,12.72,0,0,1,252.2,15C250,19.79,248.85,25.27,248.44,32.54Zm20.07,33.37,0-.07c.13-.34.7-1.7,1-2.39l-.12-.36c-.39.07-.78.13-1.18.17s-4.17.63-7-.71c.34-.24,1-.77,1.87-1.34l0-.17a3.42,3.42,0,0,1-1.84.42,4.3,4.3,0,0,1,.31-1.68,2.38,2.38,0,0,1-1.14,0,18.24,18.24,0,0,1,1.35-3,34.11,34.11,0,0,1,3.11-4.39,2.2,2.2,0,0,1,.55-1l.17-.19-.34-.28a.69.69,0,0,1-.28.22,1.91,1.91,0,0,1-.7.21c-.36,0-.57-.06-.69-.24l0,0a.68.68,0,0,1-.51-.44.34.34,0,0,1,0-.14.46.46,0,0,1-.52-.07c-.25-.22.1-1.31,1.29-2.45a8.1,8.1,0,0,1,2.36-1.57c.56-.25.89.23.62.56a1.75,1.75,0,0,0-.25,1.83,5.29,5.29,0,0,0,.53-.19.92.92,0,0,0,.47-.33.33.33,0,0,0,.06-.12l-.5.06c.26-.63-.14-2.17.12-3.16a1.79,1.79,0,0,1-.34.19,12.65,12.65,0,0,1-.09-3,2,2,0,0,0-.62-.86,9.86,9.86,0,0,1-1.58,2.6,7.51,7.51,0,0,0-2.37,4v0a6.28,6.28,0,0,1-.42,1.14,2.94,2.94,0,0,0-.36,1.25h0A36.16,36.16,0,0,1,261,57a7.17,7.17,0,0,1-.91,2.42l-.09-.08a5.79,5.79,0,0,1-1,2.25s-.54-1.07-1.51-9.22c-1.07-9-1.62-18.34-1.62-18.34h0a14.21,14.21,0,0,1,.75-5A17.17,17.17,0,0,1,260,23.64a2,2,0,0,1,1.84-.57c-.17-.24-.37-.5-.37-.5-.61-.81-1.32-1.71-1.93-2.52-4.39,7.73-4.28,16.94-4.28,17v1l-.77-.41a38.19,38.19,0,0,1-6.07-4.07c0,.93-.14,4.11-.14,4.11V39.6c0,3.69.66,12.73,3.66,18.94a18.65,18.65,0,0,0,3.57,4.75,13.9,13.9,0,0,0,5.33,3.12l.46.15A9.51,9.51,0,0,0,268.51,65.91Zm-.17,2.56a1.91,1.91,0,0,1,2.06-.29,40.3,40.3,0,0,1,.46-4.13,2.72,2.72,0,0,1-.68.51c-.05,0-.12-.06-.18-.15Zm8.72.79a44.47,44.47,0,0,0-.69-6l-.1-.14-.16-.24a7.54,7.54,0,0,1-.4,1.08,2.52,2.52,0,0,1-.56.87,4,4,0,0,1-1.4-1.72,4.17,4.17,0,0,1-1.39,1.7,2.73,2.73,0,0,1-.56-.88c-.09-.19-.16-.39-.23-.58a48.22,48.22,0,0,0-.63,5.86c-1.7-1.12-2.73,0-2.38.78l.11.19a1.13,1.13,0,0,0,.85.45,5.34,5.34,0,0,1,2.1.48,6.6,6.6,0,0,1,2.38,2,6.7,6.7,0,0,1,2.39-2,5.3,5.3,0,0,1,2.1-.48,1.17,1.17,0,0,0,.84-.45.88.88,0,0,0,.12-.19C279.8,69.26,278.76,68.14,277.06,69.26Zm2.61-.79L278,64.19a1.43,1.43,0,0,1-.33.37,2,2,0,0,1-.57-.41,32.42,32.42,0,0,1,.51,4A1.91,1.91,0,0,1,279.67,68.47Zm19.64-30.72c0-1.23-.08-3.25-.13-4.19a37.11,37.11,0,0,1-5.89,4l-1,.51v-.68c0-.07.26-9.27-4.21-17.2-.28.37-1.23,1.57-2.19,2.8a1.94,1.94,0,0,1,1.67.6,17,17,0,0,1,3.31,5.35,14.21,14.21,0,0,1,.75,5h0s-.54,9.37-1.61,18.34c-1,8.16-1.51,9.23-1.51,9.23a6,6,0,0,1-1-2.26l-.09.08a7.19,7.19,0,0,1-.9-2.42,36,36,0,0,1-.42-6.67h0a3,3,0,0,0-.36-1.26,5.77,5.77,0,0,1-.42-1.14v0a7.62,7.62,0,0,0-2.37-4,11.36,11.36,0,0,1-1.65-2.72l-.06,0a2.37,2.37,0,0,0-.75,1,10,10,0,0,1,.06,3.25,3.76,3.76,0,0,1-.31-.25c.1,1-.36,2.09-.07,3l-.57-.08.06.14a.84.84,0,0,0,.3.25l.18.09s.2.08.59.2A1.73,1.73,0,0,0,280.5,47c-.27-.33.06-.81.62-.57A8.37,8.37,0,0,1,283.48,48c1.19,1.13,1.54,2.23,1.29,2.45s-.35.13-.58,0a.69.69,0,0,1,0,.13.7.7,0,0,1-.52.44l0,0c-.13.18-.33.25-.7.24a1.92,1.92,0,0,1-.69-.21.77.77,0,0,1-.24-.17l-.22.17a50.1,50.1,0,0,1,4.06,5.69,17.46,17.46,0,0,1,1.36,3,2.37,2.37,0,0,1-1.15,0,4.31,4.31,0,0,1,.31,1.69,3.37,3.37,0,0,1-1.84-.43l.06.33,1.52,1.1c-2.85,1.33-7,.72-7,.71l-.53-.08c0,.07-.06.17-.1.26.28.66.92,2.19,1.07,2.5a9.42,9.42,0,0,0,6.07.94,8.87,8.87,0,0,0,1.54-.42A16,16,0,0,0,292,63.29a18.8,18.8,0,0,0,3.66-4.69c3.14-6.14,3.66-15.25,3.66-18.93Z"/><rect class="cls-5" x="-15.47" y="-19.92" width="335.94" height="114.83"/></svg>