<svg xmlns="http://www.w3.org/2000/svg" viewBox="0 0 308.85 105.57"><defs><style>.cls-1{fill:#231f20;}.cls-2{fill:#fff;}.cls-3{fill:#ea0029;}.cls-4{fill:#0a0203;}.cls-5{fill:none;}</style></defs><g id="Layer_2" data-name="Layer 2"><g id="Layer_1-2" data-name="Layer 1"><path class="cls-1" d="M29.07,33.11h1.14v6.78H23.66a5.08,5.08,0,0,1-3.58-1.2,4.57,4.57,0,0,1-1.31-3.53c0-.3,0-.59,0-.88a7.14,7.14,0,0,1,.15-1l1.12.2a6.53,6.53,0,0,0-.12.84c0,.26,0,.52,0,.77a3.61,3.61,0,0,0,.92,2.67,3.72,3.72,0,0,0,2.75.93h5.48ZM23.26,31.9a.71.71,0,0,1-.53-.22.74.74,0,0,1,0-1.05.71.71,0,0,1,.53-.22.75.75,0,1,1,0,1.49Zm1.89-2.55a.73.73,0,0,1-.22.54.72.72,0,0,1-.53.23.7.7,0,0,1-.52-.23.73.73,0,0,1-.22-.54.69.69,0,0,1,.22-.52.72.72,0,0,1,.52-.21.74.74,0,0,1,.53.21A.69.69,0,0,1,25.15,29.35Zm.6,2.55a.75.75,0,1,1,.52-.22A.69.69,0,0,1,25.75,31.9Z"/><path class="cls-1" d="M33.42,40.39a12.37,12.37,0,0,1-.09,1.48,4,4,0,0,1-.39,1.36,2.55,2.55,0,0,1-.9,1,2.91,2.91,0,0,1-1.61.39V43.47a1.68,1.68,0,0,0,1-.26,1.64,1.64,0,0,0,.56-.69,2.76,2.76,0,0,0,.23-1c0-.37.05-.75.05-1.15V33.11h1.14Z"/><path class="cls-1" d="M35.27,28.34h1.14V39.89H35.27Z"/><path class="cls-1" d="M43.5,40.46A11.05,11.05,0,0,1,43.39,42,3.92,3.92,0,0,1,43,43.33a2.54,2.54,0,0,1-.89,1,2.94,2.94,0,0,1-1.55.36V43.5a1.75,1.75,0,0,0,1-.28,1.57,1.57,0,0,0,.55-.74,3.45,3.45,0,0,0,.21-1.08c0-.4,0-.83,0-1.27v-.24H42a4.82,4.82,0,0,1-3-.79A2.57,2.57,0,0,1,38,37a3.82,3.82,0,0,1,.4-1.73,4.38,4.38,0,0,1,1.14-1.44,6.13,6.13,0,0,1,1.75-1,8,8,0,0,1,2.21-.5v6.46h1v1.15h-1Zm-1.14-1.72v-5.1A5.08,5.08,0,0,0,40,34.91a2.73,2.73,0,0,0-.88,2,1.53,1.53,0,0,0,.67,1.32,3.62,3.62,0,0,0,2.1.48Z"/><path class="cls-1" d="M48.47,39.89h-4a.81.81,0,0,1-.55-.2.43.43,0,0,1,0-.75.81.81,0,0,1,.55-.2h4Z"/><path class="cls-1" d="M56,38.74h.64v1.15H55.09a10.51,10.51,0,0,0-.36-1.45A7.57,7.57,0,0,0,54,36.87a4.48,4.48,0,0,1,.08.93,5.27,5.27,0,0,1-.07.87c0,.3-.14.71-.27,1.22H48.47a.81.81,0,0,1-.55-.2.43.43,0,0,1,0-.75.81.81,0,0,1,.55-.2h4.42A4.62,4.62,0,0,0,53,37.8a3.19,3.19,0,0,0-.42-1.71,3.51,3.51,0,0,0-1-1.07,4.46,4.46,0,0,0-1.31-.61A12.23,12.23,0,0,0,49,34.12l.17-.52a6.3,6.3,0,0,1,1.29-2.26,11.93,11.93,0,0,1,1.91-1.74,16.31,16.31,0,0,1,2-1.22c.64-.32,1.13-.55,1.48-.7v2.86H54.68v-1c-.3.16-.63.36-1,.6s-.74.52-1.13.83a9.57,9.57,0,0,0-1.1,1,5.86,5.86,0,0,0-.85,1.18,15.35,15.35,0,0,1,2,.9,7.09,7.09,0,0,1,1.54,1.12,6.44,6.44,0,0,1,1.14,1.51A8.6,8.6,0,0,1,56,38.74Z"/><path class="cls-1" d="M57.67,28.27h1.14V39.89H56.68a.79.79,0,0,1-.55-.2.43.43,0,0,1,0-.75.79.79,0,0,1,.55-.2h1Z"/><path class="cls-1" d="M60.66,28.34H61.8V39.89H60.66Z"/><path class="cls-1" d="M68.89,40.46A11.05,11.05,0,0,1,68.78,42a4.15,4.15,0,0,1-.42,1.33,2.48,2.48,0,0,1-.9,1,2.88,2.88,0,0,1-1.54.36V43.5a1.77,1.77,0,0,0,1-.28,1.64,1.64,0,0,0,.55-.74,3.45,3.45,0,0,0,.21-1.08c0-.4,0-.83,0-1.27v-.24h-.61a4.37,4.37,0,0,1-2.77-.79,2.59,2.59,0,0,1-1-2.12,3.82,3.82,0,0,1,.4-1.73,4.38,4.38,0,0,1,1.14-1.44,6.21,6.21,0,0,1,1.74-1,8,8,0,0,1,2.22-.5Zm-1.15-1.72v-5.1a5.18,5.18,0,0,0-2.34,1.27,2.76,2.76,0,0,0-.87,2,1.54,1.54,0,0,0,.66,1.32,3.67,3.67,0,0,0,2.11.48Z"/><path class="cls-1" d="M84.64,33.11h1.14v6.78H79.23a5.1,5.1,0,0,1-3.58-1.2,4.57,4.57,0,0,1-1.31-3.53,8.51,8.51,0,0,1,0-.88,7,7,0,0,1,.14-1l1.12.2a6.53,6.53,0,0,0-.12.84c0,.26,0,.52,0,.77a3.61,3.61,0,0,0,.92,2.67,3.72,3.72,0,0,0,2.75.93h5.48ZM79.45,31.9a.71.71,0,0,1-.53-.22.74.74,0,0,1,0-1.05.71.71,0,0,1,.53-.22.73.73,0,0,1,.53.22.76.76,0,0,1,0,1.05A.73.73,0,0,1,79.45,31.9Zm2.48,0a.73.73,0,0,1-.74-.75.72.72,0,0,1,.21-.52.73.73,0,0,1,.53-.22.71.71,0,0,1,.53.22.74.74,0,0,1,0,1.05A.71.71,0,0,1,81.93,31.9Z"/><path class="cls-1" d="M87.63,39.89V28.34h1.14v10.4h1v1.15Z"/><path class="cls-1" d="M93.73,39.89h-4a.77.77,0,0,1-.55-.2.43.43,0,0,1,0-.75.77.77,0,0,1,.55-.2h4Z"/><path class="cls-1" d="M99.86,32.43v7.46H93.71a.81.81,0,0,1-.55-.2.43.43,0,0,1,0-.75.81.81,0,0,1,.55-.2h1.56a3.09,3.09,0,0,1-.53-.89,3.62,3.62,0,0,1-.2-1.28,2.87,2.87,0,0,1,.65-1.93,5.12,5.12,0,0,1,1.52-1.26,6.66,6.66,0,0,1,1.76-.7A10.47,10.47,0,0,1,99.86,32.43Zm-1.14,1.39a6.56,6.56,0,0,0-.92.33,5.15,5.15,0,0,0-1,.55,3.16,3.16,0,0,0-.8.79,1.88,1.88,0,0,0-.32,1.08,1.72,1.72,0,0,0,.8,1.66,5.23,5.23,0,0,0,2.24.47Z"/><path class="cls-1" d="M103.1,40.39a12.37,12.37,0,0,1-.09,1.48,4,4,0,0,1-.4,1.36,2.41,2.41,0,0,1-.9,1,2.91,2.91,0,0,1-1.61.39V43.47a1.54,1.54,0,0,0,1.58-.95,3.28,3.28,0,0,0,.23-1c0-.37,0-.75,0-1.15V33.11h1.15Zm.15-9.85a.76.76,0,0,1-.21.53.71.71,0,0,1-.52.22.75.75,0,0,1-.74-.75A.71.71,0,0,1,102,30a.69.69,0,0,1,.52-.22A.67.67,0,0,1,103,30,.74.74,0,0,1,103.25,30.54Z"/><path class="cls-1" d="M107.39,26.75a2.5,2.5,0,0,0-.93-.22.69.69,0,0,0-.46.15.53.53,0,0,0-.18.45.62.62,0,0,0,.33.57,1.61,1.61,0,0,0,.82.2h.66v.57h-3.1V27.9h1a.55.55,0,0,1-.18-.29,1.51,1.51,0,0,1-.09-.5,1,1,0,0,1,.38-.88,1.36,1.36,0,0,1,.81-.27A2.27,2.27,0,0,1,107,26a4.36,4.36,0,0,1,.58.19Zm3.67,8a18,18,0,0,1,1,1.62c.27.52.5,1,.69,1.45s.34.85.46,1.2l.29.86h-8.53V38.74h.18a3,3,0,0,0,1.28-.29,5.17,5.17,0,0,0,1.22-.83,8.42,8.42,0,0,0,1.13-1.23,13.58,13.58,0,0,0,1-1.54c-.27-.38-.59-.8-1-1.25s-.78-.91-1.18-1.35-.79-.85-1.17-1.23l-.91-.94.79-.82,1,1,.85.89c.29.31.59.66.92,1.05l1.25,1.46a17.31,17.31,0,0,0,.82-2.35,8.16,8.16,0,0,0,.31-2.11v-.86h1.15v.88a10.08,10.08,0,0,1-.41,2.65A16.51,16.51,0,0,1,111.06,34.76Zm-3,4h3.76c-.13-.33-.31-.75-.55-1.24a17,17,0,0,0-.86-1.57c-.24.37-.44.68-.62.94a7.28,7.28,0,0,1-.52.71c-.18.2-.36.4-.55.58S108.33,38.54,108.08,38.74Z"/><path class="cls-1" d="M114.56,28.34h1.14V39.89h-1.14Z"/><path class="cls-1" d="M122.79,40.46a11.05,11.05,0,0,1-.11,1.54,3.92,3.92,0,0,1-.42,1.33,2.48,2.48,0,0,1-.9,1,2.88,2.88,0,0,1-1.54.36V43.5a1.77,1.77,0,0,0,1.05-.28,1.64,1.64,0,0,0,.55-.74,3.45,3.45,0,0,0,.21-1.08c0-.4,0-.83,0-1.27v-.24h-.61a4.37,4.37,0,0,1-2.77-.79,2.59,2.59,0,0,1-1-2.12,3.82,3.82,0,0,1,.4-1.73,4.38,4.38,0,0,1,1.14-1.44,6.21,6.21,0,0,1,1.74-1,8,8,0,0,1,2.22-.5Zm-1.15-1.72v-5.1a5.18,5.18,0,0,0-2.34,1.27,2.76,2.76,0,0,0-.87,2,1.54,1.54,0,0,0,.66,1.32,3.67,3.67,0,0,0,2.11.48Z"/><path class="cls-1" d="M130.16,36.1a2.55,2.55,0,0,0-.95-.22.89.89,0,0,0-.46.11.44.44,0,0,0-.18.4.65.65,0,0,0,.33.61,1.69,1.69,0,0,0,.82.18h.55v.57h-3v-.57h1a.51.51,0,0,1-.18-.28,1.48,1.48,0,0,1-.09-.51.93.93,0,0,1,.38-.84,1.45,1.45,0,0,1,.81-.24,3.16,3.16,0,0,1,1.19.24Zm5.89,3.81a3.48,3.48,0,0,1-.21,1.12,3.54,3.54,0,0,1-.69,1.17,3.85,3.85,0,0,1-1.25.91,4.49,4.49,0,0,1-1.89.36,3.72,3.72,0,0,1-2.18-.73,2.73,2.73,0,0,1-.81-1,2.94,2.94,0,0,1-.31-1.39V38.77h1.16v1.62a1.7,1.7,0,0,0,.21.87,2,2,0,0,0,.53.61,2.09,2.09,0,0,0,.7.35,2.8,2.8,0,0,0,.72.11,3.26,3.26,0,0,0,1.39-.25,2.59,2.59,0,0,0,.86-.61,2.06,2.06,0,0,0,.44-.72,5.29,5.29,0,0,0,.17-.58l0-.09c-.28-.2-.61-.46-1-.76a8.24,8.24,0,0,1-1.09-1,6.46,6.46,0,0,1-.88-1.32,3.47,3.47,0,0,1-.36-1.56,4,4,0,0,1,.16-1,4.15,4.15,0,0,1,.46-1,3.2,3.2,0,0,1,.67-.78,1.33,1.33,0,0,1,.82-.31,1.46,1.46,0,0,1,1.1.48,4.58,4.58,0,0,1,.82,1.17l.5,1-1,.53-.57-1.12c-.28-.57-.55-.86-.79-.86a.47.47,0,0,0-.3.17A1.79,1.79,0,0,0,133,34a3.21,3.21,0,0,0-.26.62,2.27,2.27,0,0,0-.11.73,2.46,2.46,0,0,0,.22,1,3.85,3.85,0,0,0,.58.94,7.13,7.13,0,0,0,.82.83c.31.27.63.52,1,.75a2.39,2.39,0,0,1,.53.49Z"/><path class="cls-1" d="M139.29,40.39a12.37,12.37,0,0,1-.09,1.48,4,4,0,0,1-.4,1.36,2.41,2.41,0,0,1-.9,1,2.87,2.87,0,0,1-1.6.39V43.47a1.54,1.54,0,0,0,1.57-.95,3.28,3.28,0,0,0,.23-1c0-.37,0-.75,0-1.15V33.11h1.15Z"/><path class="cls-1" d="M141.14,28.34h1.14V39.89h-1.14Z"/><path class="cls-1" d="M149.36,40.46a11.07,11.07,0,0,1-.1,1.54,4.16,4.16,0,0,1-.43,1.33,2.39,2.39,0,0,1-.89,1,2.92,2.92,0,0,1-1.55.36V43.5a1.78,1.78,0,0,0,1.06-.28,1.64,1.64,0,0,0,.55-.74,3.45,3.45,0,0,0,.21-1.08c0-.4,0-.83,0-1.27v-.24h-.39a4.78,4.78,0,0,1-3-.79,2.56,2.56,0,0,1-1-2.12,3.83,3.83,0,0,1,.41-1.73,4.38,4.38,0,0,1,1.14-1.44,6.21,6.21,0,0,1,1.74-1,8,8,0,0,1,2.21-.5v6.46h1v1.15h-1Zm-1.14-1.72v-5.1a5.13,5.13,0,0,0-2.34,1.27,2.76,2.76,0,0,0-.87,2,1.54,1.54,0,0,0,.66,1.32,3.65,3.65,0,0,0,2.11.48Z"/><path class="cls-1" d="M154.33,39.89h-4a.77.77,0,0,1-.55-.2.43.43,0,0,1,0-.75.77.77,0,0,1,.55-.2h4Z"/><path class="cls-1" d="M154.33,39.89a.77.77,0,0,1-.54-.2.42.42,0,0,1,0-.75.77.77,0,0,1,.54-.2h1.11V28.27h1.14v7.94a8.21,8.21,0,0,1,1.07-1.33,7.33,7.33,0,0,1,1.57-1.21,9.35,9.35,0,0,1,2.16-.89,10.38,10.38,0,0,1,2.81-.35h.6v6.31h1v1.15Zm9.31-6.25a9.43,9.43,0,0,0-3.27.81,8,8,0,0,0-2.06,1.43,5.82,5.82,0,0,0-1.16,1.6,8.19,8.19,0,0,0-.5,1.26h7Z"/><path class="cls-1" d="M166.76,28.27h1.15V39.89h-2.14a.81.81,0,0,1-.55-.2.43.43,0,0,1,0-.75.81.81,0,0,1,.55-.2h1Z"/><path class="cls-1" d="M169.76,28.34h1.14V39.89h-1.14Z"/><path class="cls-1" d="M181.7,39.89h-1.21a5.66,5.66,0,0,1-1.28-.16,4.69,4.69,0,0,1-1.34-.5,3.41,3.41,0,0,1-1.06-.94,2.34,2.34,0,0,1-.43-1.44,3.24,3.24,0,0,1,.31-1.44,4.41,4.41,0,0,1,.79-1.16,6,6,0,0,1,1.09-.92,9,9,0,0,1,1.2-.67,9.44,9.44,0,0,1,1.11-.44,8,8,0,0,1,.82-.23Zm-1.14-1.19V33.6c-.26.11-.57.27-.92.46a4.88,4.88,0,0,0-1,.69,4,4,0,0,0-.8.94,2.16,2.16,0,0,0-.33,1.18,1.31,1.31,0,0,0,.29.86,2,2,0,0,0,.73.57,3.25,3.25,0,0,0,.94.31,5.43,5.43,0,0,0,1,.09Zm-1.19-8.6a.75.75,0,1,1-1.49,0,.71.71,0,0,1,.22-.53.74.74,0,0,1,1.05,0A.71.71,0,0,1,179.37,30.1Zm2.49,0a.77.77,0,0,1-.22.53.75.75,0,0,1-1.06,0,.77.77,0,0,1-.22-.53.75.75,0,0,1,.22-.53.75.75,0,0,1,1.06,0A.75.75,0,0,1,181.86,30.1Z"/><path class="cls-1" d="M184.92,40.39a12.37,12.37,0,0,1-.09,1.48,4,4,0,0,1-.4,1.36,2.41,2.41,0,0,1-.9,1,2.91,2.91,0,0,1-1.61.39V43.47a1.54,1.54,0,0,0,1.58-.95,3.28,3.28,0,0,0,.23-1c0-.37,0-.75,0-1.15V33.11h1.15Z"/><path class="cls-1" d="M186.76,28.34h1.15V39.89h-1.15Z"/><path class="cls-1" d="M189.49,33.33a5.27,5.27,0,0,1,1.12-.7,3.73,3.73,0,0,1,1.63-.33,3.11,3.11,0,0,1,2.63,1.32,4.13,4.13,0,0,1,.65,1.35,5.43,5.43,0,0,1,.22,1.55,6.15,6.15,0,0,1-.1,1.15,6.53,6.53,0,0,1-.24,1,6.42,6.42,0,0,1-.29.76l-.23.47h-5.45V38.74h4.73c.08-.22.18-.51.28-.88a5.07,5.07,0,0,0,.16-1.34,4.09,4.09,0,0,0-.17-1.17,3.17,3.17,0,0,0-.46-1,2.19,2.19,0,0,0-.75-.67,2,2,0,0,0-1-.26,3,3,0,0,0-.95.17,4.53,4.53,0,0,0-1.1.6Z"/><path class="cls-1" d="M199.22,41.63a2.37,2.37,0,0,0-.95-.22.78.78,0,0,0-.46.11.41.41,0,0,0-.18.39.65.65,0,0,0,.33.61,1.69,1.69,0,0,0,.82.18h.55v.58h-3V42.7h1a.51.51,0,0,1-.19-.28,1.25,1.25,0,0,1-.1-.51.91.91,0,0,1,.37-.83,1.42,1.42,0,0,1,.82-.25,3,3,0,0,1,1.19.25Zm-.51-1.74h-1.14V28.34h1.14Z"/><path class="cls-1" d="M206,40.39c0,.49,0,1-.08,1.48a4,4,0,0,1-.4,1.36,2.55,2.55,0,0,1-.9,1,2.91,2.91,0,0,1-1.61.39V43.47a1.68,1.68,0,0,0,1-.26,1.64,1.64,0,0,0,.56-.69,3,3,0,0,0,.24-1c0-.37,0-.75,0-1.15V33.11H206v5.63h1v1.15h-1Zm.16-9.85a.76.76,0,0,1-.21.53.71.71,0,0,1-.52.22.75.75,0,0,1-.75-.75.75.75,0,0,1,.22-.53.73.73,0,0,1,.53-.22.67.67,0,0,1,.52.22A.74.74,0,0,1,206.15,30.54Z"/><path class="cls-1" d="M210.94,39.89h-4a.81.81,0,0,1-.55-.2.43.43,0,0,1,0-.75.81.81,0,0,1,.55-.2h4Z"/><path class="cls-1" d="M211.8,33.4a6.62,6.62,0,0,1,.95-1.94,8.77,8.77,0,0,1,1.43-1.56A10.32,10.32,0,0,1,216,28.65a20.87,20.87,0,0,1,1.94-1v2.88h-1.15v-1c-.23.13-.5.3-.8.5a11,11,0,0,0-.9.7,7.81,7.81,0,0,0-.88.85,7.13,7.13,0,0,0-.76,1l.35,0h.37a3.64,3.64,0,0,1,2.74,1,4.38,4.38,0,0,1,1,3.13v3.21h-6.91a.81.81,0,0,1-.55-.2.43.43,0,0,1,0-.75.81.81,0,0,1,.55-.2h5.77V36.67a3.36,3.36,0,0,0-.64-2.31,2.5,2.5,0,0,0-1.89-.68,4.54,4.54,0,0,0-1.15.15c-.38.1-.88.26-1.49.47Z"/><path class="cls-1" d="M221.24,40.39a12.37,12.37,0,0,1-.09,1.48,4,4,0,0,1-.4,1.36,2.41,2.41,0,0,1-.9,1,2.87,2.87,0,0,1-1.6.39V43.47a1.54,1.54,0,0,0,1.57-.95,3.28,3.28,0,0,0,.23-1c0-.37,0-.75,0-1.15V33.11h1.14v5.63h1v1.15h-1Z"/><path class="cls-1" d="M226.19,39.89h-4a.81.81,0,0,1-.55-.2.43.43,0,0,1,0-.75.81.81,0,0,1,.55-.2h4Z"/><path class="cls-1" d="M232.33,32.43v7.46h-6.16a.81.81,0,0,1-.55-.2.43.43,0,0,1,0-.75.81.81,0,0,1,.55-.2h1.57a2.7,2.7,0,0,1-.53-.89,3.39,3.39,0,0,1-.21-1.28,2.92,2.92,0,0,1,.65-1.93,5.25,5.25,0,0,1,1.52-1.26,6.8,6.8,0,0,1,1.76-.7A10.56,10.56,0,0,1,232.33,32.43Zm-1.15,1.39a7,7,0,0,0-.92.33,5.07,5.07,0,0,0-1,.55,3,3,0,0,0-.8.79,1.81,1.81,0,0,0-.32,1.08,1.71,1.71,0,0,0,.79,1.66,5.27,5.27,0,0,0,2.24.47Z"/><path class="cls-1" d="M18.66,58.54V49.19h4.89v1H19.89v3h3.39v1H19.89V57.5h3.73v1Z"/><path class="cls-1" d="M25.18,49.19h1.93l2.42,7.89L32,49.19h2v9.35H32.7V50.29l-2.64,8.25H28.94l-2.63-8.32v8.32H25.18Z"/><path class="cls-1" d="M36,58.54V49.19h4.89v1H37.22v3h3.39v1H37.22V57.5H41v1Z"/><path class="cls-1" d="M42.47,58.54V49.19h3.22a2.22,2.22,0,0,1,1.67.62A2.36,2.36,0,0,1,48,51.53a2,2,0,0,1-1.76,2.16,1.7,1.7,0,0,1,1.12.5,2.38,2.38,0,0,1,.42,1.47,12.5,12.5,0,0,0,.35,2.88H46.85a3.12,3.12,0,0,1-.25-1.22c0-.63-.08-1.25-.11-1.86,0-.8-.5-1.21-1.37-1.21H43.7v4.29Zm1.23-5.33h1.76a1.14,1.14,0,0,0,.93-.42,1.75,1.75,0,0,0,.35-1.13,1.61,1.61,0,0,0-.31-1,1.1,1.1,0,0,0-.93-.43H43.7Z"/><path class="cls-1" d="M52.46,54.51v-1H55.4V58a5.67,5.67,0,0,1-2.85.69,2.82,2.82,0,0,1-2.2-.81,4.19,4.19,0,0,1-.74-2.8v-3c0-2.06,1-3.08,3-3.08s2.8.78,2.8,2.36v.38H54.18c0-1.16-.54-1.73-1.62-1.73a1.51,1.51,0,0,0-1.34.57,2.62,2.62,0,0,0-.39,1.49v3.21a2.93,2.93,0,0,0,.47,2,1.63,1.63,0,0,0,1.18.47,2.82,2.82,0,0,0,1.7-.42v-2.8Z"/><path class="cls-1" d="M57.66,58.54V49.19h4.89v1H58.89v3h3.39v1H58.89V57.5h3.73v1Z"/><path class="cls-1" d="M64.24,49.19h1.7l3.68,8.07V49.19h1.07v9.35H69.05L65.31,50.4v8.14H64.24Z"/><path class="cls-1" d="M77.11,55.79h1.22A3.2,3.2,0,0,1,77.67,58a2.66,2.66,0,0,1-2,.71A2.88,2.88,0,0,1,73.49,58a4.11,4.11,0,0,1-.75-2.86V52.34q0-3.35,3-3.34c1.69,0,2.53.71,2.53,2.15v.59H77v-.31c0-1-.46-1.42-1.37-1.42a1.64,1.64,0,0,0-1.21.47,3.22,3.22,0,0,0-.46,2.1v2.7a3.83,3.83,0,0,0,.34,1.84,1.39,1.39,0,0,0,1.32.61,1.27,1.27,0,0,0,1.08-.52A2.26,2.26,0,0,0,77.11,55.79Z"/><path class="cls-1" d="M80.22,49.19h1.22v9.35H80.22Z"/><path class="cls-1" d="M83.68,58.54V49.19h4.88v1H84.9v3h3.39v1H84.9V57.5h3.73v1Z"/><path class="cls-1" d="M89.94,55.79h1.23v.33a1.58,1.58,0,0,0,.42,1.15,2,2,0,0,0,2.38,0,1.38,1.38,0,0,0,.43-1.11,1.33,1.33,0,0,0-.43-1,6.68,6.68,0,0,0-1.53-1A5.57,5.57,0,0,1,90.62,53a2.19,2.19,0,0,1-.47-1.42,2.39,2.39,0,0,1,.73-1.83,2.79,2.79,0,0,1,2-.7,2.69,2.69,0,0,1,2,.63,2.33,2.33,0,0,1,.66,1.75v.36H94.3c0-1.13-.48-1.7-1.45-1.7a1.53,1.53,0,0,0-1.09.37,1.28,1.28,0,0,0-.39,1,1.47,1.47,0,0,0,.6,1.15,8,8,0,0,0,1.48.88,5,5,0,0,1,1.61,1.13,2.43,2.43,0,0,1,.57,1.6c0,1.72-1,2.57-3,2.57a2.8,2.8,0,0,1-2-.66,2.6,2.6,0,0,1-.7-1.94Z"/><path class="cls-1" d="M96.77,60.21l.68-3.05h1.32L97.6,60.21Z"/><path class="cls-1" d="M107.46,55.79h1.22A3.15,3.15,0,0,1,108,58a2.64,2.64,0,0,1-2,.71,2.88,2.88,0,0,1-2.13-.75,4.11,4.11,0,0,1-.75-2.86V52.34c0-2.23,1-3.34,3-3.34,1.68,0,2.53.71,2.53,2.15v.59h-1.23v-.31c0-1-.45-1.42-1.36-1.42a1.64,1.64,0,0,0-1.21.47,3.21,3.21,0,0,0-.47,2.1v2.7a3.82,3.82,0,0,0,.35,1.84,1.39,1.39,0,0,0,1.32.61,1.29,1.29,0,0,0,1.08-.52A2.32,2.32,0,0,0,107.46,55.79Z"/><path class="cls-1" d="M110.39,58.54V49.19h3.22a2.22,2.22,0,0,1,1.67.62,2.36,2.36,0,0,1,.61,1.72,2,2,0,0,1-1.76,2.16,1.7,1.7,0,0,1,1.12.5,2.38,2.38,0,0,1,.42,1.47,12.5,12.5,0,0,0,.35,2.88h-1.25a3.12,3.12,0,0,1-.25-1.22c0-.63-.08-1.25-.11-1.86,0-.8-.5-1.21-1.37-1.21h-1.42v4.29Zm1.23-5.33h1.76a1.14,1.14,0,0,0,.93-.42,1.75,1.75,0,0,0,.35-1.13,1.61,1.61,0,0,0-.31-1,1.1,1.1,0,0,0-.93-.43h-1.8Z"/><path class="cls-1" d="M117.8,49.19H119v9.35H117.8Z"/><path class="cls-1" d="M121,55.79h1.23v.33a1.62,1.62,0,0,0,.41,1.15,1.69,1.69,0,0,0,1.24.42,1.64,1.64,0,0,0,1.14-.38,1.36,1.36,0,0,0,.44-1.11,1.31,1.31,0,0,0-.44-1,6.35,6.35,0,0,0-1.52-1A5.75,5.75,0,0,1,121.69,53a2.25,2.25,0,0,1-.47-1.42A2.42,2.42,0,0,1,122,49.7a2.83,2.83,0,0,1,2-.7,2.69,2.69,0,0,1,2,.63,2.33,2.33,0,0,1,.66,1.75v.36h-1.23c0-1.13-.48-1.7-1.45-1.7a1.52,1.52,0,0,0-1.09.37,1.28,1.28,0,0,0-.39,1,1.47,1.47,0,0,0,.6,1.15,8,8,0,0,0,1.48.88,5.13,5.13,0,0,1,1.61,1.13,2.43,2.43,0,0,1,.57,1.6c0,1.72-1,2.57-3,2.57a2.8,2.8,0,0,1-2-.66,2.56,2.56,0,0,1-.7-1.94Z"/><path class="cls-1" d="M128.49,58.54V49.19h4.88v1h-3.66v3h3.39v1h-3.39V57.5h3.73v1Z"/><path class="cls-1" d="M134.75,55.79H136v.33a1.62,1.62,0,0,0,.41,1.15,1.69,1.69,0,0,0,1.24.42,1.64,1.64,0,0,0,1.14-.38,1.36,1.36,0,0,0,.44-1.11,1.31,1.31,0,0,0-.44-1,6.35,6.35,0,0,0-1.52-1A5.75,5.75,0,0,1,135.42,53a2.25,2.25,0,0,1-.47-1.42,2.42,2.42,0,0,1,.73-1.83,2.83,2.83,0,0,1,2-.7,2.69,2.69,0,0,1,2,.63,2.33,2.33,0,0,1,.66,1.75v.36h-1.23c0-1.13-.48-1.7-1.45-1.7a1.52,1.52,0,0,0-1.09.37,1.28,1.28,0,0,0-.39,1,1.47,1.47,0,0,0,.6,1.15,8,8,0,0,0,1.48.88,5.13,5.13,0,0,1,1.61,1.13,2.43,2.43,0,0,1,.57,1.6c0,1.72-1,2.57-3,2.57a2.8,2.8,0,0,1-2-.66,2.56,2.56,0,0,1-.7-1.94Z"/><path class="cls-1" d="M144.25,58.54l2.94-9.35h1.53l3.05,9.35h-1.34l-.67-2.24h-3.62l-.69,2.24Zm2.2-3.28h3l-1.51-5Z"/><path class="cls-1" d="M153.12,49.19h1.7l3.68,8.07V49.19h1.07v9.35h-1.64l-3.74-8.14v8.14h-1.07Z"/><path class="cls-1" d="M161.75,58.54V49.19h2.88a2.74,2.74,0,0,1,2.26.91c.51.59.76,1.78.76,3.55,0,2.12-.29,3.46-.86,4a3.47,3.47,0,0,1-2.57.86Zm1.23-1h1.21a2.13,2.13,0,0,0,1.73-.61,3.27,3.27,0,0,0,.51-2.07V52.73a3,3,0,0,0-.47-1.92,1.65,1.65,0,0,0-1.36-.58H163Z"/><path class="cls-1" d="M172.58,58.54V49.19h2.88a2.74,2.74,0,0,1,2.26.91c.51.59.76,1.78.76,3.55,0,2.12-.29,3.46-.86,4a3.47,3.47,0,0,1-2.57.86Zm1.23-1H175a2.13,2.13,0,0,0,1.73-.61,3.27,3.27,0,0,0,.51-2.07V52.73a3,3,0,0,0-.47-1.92,1.65,1.65,0,0,0-1.36-.58h-1.62Z"/><path class="cls-1" d="M180.64,49.19h1.22v9.35h-1.22Z"/><path class="cls-1" d="M183.86,55.79h1.23v.33a1.58,1.58,0,0,0,.42,1.15,2,2,0,0,0,2.38,0,1.39,1.39,0,0,0,.44-1.11,1.34,1.34,0,0,0-.44-1,6.68,6.68,0,0,0-1.53-1A5.57,5.57,0,0,1,184.54,53a2.19,2.19,0,0,1-.47-1.42,2.39,2.39,0,0,1,.73-1.83,2.79,2.79,0,0,1,2-.7,2.69,2.69,0,0,1,1.95.63,2.33,2.33,0,0,1,.66,1.75v.36h-1.23c0-1.13-.48-1.7-1.45-1.7a1.49,1.49,0,0,0-1.08.37,1.25,1.25,0,0,0-.4,1,1.47,1.47,0,0,0,.6,1.15,8,8,0,0,0,1.48.88A5,5,0,0,1,189,54.56a2.43,2.43,0,0,1,.57,1.6c0,1.72-1,2.57-3,2.57a2.8,2.8,0,0,1-2-.66,2.6,2.6,0,0,1-.7-1.94Z"/><path class="cls-1" d="M190.47,58.54l2.95-9.35H195l3,9.35h-1.34L196,56.3h-3.62l-.69,2.24Zm2.2-3.28h3l-1.51-5Z"/><path class="cls-1" d="M199,55.79h1.23v.33a1.58,1.58,0,0,0,.42,1.15,2,2,0,0,0,2.38,0,1.39,1.39,0,0,0,.44-1.11,1.34,1.34,0,0,0-.44-1,6.68,6.68,0,0,0-1.53-1A5.57,5.57,0,0,1,199.71,53a2.19,2.19,0,0,1-.47-1.42A2.39,2.39,0,0,1,200,49.7a2.79,2.79,0,0,1,2-.7,2.69,2.69,0,0,1,2,.63,2.33,2.33,0,0,1,.66,1.75v.36h-1.23c0-1.13-.48-1.7-1.45-1.7a1.49,1.49,0,0,0-1.08.37,1.25,1.25,0,0,0-.4,1,1.47,1.47,0,0,0,.6,1.15,8,8,0,0,0,1.48.88,5,5,0,0,1,1.61,1.13,2.43,2.43,0,0,1,.57,1.6c0,1.72-1,2.57-3,2.57a2.8,2.8,0,0,1-2-.66,2.6,2.6,0,0,1-.7-1.94Z"/><path class="cls-1" d="M205.65,49.19h6.1v1h-2.43v8.31h-1.23V50.23h-2.44Z"/><path class="cls-1" d="M213,58.54V49.19h4.88v1h-3.66v3h3.39v1h-3.39V57.5H218v1Z"/><path class="cls-1" d="M219.48,58.54V49.19h3.22a2.23,2.23,0,0,1,1.67.62,2.35,2.35,0,0,1,.6,1.72,2,2,0,0,1-1.76,2.16,1.71,1.71,0,0,1,1.13.5,2.45,2.45,0,0,1,.41,1.47,13.08,13.08,0,0,0,.35,2.88h-1.24a2.94,2.94,0,0,1-.25-1.22c-.05-.63-.08-1.25-.11-1.86a1.2,1.2,0,0,0-1.38-1.21H220.7v4.29Zm1.22-5.33h1.76a1.15,1.15,0,0,0,.94-.42,1.75,1.75,0,0,0,.34-1.13,1.61,1.61,0,0,0-.31-1,1.07,1.07,0,0,0-.92-.43H220.7Z"/><path class="cls-1" d="M226.49,55.79h1.23v.33a1.58,1.58,0,0,0,.42,1.15,1.68,1.68,0,0,0,1.24.42,1.64,1.64,0,0,0,1.14-.38A1.39,1.39,0,0,0,231,56.2a1.34,1.34,0,0,0-.44-1,6.68,6.68,0,0,0-1.53-1A5.57,5.57,0,0,1,227.17,53a2.19,2.19,0,0,1-.47-1.42,2.39,2.39,0,0,1,.73-1.83,2.81,2.81,0,0,1,2-.7,2.73,2.73,0,0,1,2,.63,2.36,2.36,0,0,1,.65,1.75v.36h-1.22c0-1.13-.49-1.7-1.46-1.7a1.49,1.49,0,0,0-1.08.37,1.25,1.25,0,0,0-.4,1,1.47,1.47,0,0,0,.6,1.15,8,8,0,0,0,1.48.88,5,5,0,0,1,1.61,1.13,2.43,2.43,0,0,1,.57,1.6c0,1.72-1,2.57-3,2.57a2.8,2.8,0,0,1-2-.66,2.6,2.6,0,0,1-.7-1.94Z"/><path class="cls-1" d="M106.14,64.79h1.92l2.42,7.89,2.43-7.89h2v9.35h-1.23V65.89L111,74.14h-1.13l-2.63-8.32v8.32h-1.12Z"/><path class="cls-1" d="M116.09,74.14,119,64.79h1.53l3,9.35h-1.34l-.67-2.24H118l-.69,2.24Zm2.2-3.28h3l-1.51-5Z"/><path class="cls-1" d="M125,64.79h1.7l3.69,8.07V64.79h1.06v9.35h-1.64L126,66v8.14H125Z"/><path class="cls-1" d="M132.7,74.14l3-9.35h1.53l3,9.35h-1.34l-.67-2.24h-3.62l-.69,2.24Zm2.2-3.28h3l-1.51-5Z"/><path class="cls-1" d="M144.23,70.11v-1h3v4.57a5.67,5.67,0,0,1-2.85.69,2.84,2.84,0,0,1-2.21-.81,4.19,4.19,0,0,1-.74-2.8v-3c0-2.06,1-3.08,3-3.08s2.81.78,2.81,2.36v.38H146c0-1.16-.54-1.73-1.61-1.73a1.51,1.51,0,0,0-1.34.57,2.62,2.62,0,0,0-.39,1.49v3.21a2.93,2.93,0,0,0,.47,2,1.59,1.59,0,0,0,1.17.47,2.78,2.78,0,0,0,1.7-.42v-2.8Z"/><path class="cls-1" d="M149.44,74.14V64.79h4.88v1h-3.66v3h3.39v1h-3.39V73.1h3.74v1Z"/><path class="cls-1" d="M156,64.79h1.93l2.42,7.89,2.42-7.89h2v9.35h-1.23V65.89l-2.63,8.25h-1.12l-2.64-8.32v8.32H156Z"/><path class="cls-1" d="M166.77,74.14V64.79h4.88v1H168v3h3.39v1H168V73.1h3.74v1Z"/><path class="cls-1" d="M173.34,64.79H175l3.69,8.07V64.79h1.06v9.35h-1.64L174.41,66v8.14h-1.07Z"/><path class="cls-1" d="M181.1,64.79h6.09v1h-2.43v8.3h-1.23v-8.3H181.1Z"/><path class="cls-1" d="M195.6,71.39h1.22a3.2,3.2,0,0,1-.66,2.23,2.64,2.64,0,0,1-2,.71,2.9,2.9,0,0,1-2.13-.75,4.11,4.11,0,0,1-.75-2.86V67.94q0-3.34,3-3.34c1.69,0,2.53.71,2.53,2.15v.59H195.5V67c0-1-.46-1.42-1.37-1.42a1.6,1.6,0,0,0-1.21.47,3.22,3.22,0,0,0-.46,2.1v2.7a3.83,3.83,0,0,0,.34,1.84,1.41,1.41,0,0,0,1.33.61,1.29,1.29,0,0,0,1.08-.52A2.32,2.32,0,0,0,195.6,71.39Z"/><path class="cls-1" d="M198.56,74.14V64.79h4.88v1h-3.66v3h3.39v1h-3.39V73.1h3.73v1Z"/><path class="cls-1" d="M205.13,64.79h1.7l3.69,8.07V64.79h1.06v9.35h-1.64L206.2,66v8.14h-1.07Z"/><path class="cls-1" d="M212.88,64.79H219v1h-2.43v8.3h-1.23v-8.3h-2.44Z"/><path class="cls-1" d="M220.21,74.14V64.79h3.22a2.23,2.23,0,0,1,1.67.62,2.35,2.35,0,0,1,.6,1.72,2,2,0,0,1-1.76,2.16,1.66,1.66,0,0,1,1.13.5,2.45,2.45,0,0,1,.41,1.47,13.16,13.16,0,0,0,.35,2.88h-1.24a2.94,2.94,0,0,1-.25-1.22c-.05-.63-.08-1.25-.11-1.86,0-.81-.51-1.21-1.38-1.21h-1.41v4.29Zm1.23-5.33h1.75a1.15,1.15,0,0,0,.94-.42,1.75,1.75,0,0,0,.35-1.13,1.62,1.62,0,0,0-.32-1,1.06,1.06,0,0,0-.92-.42h-1.8Z"/><path class="cls-1" d="M227.46,74.14V64.79h4.88v1h-3.66v3h3.39v1h-3.39V73.1h3.74v1Z"/><path id="WHITE_LAYER" data-name="WHITE LAYER" class="cls-2" d="M290.05,52.67c.12-12.8-2.69-20-5.13-23.49.83-1.1,1.35-1.77,1.38-1.8a2.48,2.48,0,0,1,1.54-.76,27.59,27.59,0,0,1,.87-3.69,21.09,21.09,0,0,1-3.26,1.89,2.28,2.28,0,0,1-.32,1.68l-1.07,1.43a15.28,15.28,0,0,0-4.13-3.44c-.44-.24-.91-.48-1.41-.71a2.41,2.41,0,0,0-.66-1.8,1.3,1.3,0,0,0-.76-1h0a1.66,1.66,0,0,0-1.35.37,3.06,3.06,0,0,0-1.82,1,34.66,34.66,0,0,0-5.14-.67,3,3,0,0,0-1.6-2,1.67,1.67,0,0,0-1.25-.85h0a1.67,1.67,0,0,0-1.25.85,3,3,0,0,0-1.6,2,34.66,34.66,0,0,0-5.14.67,3,3,0,0,0-1.82-1,1.62,1.62,0,0,0-1.35-.37h0a1.3,1.3,0,0,0-.76,1,2.41,2.41,0,0,0-.66,1.8c-.5.23-1,.47-1.4.71a13.45,13.45,0,0,0-4.06,3.39l-1-1.29a2.33,2.33,0,0,1-.32-1.68,20.75,20.75,0,0,1-3.26-1.9,27.93,27.93,0,0,1,.87,3.7,2.45,2.45,0,0,1,1.54.75s.49.62,1.22,1.6c-2.45,3.49-5.3,10.72-5.18,23.6,0,1.2-.5,12.36,3.14,19.88a17.76,17.76,0,0,0,3.49,4.65,13.28,13.28,0,0,0,5.8,3.23l.27.07a8.74,8.74,0,0,0,6-.23l-.13.34-.13.31c-.5,1.38-.16,2.81,1.71,3a4.79,4.79,0,0,1,1.69.38,5,5,0,0,1,1.51,1.13,6.55,6.55,0,0,1,1,1.35h0a6.55,6.55,0,0,1,1-1.35,5.17,5.17,0,0,1,1.51-1.13,4.79,4.79,0,0,1,1.69-.38c1.88-.22,2.22-1.65,1.71-3l-.13-.31-.14-.34c1.3.76,5.29,1.34,9.11-1.09a15.79,15.79,0,0,0,6.07-6.57C290.55,65.08,290.07,53.7,290.05,52.67Zm-16.9-10.32a.76.76,0,0,1-.26.25,1,1,0,0,1-.63.14.67.67,0,0,1-.6-.3,10.67,10.67,0,0,1-1.16-2.29c-.4-.95-.33-.79-.91-2.22a13.13,13.13,0,0,0-1.07-2.13,5.31,5.31,0,0,0-1.5-1.28,4.51,4.51,0,0,0-1.36-.29,8.63,8.63,0,0,0-2.25.18,2.47,2.47,0,0,0-1.12.6,1,1,0,0,1-.34.29,4.07,4.07,0,0,0-1,.56,1.25,1.25,0,0,0-.27,2h0c0-.25,0-.46.05-.45a1.73,1.73,0,0,0,1.1.2c.47-.06.77.65.77.65l.07-.21a1.76,1.76,0,0,0,.28.55.67.67,0,0,0,.07-.11c.14.18.37.3.39.58a1.14,1.14,0,0,1-.45.81c-.13.12-.87.73-1.65,1.53-.41.42-.62.67-1,1.12a1,1,0,0,1-.62.39h-.09a.69.69,0,0,1-.52-.24l-6-7.92c3.47-3.39,9.23-3.95,10.67-3.84.33,0,.71.29.29.84a2.6,2.6,0,0,0,1.92-.37,2.57,2.57,0,0,0,1.91.37c-.42-.55,0-.82.3-.84a15.11,15.11,0,0,1,10.71,3.92C277,37.27,274.5,40.4,273.15,42.35Z"/><g id="RED_LAYER" data-name="RED LAYER"><path class="cls-3" d="M289.28,49.17a34.25,34.25,0,0,1-5.42,3.65l-.87.47v-.62a34.14,34.14,0,0,0-3.87-15.82c-.26.35-1.13,1.45-2,2.58a1.82,1.82,0,0,1,1.54.55,15.78,15.78,0,0,1,3,4.92,12.85,12.85,0,0,1,.69,4.61h0s-.5,8.61-1.49,16.86c-.89,7.5-1.38,8.48-1.38,8.48a5.38,5.38,0,0,1-.95-2.07l-.08.07a6.69,6.69,0,0,1-.84-2.23,33.57,33.57,0,0,1-.38-6.13h0a2.71,2.71,0,0,0-.33-1.16,4.4,4.4,0,0,1-.38-1.05h0a6.91,6.91,0,0,0-2.17-3.67,10.94,10.94,0,0,1-1.53-2.5l-.05,0a2.17,2.17,0,0,0-.69,1,8.93,8.93,0,0,1,.06,3,2,2,0,0,1-.28-.23c.09.89-.33,1.92-.07,2.74l-.52-.07.05.13a.87.87,0,0,0,.27.23l.17.08.54.19a1.6,1.6,0,0,0-.23-1.68c-.25-.3.06-.75.57-.52a7.38,7.38,0,0,1,2.17,1.45c1.1,1,1.42,2,1.19,2.25s-.32.12-.53,0c0,0,0,.08,0,.12a.63.63,0,0,1-.48.4l0,0c-.12.17-.31.23-.64.22a1.61,1.61,0,0,1-.64-.19.78.78,0,0,1-.22-.16l-.2.16A46.72,46.72,0,0,1,277,70.53a15.65,15.65,0,0,1,1.25,2.79,2.27,2.27,0,0,1-1.05,0,3.92,3.92,0,0,1,.28,1.55,3.14,3.14,0,0,1-1.69-.39,2.5,2.5,0,0,1,.05.29c.54.39,1.13.83,1.4,1-2.62,1.23-6.4.67-6.47.66l-.49-.07c0,.07-.06.15-.09.24.25.6.85,2,1,2.29a8.72,8.72,0,0,0,5.58.87,7.53,7.53,0,0,0,1.42-.39,14.65,14.65,0,0,0,4.49-2.89A17.26,17.26,0,0,0,286,72.18c2.89-5.64,3.37-14,3.37-17.4V53C289.38,51.88,289.32,50,289.28,49.17Z"/><path class="cls-3" d="M261.1,78.84c.12-.31.64-1.56.91-2.19,0-.11-.07-.22-.11-.33q-.54.09-1.08.15c-.24,0-3.84.57-6.45-.65.31-.22.91-.71,1.72-1.23a.76.76,0,0,1,0-.16,3.14,3.14,0,0,1-1.69.39,3.89,3.89,0,0,1,.28-1.55,2.16,2.16,0,0,1-1.05,0,16.11,16.11,0,0,1,1.24-2.78,32,32,0,0,1,2.86-4,2,2,0,0,1,.51-.9l.15-.18-.31-.25a.77.77,0,0,1-.25.2,1.61,1.61,0,0,1-.65.19c-.33,0-.52,0-.64-.22l0,0a.63.63,0,0,1-.47-.4.3.3,0,0,1,0-.13.43.43,0,0,1-.48-.06c-.23-.2.09-1.21,1.19-2.25a7.31,7.31,0,0,1,2.17-1.45c.52-.23.82.21.57.52a1.59,1.59,0,0,0-.23,1.68c.32-.1.44-.16.49-.17a.87.87,0,0,0,.43-.31.38.38,0,0,0,.05-.11l-.46.05c.24-.58-.12-2,.11-2.9a1.81,1.81,0,0,1-.31.18,11.18,11.18,0,0,1-.08-2.8,1.83,1.83,0,0,0-.57-.79,8.93,8.93,0,0,1-1.46,2.39,6.91,6.91,0,0,0-2.17,3.67h0a4.88,4.88,0,0,1-.38,1,2.69,2.69,0,0,0-.33,1.15h0a33.57,33.57,0,0,1-.38,6.13,6.69,6.69,0,0,1-.84,2.23l-.08-.07a5.38,5.38,0,0,1-.95,2.07s-.49-1-1.39-8.48c-1-8.25-1.48-16.87-1.48-16.87h0a13.07,13.07,0,0,1,.68-4.61A16.16,16.16,0,0,1,253.21,40a1.83,1.83,0,0,1,1.69-.52c-.16-.22-.34-.46-.33-.46-.57-.75-1.22-1.57-1.78-2.31-4,7.1-3.93,15.57-3.93,15.63v.91l-.71-.38a34.05,34.05,0,0,1-5.57-3.74c-.05.86-.13,3.78-.13,3.78s0,.66,0,1.77c0,3.39.6,11.7,3.36,17.41a17,17,0,0,0,3.29,4.37A12.61,12.61,0,0,0,254,79.36l.42.14a8.72,8.72,0,0,0,6.67-.6Z"/><path class="cls-3" d="M262.82,81a36,36,0,0,1,.42-3.8,2,2,0,0,1-.63.47s-.1,0-.16-.13c-.64,1.54-1.52,3.7-1.53,3.73A1.76,1.76,0,0,1,262.82,81Z"/><path class="cls-3" d="M268.94,82a39.91,39.91,0,0,0-.64-5.48.57.57,0,0,1-.08-.13c-.05-.07-.11-.14-.16-.22a6.38,6.38,0,0,1-.36,1,2.58,2.58,0,0,1-.51.8,3.67,3.67,0,0,1-1.29-1.59,3.79,3.79,0,0,1-1.28,1.57,2.63,2.63,0,0,1-.52-.81c-.08-.18-.15-.36-.21-.53a42.8,42.8,0,0,0-.57,5.39c-1.57-1-2.52,0-2.19.72a1,1,0,0,0,.1.17,1,1,0,0,0,.78.41,4.92,4.92,0,0,1,1.93.44,6.16,6.16,0,0,1,2.19,1.8,6.25,6.25,0,0,1,2.19-1.8,4.92,4.92,0,0,1,1.93-.44,1.07,1.07,0,0,0,.78-.41,1,1,0,0,0,.1-.17C271.46,82,270.51,81,268.94,82Z"/><path class="cls-3" d="M269.5,77.66a1.94,1.94,0,0,1-.52-.37,30.88,30.88,0,0,1,.46,3.7,1.76,1.76,0,0,1,1.9.27l-1.53-3.93C269.67,77.52,269.53,77.67,269.5,77.66Z"/></g><path id="BLACK_LAYER" data-name="BLACK LAYER" class="cls-4" d="M276.84,50.92a1.58,1.58,0,0,1-.81,1.15c-.26-.83-.42-1.49.75-3.93-.8,2.4-.45,3.19-.45,3.19A1.27,1.27,0,0,0,276.84,50.92Zm-1.3-1.67s-.28-.54.44-2.62a3.8,3.8,0,0,0-.74,3.36,1.78,1.78,0,0,0,.87-1.09A1.24,1.24,0,0,1,275.54,49.25Zm4.71-3.55c-.21,2.11-.39,2.54-.61,2.9a1.5,1.5,0,0,1-.34-.56,1.53,1.53,0,0,0,.35,1.28C280.09,48.77,280.4,47.6,280.25,45.7Zm-.42-1.4c-.33,2.35-.7,2.89-1,3.29a2.1,2.1,0,0,1-.37-.72,1.73,1.73,0,0,0,.34,1.44A5.87,5.87,0,0,0,279.83,44.3Zm-1.76,2.27a3.52,3.52,0,0,1-.17-1.27,2.19,2.19,0,0,0,.1,2.06,6.09,6.09,0,0,0,1.23-3.94A6.73,6.73,0,0,1,278.07,46.57Zm-.84-1.34a6.49,6.49,0,0,1-.08-1.65,3.16,3.16,0,0,0-.06,2.51,5.74,5.74,0,0,0,1.47-3.66A5.76,5.76,0,0,1,277.23,45.23Zm2.86,4a1,1,0,0,0,.39.79,3.83,3.83,0,0,0,.42-2.68,5.18,5.18,0,0,1-.49,2.13S280.13,49.32,280.09,49.21Zm.8.73a.83.83,0,0,0,.37.68,3.35,3.35,0,0,0,.27-2.37,4.32,4.32,0,0,1-.4,1.92S280.93,50,280.89,49.94Zm-28.67-1.27c-.23-.36-.4-.8-.61-2.9-.15,1.9.16,3.07.6,3.61a1.56,1.56,0,0,0,.35-1.27A1.58,1.58,0,0,1,252.22,48.67Zm.77-1c-.26-.4-.63-.94-1-3.29a5.86,5.86,0,0,0,1,4,1.74,1.74,0,0,0,.33-1.45A2.06,2.06,0,0,1,253,47.66Zm.8-1a6.73,6.73,0,0,1-1.16-3.15,6.09,6.09,0,0,0,1.23,3.94,2.19,2.19,0,0,0,.1-2.06A3.52,3.52,0,0,1,253.79,46.64Zm.84-1.34a5.72,5.72,0,0,1-1.33-2.8,5.76,5.76,0,0,0,1.47,3.66,3.16,3.16,0,0,0-.06-2.51A6.49,6.49,0,0,1,254.63,45.3Zm-3.18,4.22a5.18,5.18,0,0,1-.49-2.13,3.83,3.83,0,0,0,.42,2.68,1,1,0,0,0,.39-.79C251.73,49.39,251.45,49.52,251.45,49.52Zm-.72.72a4.21,4.21,0,0,1-.41-1.92,3.39,3.39,0,0,0,.28,2.37A.89.89,0,0,0,251,50C250.93,50.1,250.73,50.24,250.73,50.24Zm4.8,1.16A1.27,1.27,0,0,1,255,51a1.58,1.58,0,0,0,.81,1.15c.26-.83.42-1.49-.75-3.93C255.88,50.6,255.53,51.4,255.53,51.4Zm.78-2.08a1.24,1.24,0,0,1-.56-.35,1.78,1.78,0,0,0,.86,1.09,3.77,3.77,0,0,0-.73-3.36C256.59,48.78,256.31,49.32,256.31,49.32Zm5.9,10.12a5.58,5.58,0,0,0-.55-2.46,1.08,1.08,0,0,0-.12.49,3.45,3.45,0,0,1-.57-1.39,7,7,0,0,1-.44,1.47,1.21,1.21,0,0,0,.48-.17C261.2,58.28,262,58.47,262.21,59.44Zm7.87-1.9a1,1,0,0,0-.13-.49,5.83,5.83,0,0,0-.55,2.46c.27-1,1-1.17,1.21-2.07a.93.93,0,0,0,.48.17,6.16,6.16,0,0,1-.44-1.46A3.51,3.51,0,0,1,270.08,57.54Zm-5.82-1.08a6.09,6.09,0,0,0-.78-2.12A2.49,2.49,0,0,0,264.26,56.46Zm3,1.2a4.76,4.76,0,0,0,.64-2.61A4.49,4.49,0,0,0,267.23,57.66Zm-1,.62a2.15,2.15,0,0,0,0-1.81A2.29,2.29,0,0,0,266.28,58.28Zm-.72-1.94a2.49,2.49,0,0,0-.13-2A2.61,2.61,0,0,0,265.56,56.34Zm5.17-6.6a8.27,8.27,0,0,0-.72,2.42C270.18,52,271,50.08,270.73,49.74Zm0-2.2s.74-1.31.32-2C270.6,45.63,270.78,47.55,270.77,47.54Zm-2.15,3.15a3.78,3.78,0,0,0,1.12-2.51,2.4,2.4,0,0,1-1.12,1.33,1.7,1.7,0,0,1-.64-.88A2.35,2.35,0,0,0,268.62,50.69Zm2.29-1.59c.31-.49.74-1.21.38-1.67A14.2,14.2,0,0,0,270.91,49.1Zm-3.62,5.47a4.54,4.54,0,0,0,.61-2.34A3.78,3.78,0,0,0,267.29,54.57ZM269,53.08a3,3,0,0,0,.75-2.83A6.34,6.34,0,0,0,269,53.08Zm-1.49-3a3.52,3.52,0,0,1-1,1.63,3.19,3.19,0,0,1-.71-1,2.12,2.12,0,0,0,.9,2A3.39,3.39,0,0,0,267.47,50.11Zm-3,2.85a3.46,3.46,0,0,1-1-1.06,4.72,4.72,0,0,0,1.4,2.14,3.71,3.71,0,0,0,.19-2.85A5.61,5.61,0,0,1,264.46,53Zm-4.06-7.67c-.09-.55.6-1.07.37-2A1.75,1.75,0,0,0,260.4,45.29Zm1.39,6.62a5.7,5.7,0,0,0,1,1.26c-.48-.73-.87-2.09-1.35-2.46A2.57,2.57,0,0,0,261.79,51.91Zm-.33-3a2.8,2.8,0,0,0,.87,2.24A3.6,3.6,0,0,0,261.46,48.87Zm.8-2.12a8.33,8.33,0,0,1-.12,1.45,1.7,1.7,0,0,1-.71-.5,5.74,5.74,0,0,0,1.11,1.57A3.85,3.85,0,0,0,262.26,46.75Zm-.5-2.93a20.46,20.46,0,0,1,1.17-2.44A2.44,2.44,0,0,0,261.76,43.82Zm-1,5a6.33,6.33,0,0,0-.57-2.45A4.55,4.55,0,0,0,260.79,48.79ZM263.62,45c-.77,1,.41,2.14.41,2.16S264.12,45.4,263.62,45Zm.57-2.6a1.41,1.41,0,0,0-.4,2.09A7.76,7.76,0,0,0,264.19,42.44Zm.66,7.65a3.59,3.59,0,0,0,.46-2.58,2.06,2.06,0,0,1-.75,1.46,1.84,1.84,0,0,1-.65-.81A2.37,2.37,0,0,0,264.85,50.09Zm5.77-7.51a6.77,6.77,0,0,0,.69,2.21A2,2,0,0,0,270.62,42.58Zm-1.53-2.53c-.1.54.78,1.37.78,1.37A1.32,1.32,0,0,0,269.09,40.05Zm1.29,4.16a3,3,0,0,1-.79,1.66,5.82,5.82,0,0,1-.77-.8,3.38,3.38,0,0,0,.8,1.91A3,3,0,0,0,270.38,44.21ZM268,42c-.46.49,0,1.47.23,2.35C268.43,43.89,268.72,42.43,268,42Zm.39-1.39a1.24,1.24,0,0,0-1.12-1.33C267.17,39.76,268,40.07,268.35,40.58Zm-1.08-1.84c.23.23,1,.4,1.35.77A1,1,0,0,0,267.27,38.74Zm-1,2.8a1.1,1.1,0,0,0-.27,1.38S266.86,42,266.29,41.54Zm1,7.18a3.73,3.73,0,0,0,.95-2.49,5.94,5.94,0,0,1-1,1.29,4.71,4.71,0,0,1-.86-.79A3.43,3.43,0,0,0,267.32,48.72ZM266,44.11a2.27,2.27,0,0,0,0,2.36S266.56,44.86,266,44.11Zm.27-8.29c.21.22.88.5,1.26.85C267.51,36.09,267,35.78,266.3,35.82Zm.35.67a2.07,2.07,0,0,0-1.2-.67A1.4,1.4,0,0,0,266.65,36.49Zm1.4,1.19a1.38,1.38,0,0,0-1-.72,2.25,2.25,0,0,1,.36.6,2.78,2.78,0,0,1-.61.13A1.44,1.44,0,0,0,268.05,37.68ZM261.94,36c-.06,0-.12.23.1.23a.22.22,0,0,0,.22-.19S262,35.94,261.94,36Zm5.91-11.59c-.21-.15-.35-.27-.58-.42-.19.13-.42.32-.56.43.19.15.34.27.55.42ZM264.23,35.5a.63.63,0,0,1,0,.37.59.59,0,0,1-.49.54.59.59,0,0,1-.76-.53.6.6,0,0,1,.07-.32c-.13,0-.13.1-.25.25s-.19.08-.36.2a1,1,0,0,1,.53-.71,4.25,4.25,0,0,1,2.84.28,8.64,8.64,0,0,0-1-.06Zm-.18,0c-.05,0-.36,0-.4,0s.19.17.27.2a.12.12,0,0,0,.14-.08C264.1,35.61,264.09,35.53,264.05,35.51Zm4.71-8.31a44.66,44.66,0,0,0-10.9.88,4.27,4.27,0,0,0-.53-.95c-.71-.76-1,.07-1,.16.89.06,1.05.52,1.05.52a2.17,2.17,0,0,1-.87.86,3.32,3.32,0,0,1-1.52.53c-1.69.08-1.23-1.67-.21-2.39-.13.16-.73,1.08-.36,1.55s2,.09,2.35-.38a1.51,1.51,0,0,0-1.14-.2,2.54,2.54,0,0,1,1-1.68,2.35,2.35,0,0,1,1.4,1.22,42.43,42.43,0,0,1,7.19-.86c-.05-.43-.2-2-.21-2.14,0-.26.15-.38.32-.49a1.23,1.23,0,0,0,.78.63,2.19,2.19,0,0,1-.5.42c0,.33.06.92.07,1.15a9.49,9.49,0,0,1,1.64-.57,2.84,2.84,0,0,1,.74-.07,1.34,1.34,0,0,1,.65.28.72.72,0,0,1,.27.52A2.94,2.94,0,0,1,268.76,27.2Zm-.58-1c-.34-.57-1.63-.06-2.45.28.47,0,.88,0,1.38,0l1.1,0A.28.28,0,0,0,268.18,26.16Zm-11.61,3-.5-.15c-.12.18-.26.43-.35.58l.69.22.26-.4.49.15c.14-.23.21-.34.37-.58l-.71-.22C256.73,28.89,256.65,29,256.57,29.17Zm20.58-2.08c.55,0,1.06.09,1.29-.16a1.7,1.7,0,0,1-.81-.36c.15-.13.36,0,.47.13l.21-.19a.71.71,0,0,0-1,.18,1.49,1.49,0,0,1,.31.18A2.48,2.48,0,0,0,277.15,27.09Zm-.32,1a16,16,0,0,1-.68,1.51c.16.07.37-.07.51-.16a4.73,4.73,0,0,0,1.44-2.25,2.77,2.77,0,0,0-.61.17A1.06,1.06,0,0,0,276.83,28.12Zm-5.17.24.49.49c.25-.14.37-.21.65-.35-.19-.19-.3-.32-.5-.5C272.08,28.11,271.83,28.26,271.66,28.36Zm4.62-.53a2.62,2.62,0,0,1-.56.83,22.46,22.46,0,0,0-4.22-1,2.88,2.88,0,0,1-1.27.93,5.77,5.77,0,0,1-1.68-.49,4,4,0,0,0,2.36-.52c-1-.15-1.24-.42-.76-1.06.22-.3.59-.82,1.12-.69s.53.71.48,1.16a20.66,20.66,0,0,1,3.82.93c.08-.32-.14-.49-.27-.72a3.48,3.48,0,0,1,.63-.53A1.22,1.22,0,0,1,276.28,27.83Zm-5.55-1.5a.68.68,0,0,0-.3.32c.09.14.27.19.54.23l.14,0C271.24,26.61,271,26.24,270.73,26.33Zm-12.55,2.38.66.29c.17-.21.25-.31.45-.54-.25-.11-.42-.19-.68-.29C258.46,28.34,258.29,28.57,258.18,28.71ZM286.91,72.6a15.79,15.79,0,0,1-6.07,6.57C277,81.6,273,81,271.73,80.26l.14.34.13.31c.51,1.38.17,2.81-1.71,3a4.79,4.79,0,0,0-1.69.38,5.17,5.17,0,0,0-1.51,1.13,6.55,6.55,0,0,0-1,1.35h0a6.55,6.55,0,0,0-1-1.35,5,5,0,0,0-1.51-1.13,4.79,4.79,0,0,0-1.69-.38c-1.87-.22-2.21-1.65-1.71-3l.13-.31.13-.34a8.74,8.74,0,0,1-6,.23l-.27-.07a13.28,13.28,0,0,1-5.8-3.23,17.76,17.76,0,0,1-3.49-4.65c-3.64-7.52-3.13-18.68-3.14-19.88-.12-12.88,2.73-20.11,5.18-23.6-.73-1-1.18-1.57-1.22-1.6a2.45,2.45,0,0,0-1.54-.75,27.93,27.93,0,0,0-.87-3.7,20.75,20.75,0,0,0,3.26,1.9,2.33,2.33,0,0,0,.32,1.68l1,1.29A13.45,13.45,0,0,1,252,24.49c.43-.24.9-.48,1.4-.71A2.41,2.41,0,0,1,254,22a1.3,1.3,0,0,1,.76-1h0a1.62,1.62,0,0,1,1.35.37,3,3,0,0,1,1.82,1,34.66,34.66,0,0,1,5.14-.67,3,3,0,0,1,1.6-2,1.67,1.67,0,0,1,1.25-.85h0a1.67,1.67,0,0,1,1.25.85,3,3,0,0,1,1.6,2,34.66,34.66,0,0,1,5.14.67,3.06,3.06,0,0,1,1.82-1,1.66,1.66,0,0,1,1.35-.37h0a1.3,1.3,0,0,1,.76,1,2.41,2.41,0,0,1,.66,1.8c.5.23,1,.47,1.41.71a15.28,15.28,0,0,1,4.13,3.44l1.07-1.43a2.28,2.28,0,0,0,.32-1.68,21.09,21.09,0,0,0,3.26-1.89,27.59,27.59,0,0,0-.87,3.69,2.48,2.48,0,0,0-1.54.76s-.55.7-1.38,1.8c2.44,3.52,5.25,10.69,5.13,23.49C290.07,53.7,290.55,65.08,286.91,72.6Zm-1.14-40.47a11.78,11.78,0,0,1-3.09.29,6.08,6.08,0,0,0-.68,3.06,2.63,2.63,0,0,1-1.29-.73l-1.14,1.52A33.17,33.17,0,0,1,283.68,52a37.12,37.12,0,0,0,5.54-3.82C288.84,41.54,287.81,36.5,285.77,32.13Zm-6.42,20.13a5.42,5.42,0,0,0,.1,2.13,5.24,5.24,0,0,0,.88-1.76,4.78,4.78,0,0,0,.34,1.71,12.82,12.82,0,0,0,.76-3.53s0,.07.27.16a11.77,11.77,0,0,0-.1-4.06,13.63,13.63,0,0,0-3.15-6.27c-1.08-1.27-2-.7-2.9.3-1.47,1.6-1.79,2.3-3.55,2.63h0c-.17,0,0,.12.31.11,2.12,0,2.78-1.44,3.42-2.14.42-.47,1-.89,1.41-.63.17.1.75.77.15,2.43a1.37,1.37,0,0,0-.22-.79A9.71,9.71,0,0,1,276,45.28a5.68,5.68,0,0,1-.13-.58c-.21,1.34-1.41,2.74-1.59,4.65a1.31,1.31,0,0,1-.24-.83c-.9,1.67-1.84,4.67-1.26,6.18a9.93,9.93,0,0,1,1.4-4.43c-.62,2-1.34,4.4-.72,5.86A11.17,11.17,0,0,1,274.71,52c-.86,3.23-1.21,4.88-.25,6.13a9.61,9.61,0,0,1,1-4.55c-.44,2.52-1.08,4.73.1,5.83a11.21,11.21,0,0,1,.8-4.62c-.39,2.43-.72,4.79.06,6a12,12,0,0,1,.33-2.53,20.63,20.63,0,0,1,.52-2.09s-.25,1.7-.38,3.77a9.21,9.21,0,0,0,0,1A6.84,6.84,0,0,0,277,62.2a3.09,3.09,0,0,0,.37,1,32.35,32.35,0,0,1,.9-6.23s-.32,2.58-.53,6.52c0,.14,0,.28,0,.41-.25,5.67.51,7.48.75,8a3.33,3.33,0,0,1-.07-.83,6.18,6.18,0,0,1,0-1.27,8.83,8.83,0,0,1-.43-2.64c.05-.84.11-1.68.17-2.5s.14-1.47.22-2.16.14-1.24.23-1.89c.13-.91.31-1.82.47-2.73.13-.72.06-.09.05.09-.07.81-.22,2.59-.36,4.43-.1,1.37-.41,4.08-.34,5.39a6.58,6.58,0,0,0,.38,1.81,7.81,7.81,0,0,0,.54,3.93s.22-.79.4-1.78a.48.48,0,0,1-.22.2,7.15,7.15,0,0,1-.24-3.27,5.05,5.05,0,0,1-.28-1.56c0-1.63.25-3.25.45-4.86.08-.54.15-1.07.23-1.56.05-.32.09-.64.14-1,.07-.51.17-1,.28-1.53a1.55,1.55,0,0,1,.05-.23s0,.37-.06.86c-.17,2.18-.67,7.75-.67,8.19a5.37,5.37,0,0,0,.25,1.61,11.73,11.73,0,0,0,.07,2.61,5.6,5.6,0,0,0,.17-.92s.31-2.26.67-5.47c.05-.5.11-1,.16-1.49s.1-.94.14-1.43.12-1.14.17-1.72l.06-.74c.14-1.51.29-3.22.42-4.72,0,0,.2-2.45.24-3.19l-.12-.09s-.27,3-1.08,4.09a3.8,3.8,0,0,1-.46-1.71,5,5,0,0,1-.92,1.41,4.16,4.16,0,0,1-.22-1.59,2.28,2.28,0,0,1-.83.83,3.32,3.32,0,0,1-.31-1.67,2.7,2.7,0,0,1-.69.59c-.09-.23-.64-1.09.34-4.25-.39,2.92-.16,3.26-.08,3.5a2.2,2.2,0,0,0,.45-.3,18.4,18.4,0,0,1,.3-2.08c-.15,2.32,0,3,.22,3.5A3.8,3.8,0,0,0,279.35,52.26Zm-7.12,1a31.11,31.11,0,0,1,1.16-6.36C271.8,48.62,272,52.62,272.23,53.25Zm.3-6.55c.5-1.5.08-2.27-.21-2.42C272.31,45,272.49,45.3,272.53,46.7ZM273.81,48a11.46,11.46,0,0,0,.62-3.35A6.5,6.5,0,0,0,273.81,48Zm1.38-3a4.73,4.73,0,0,0,.05-1.68,6.61,6.61,0,0,0-.43,2.64A6.85,6.85,0,0,0,275.19,45Zm-3.64,11.33a.1.1,0,0,1,0-.07,0,0,0,0,0,0,0h0a.5.5,0,0,1,.2.09l.21.13a3.55,3.55,0,0,1-.18-1.1,5.37,5.37,0,0,0-.18-1.37l0-.06a2.29,2.29,0,0,1-.39.64,2.37,2.37,0,0,0-.54,1v.09l-.07-.06c.13.11-.32-.41-.33-.42a9.72,9.72,0,0,1-1.57,2.38h0a5,5,0,0,0-.63,2.28,9.78,9.78,0,0,0,0,2.44l.4-.44a6.68,6.68,0,0,1,0,.9,2.67,2.67,0,0,1-.16.67,1.56,1.56,0,0,0,1.4-.61l.11.29c.1.29.18.63-.05.81,0,0-.42.36-.37.69a.49.49,0,0,0,.22.33h0a.39.39,0,0,0,.24.33.59.59,0,0,1,0-.31.42.42,0,0,1,.35-.28.78.78,0,0,1,.19,0s.09.91.17,1.29a11.92,11.92,0,0,1,.21,1.23l0,.32c0,.31.22.34.38.37a2.54,2.54,0,0,0,.39,0h0c-.24.07-.22.16-.21.19a1.06,1.06,0,0,1,0,.61l0,0a.71.71,0,0,0,.32-.82v0l0,0c.27-.16.21-.7-.18-1.54-.19-.39-.26-1-.14-1.1h0c.06,0,.13,0,.32.27s.26.34.42.55a.9.9,0,0,1,.26.53.15.15,0,0,1-.05.12.21.21,0,0,1-.12,0,1,1,0,0,1-.25,0c.09.09.42.47.52.36.24-.29,0,.17.45.22a.48.48,0,0,0,.5-.52,1.36,1.36,0,0,0,0-.3,1.69,1.69,0,0,0-.42-.77l-.1-.1c-.73-.81-.67-1-.62-1.06s.13-.17.33-.17a3,3,0,0,1,.61,0c.29.05.78.13.76.29a.11.11,0,0,1-.07.08c-.11,0-.27.11-.3.06a.71.71,0,0,0,.28.2c.12,0,.62.2.78,0l0-.1c.09,0,.33,0,.38-.21s-.15-.37-.37-.48a11.3,11.3,0,0,0-1.08-.41c-.16,0-.37-.08-.52-.13l-.88-.23s-.48-.15-.66-.23l-.18-.09a1,1,0,0,1-.38-.32,3.83,3.83,0,0,1-.29-.88,1.77,1.77,0,0,0,.69.28,3.94,3.94,0,0,1,0-.79c.13-1.45.16-2.28.16-2.28l.29.3a9,9,0,0,0-.09-1.47h0A13.91,13.91,0,0,0,271.55,56.32Zm1,6.91.68.18.33.08a2.42,2.42,0,0,0,.16-1c0-.38.85.42,1.43,1,.24.25.28.14.14-.05a8.11,8.11,0,0,0-2-1.73c-.55-.34-.82-.26-.64,0A1.69,1.69,0,0,1,272.59,63.23Zm1,5.65c.65.81,1.68,2.33,2.07,2.74.84.89,1.21,1,1.86,1a12.23,12.23,0,0,0-1.42-2.76,24.34,24.34,0,0,0-2.29-3.16,1.17,1.17,0,0,1-.06.45,1,1,0,0,1,0,.1.85.85,0,0,1-.24.26.79.79,0,0,1-.5.13.69.69,0,0,1-.43-.2.52.52,0,0,1-.31-.08.85.85,0,0,1-.17.7,1.22,1.22,0,0,1-.33.86.22.22,0,0,0,0,.07c.22.38.12.57,0,.69s-1.11,1.24-1.34,1.45a.43.43,0,0,1-.57,0l-.16-.15-.48.48.06,0h0a4,4,0,0,0,1.15.71c.37.16,1.46.56,2.19.86-.17-.54-.37-1.15-.59-1.76.19.26.72,1.19,1.17,2h0a18.36,18.36,0,0,1,2,1c-.05-.21-.09-.35-.09-.35a10.7,10.7,0,0,1-.91-1.09A11.09,11.09,0,0,1,272.76,70c.85,1.28,1.07,1.64,1.4,2.09a4.84,4.84,0,0,0,2.65,2.07c-.16-.8-.44-1-.44-1A7.24,7.24,0,0,1,275.28,72c.13.19.26.36,0,0s-.14-.18,0,0A14.82,14.82,0,0,1,273.61,68.88Zm-2.92,7a16.67,16.67,0,0,0,5.66-.29,22.93,22.93,0,0,0-4.89-2.55,10.69,10.69,0,0,1-1.77-.85,9.22,9.22,0,0,1-.81-.65c-.89-.82-3.23-3.27-3.64-3.72l-1.56,1.43a57.42,57.42,0,0,0,5.16,4.59A30.76,30.76,0,0,0,274,75.46a20.34,20.34,0,0,1-5.13-1.11c-1.33-.54-5.55-4.7-5.55-4.7l-1,.95a30.37,30.37,0,0,0,3.49,3.34A9.29,9.29,0,0,0,270.69,75.92ZM266.22,75a2.79,2.79,0,0,0,.81,1.72,2.43,2.43,0,0,0,.36-1.07A6.6,6.6,0,0,1,266.22,75Zm-7-5.08a10.93,10.93,0,0,1-1.47,2.94,8.56,8.56,0,0,1-.92,1.08s0,.1-.06.26l-.11.06.61-.34.31-.15a14.23,14.23,0,0,1,1.3-.62c.44-.79,1-1.74,1.13-2a9,9,0,0,1-.62,1.77l.33-.13c.7-.28,1.31-.5,1.6-.64a3.74,3.74,0,0,0,.9-.54l.2-.18-.5-.5-.17.14a.41.41,0,0,1-.56,0c-.23-.2-1.26-1.34-1.35-1.45s-.22-.32,0-.69h0a1.22,1.22,0,0,1-.36-.89.85.85,0,0,1-.17-.7.5.5,0,0,1-.31.08.67.67,0,0,1-.43.2h-.06a.72.72,0,0,1-.46-.14.69.69,0,0,1-.25-.33s0,0,0,0a17.13,17.13,0,0,0-1.94,2.69,11.82,11.82,0,0,0-1.42,2.74c.65,0,1-.14,1.85-1,.4-.41,1.42-1.93,2.07-2.75a14.35,14.35,0,0,1-1.63,3,7.76,7.76,0,0,1-1.16,1.27s-.25.16-.4,1A4.78,4.78,0,0,0,257.78,72C258.12,71.55,258.34,71.2,259.18,69.92Zm-.59-4.27a1.76,1.76,0,0,0-.56,1.17c0,.34.22.53.5.52.44,0,.21-.51.46-.22.1.11.43-.27.52-.36-.19,0-.46.06-.42-.21a1.27,1.27,0,0,1,.31-.54c.12-.14.47-.81.71-.73s0,.71-.14,1.1c-.4.84-.46,1.38-.19,1.54l0,0v0a.71.71,0,0,0,.32.82l0,0a1,1,0,0,1,0-.61s0-.12-.22-.19h0a2.6,2.6,0,0,0,.39,0c.17,0,.35-.06.38-.37,0-.11,0-.21,0-.32A12.19,12.19,0,0,1,261,66c.08-.38.18-1.29.18-1.29a.65.65,0,0,1,.18,0,.41.41,0,0,1,.35.28.59.59,0,0,1,0,.31.41.41,0,0,0,.25-.33h0a.46.46,0,0,0,.22-.33c0-.33-.33-.66-.36-.69-.23-.18-.16-.52-.06-.81l.13-.34a1.68,1.68,0,0,0,.45.38,1.55,1.55,0,0,0,1.06.28,2.67,2.67,0,0,1-.16-.67,6.68,6.68,0,0,1,0-.9l.4.44a6.46,6.46,0,0,0,.08-2.31,8.59,8.59,0,0,0-.62-2.66,5.18,5.18,0,0,0-.35-.78.82.82,0,0,1-.32.45,6.19,6.19,0,0,1-1.07-1.81,1.83,1.83,0,0,1-.34.42l-.06.06,0-.09a2.26,2.26,0,0,0-.53-1,2.61,2.61,0,0,1-.4-.64,6.73,6.73,0,0,0-.19,1.4,3.53,3.53,0,0,1-.17,1.1l.21-.12c.1-.07.15-.1.19-.1h.05a.08.08,0,0,1,0,.08,14,14,0,0,0-.28,1.69,5.41,5.41,0,0,0,.05,1.38,4.32,4.32,0,0,1,.45-.25,6.45,6.45,0,0,0-.13,2.32,3.85,3.85,0,0,1,0,.79,1.77,1.77,0,0,0,.64-.25,3.78,3.78,0,0,1-.3.87,2.9,2.9,0,0,1-1.68.76,10.13,10.13,0,0,0-2,.65c-.21.11-.42.33-.37.48s.3.21.39.21l.05.1c.15.24.65.09.78,0a.73.73,0,0,0,.27-.2s-.19,0-.29-.06-.07-.06-.08-.08c0-.3,1.2-.34,1.38-.33s.26,0,.33.17S259.32,64.84,258.59,65.65Zm.36-3.92c.19-.3-.09-.39-.64,0a8.19,8.19,0,0,0-2,1.74c-.14.19-.09.29.15,0,.57-.58,1.43-1.37,1.42-1a2.72,2.72,0,0,0,.17,1,1.49,1.49,0,0,0,.25-.07l.75-.2A1.69,1.69,0,0,1,259,61.73ZM257.7,50.34a9.8,9.8,0,0,1,1.41,4.43c.58-1.51-.36-4.51-1.26-6.18a1.27,1.27,0,0,1-.25.83c-.17-1.92-1.37-3.31-1.58-4.65a3.8,3.8,0,0,1-.14.58,10.35,10.35,0,0,1-1.09-2.73,1.47,1.47,0,0,0-.21.79c-.6-1.66,0-2.33.15-2.43.45-.27,1,.16,1.41.62.64.71,1.3,2.11,3.42,2.15.35,0,.48-.08.3-.11h0c-1.76-.33-2.08-1-3.55-2.64-.91-1-1.82-1.57-2.9-.29A13.58,13.58,0,0,0,250.26,47a11.76,11.76,0,0,0-.1,4.06c.25-.09.27-.16.27-.16a12.89,12.89,0,0,0,.76,3.53,4.78,4.78,0,0,0,.34-1.71,5.24,5.24,0,0,0,.88,1.76,5.42,5.42,0,0,0,.1-2.13,3.8,3.8,0,0,0,1,1.6c.18-.45.36-1.18.22-3.5a18.4,18.4,0,0,1,.3,2.08,1.83,1.83,0,0,0,.45.29c.08-.23.31-.57-.08-3.49,1,3.16.43,4,.34,4.24A2.51,2.51,0,0,1,254,53a3.25,3.25,0,0,1-.31,1.66,2.25,2.25,0,0,1-.83-.82,4.07,4.07,0,0,1-.22,1.58,4.89,4.89,0,0,1-.92-1.4,3.8,3.8,0,0,1-.46,1.71c-.81-1.07-1.08-4.09-1.08-4.09l-.13.09c.05.74.14,1.88.25,3.17h0c.13,1.51.28,3.22.42,4.73.31,3.62.72,7.24,1.2,10.85a6.13,6.13,0,0,0,.16.91,11,11,0,0,0,.08-2.6,5.37,5.37,0,0,0,.25-1.61c0-.44-.51-6-.67-8.19,0-.27-.06-.86-.06-.86s0,.15.05.23c.17.82.3,1.66.42,2.49.08.49.15,1,.22,1.56a41.62,41.62,0,0,1,.46,4.86,5.42,5.42,0,0,1-.28,1.56,7.15,7.15,0,0,1-.24,3.27.48.48,0,0,1-.22-.2c.18,1,.4,1.77.4,1.77a7.79,7.79,0,0,0,.54-3.93,6.9,6.9,0,0,0,.38-1.8c0-.34-.05-1.41-.14-2.73-.17-2.37-.37-4.73-.56-7.09,0-.12,0-.4,0-.42s.05.21.08.33a58,58,0,0,1,1.09,9.28,8.83,8.83,0,0,1-.43,2.64,6.08,6.08,0,0,1,0,1.26,3.39,3.39,0,0,1-.07.84c.24-.54,1-2.36.74-8,0-.14,0-.27,0-.42-.2-3.94-.52-6.51-.52-6.51a32.35,32.35,0,0,1,.9,6.23s.05-.09.08-.14A7.65,7.65,0,0,0,255,60c-.13-2.07-.38-3.77-.37-3.76s0,.15,0,.17a16.58,16.58,0,0,1,.46,1.9,18.68,18.68,0,0,1,.31,2.23c0,.1,0,.21,0,.31h0c.78-1.18.45-3.53.06-6a11.21,11.21,0,0,1,.8,4.62c1.18-1.1.54-3.31.09-5.83a9.51,9.51,0,0,1,1,4.55c1-1.25.6-2.9-.25-6.13a11.36,11.36,0,0,1,1.28,4.15C259.05,54.74,258.33,52.3,257.7,50.34Zm10.63,7.15a3.51,3.51,0,0,0,.69-2.07c.1.12.28.23.33.46a11.15,11.15,0,0,0,1-3.26c.21.1,0,.05.26.17a10.55,10.55,0,0,0,.7-3.21c.08,0,.22,0,.28.09.11-.77.22-2,.26-2.87a10.39,10.39,0,0,0-.31-3.16,9.25,9.25,0,0,0-1-2.15.9.9,0,0,0-.27.21c-.14-.42-.53-1.45-.72-1.82-.48-.94-.71-1.55-1.22-1.87a5,5,0,0,0,.61.05,8.86,8.86,0,0,0-.82-.8c.12-.09.33-.08.68,0-.5-.45-.67-1.14-1.94-1.62a4.31,4.31,0,0,1,.7,0,2.14,2.14,0,0,0-1.18-.85c-1.31-.26-3.12-.3-4,.7a1.77,1.77,0,0,1-.49.19,1,1,0,0,0-.24.12c-.15.11-.18.26.1.66-.37-.06-.46-.41-.52-.37a1.07,1.07,0,0,0-.39.4,1.39,1.39,0,0,0-.2.73.25.25,0,0,0,.41-.19c0-.12.59-.17.79-.17s.55.06.91,0l-.68.2c-.16,0-.17.22,0,.23s.24-.05.4-.09,0,.22.06.33c1.05-.24,1.13.89,2.25.67-.53-.42-1-1.11-1.39-1.32,1.11.18,1.71,1.17,2.91,1.22l-.15-.32c.41,0,.7.32.82.31a1.67,1.67,0,0,1-.95.36c.08.15.53.18.68.21a1.1,1.1,0,0,1-1.06.22,5,5,0,0,1-1.2,1,2.21,2.21,0,0,1,0-.37c-.52.3-.86.84-1.24,1a7.39,7.39,0,0,0,.29-.69,17.44,17.44,0,0,0-3.13,3.28,6.5,6.5,0,0,0-.64,3.68c.05.9.44,3.45.51,4l.27-.13a21.85,21.85,0,0,0,1.8,5.36.8.8,0,0,1,.3-.4,2.46,2.46,0,0,0,.76,1.43,1.28,1.28,0,0,1,.17-.65c.11.36,0,1.49.69,2.11a3.31,3.31,0,0,1,.16-1,8.56,8.56,0,0,0,.31,1.18,2.28,2.28,0,0,0,.69,1,3.68,3.68,0,0,1,.14-1.2,3.37,3.37,0,0,1,.51,1.51c.66-.5.91-2.15.91-2.15a1.35,1.35,0,0,1,.33.62,4.43,4.43,0,0,0,.92-2A3.62,3.62,0,0,1,268.33,57.49Zm.66,8.75a7.26,7.26,0,0,0,1.3-.06c0-.09,0-.17-.05-.25s0-.12,0-.18h0a3.3,3.3,0,0,1-1.49.1c-.34-.07-.35-.08-.61-.15s-.62.32-.91.63-.59.65-.74.8a.06.06,0,0,0,0,.09l3.72,3.4c.05,0,.09,0,.15,0l.57-.58-3.26-3.08c-.05,0-.06-.11,0-.13l.19-.2a.1.1,0,0,1,.15,0c0,.05,1.05,1,1.05,1l1.39,1.23.87.77c.12-.13.11-.1.14-.14s.1-.24-.34-.66c-.13-.12-2.25-2.25-2.25-2.25C268.58,66.32,268.73,66.24,269,66.24Zm-5,.68L260.71,70l.57.59c.07.06.1.06.15,0l3.72-3.4a0,0,0,0,0,0-.08c-.15-.16-.48-.54-.73-.8s-.68-.71-.91-.64a4.72,4.72,0,0,1-.62.15,3.35,3.35,0,0,1-1.49-.09l-.07,0,0,.22a2.07,2.07,0,0,1,0,.22,6.92,6.92,0,0,0,1.35.06c.26,0,.42.08.2.33l-2.25,2.25c-.45.42-.48.53-.35.67l.14.14.87-.77,1.39-1.24s1-.93,1.05-1,.13,0,.15,0l.19.2A.13.13,0,0,1,264,66.92Zm.31-7.59a1.09,1.09,0,0,0-.12-.44,2.45,2.45,0,0,0-.38-.42.38.38,0,0,1-.1-.16,1.61,1.61,0,0,0,.07.53.64.64,0,0,0,.28.36A.83.83,0,0,0,264.29,59.33Zm0,6.17.28.28a9,9,0,0,0,.15-1.54A3.53,3.53,0,0,0,264.26,65.5Zm-1.3-.07a5.81,5.81,0,0,1,.6-.23l.12,0h0A10.48,10.48,0,0,1,264,64.1,8.85,8.85,0,0,0,263,65.43Zm2.39,1.18c0-.44,0-.91-.06-1.12a2.23,2.23,0,0,0-.29.76S265.32,66.58,265.35,66.61Zm.22-2.91a1,1,0,0,0-.5-.74A1.19,1.19,0,0,0,265.57,63.7Zm.33-.92v0a1,1,0,0,1,.3-.33,8.81,8.81,0,0,0,1.24-.89,1.78,1.78,0,0,0,.24-.57,1.57,1.57,0,0,1-.52.47,4.62,4.62,0,0,0-1.15.84.63.63,0,0,0-.1.28.56.56,0,0,0-.06-.21c-.22-.47-.88-.65-1.28-1.11-.25-.3-.26-.42-.26-.42a1.13,1.13,0,0,0,.17.71,4,4,0,0,0,.88.72A1.47,1.47,0,0,1,265.9,62.78Zm-.43-1.65c0-.72-.79-.8-1-1.52C264.41,60.62,265.11,60.63,265.47,61.13Zm.37,2.88a2.63,2.63,0,0,0,.33-.18,1.2,1.2,0,0,0,.47-.45.82.82,0,0,0,.08-.5,1,1,0,0,1-.31.43,4.13,4.13,0,0,0-.36.37A1.57,1.57,0,0,0,265.84,64Zm.69.43c.07.43.13,1.44.15,1.76h0l.36-.36A3.37,3.37,0,0,0,266.53,64.44Zm-.65,2.63s.26-.31.39-.44l0,0a4.5,4.5,0,0,0-.39-1.51C265.87,65.35,265.87,66.33,265.88,67.07Zm0,.3c0,.24,0,.43,0,.52l.25-.27S266,67.44,265.89,67.37Zm.17.86c.45.47,1.05,1.11,1.45,1.5l.42-.41-1.55-1.43C266.31,68,266.2,68.07,266.06,68.23Zm1.84,1.86,1,1,.43-.48-1-.94Zm.3-4.81a8.23,8.23,0,0,0-1-1.13,8.17,8.17,0,0,1,.41,1.13h0l.06,0a.45.45,0,0,1,.2,0,.63.63,0,0,1,.21,0Zm-.38-5.87a3,3,0,0,1-.62.73,2.39,2.39,0,0,0,.1-.5,3.58,3.58,0,0,1-.6.79,2,2,0,0,0-.55.91,2.44,2.44,0,0,1,.68-.5A2.29,2.29,0,0,0,267.82,59.41Zm-7.27-6.3a2.16,2.16,0,0,0,.94,1.66A5.46,5.46,0,0,0,260.55,53.11Zm11.71-10.37a1,1,0,0,0,.63-.14.76.76,0,0,0,.26-.25c1.35-2,3.84-5.08,5.71-7.55a15.11,15.11,0,0,0-10.71-3.92c-.34,0-.72.29-.3.84a2.57,2.57,0,0,1-1.91-.37,2.6,2.6,0,0,1-1.92.37c.42-.55,0-.82-.29-.84-1.44-.11-7.2.45-10.67,3.84l6,7.92a.69.69,0,0,0,.52.24h.09a1,1,0,0,0,.62-.39c.41-.45.62-.7,1-1.12.78-.8,1.52-1.41,1.65-1.53a1.14,1.14,0,0,0,.45-.81c0-.28-.25-.4-.39-.58a.67.67,0,0,1-.07.11,1.76,1.76,0,0,1-.28-.55l-.07.21s-.3-.71-.77-.65a1.73,1.73,0,0,1-1.1-.2s-.06.2-.05.45h0a1.25,1.25,0,0,1,.27-2,4.07,4.07,0,0,1,1-.56,1,1,0,0,0,.34-.29,2.47,2.47,0,0,1,1.12-.6,8.63,8.63,0,0,1,2.25-.18,4.51,4.51,0,0,1,1.36.29,5.31,5.31,0,0,1,1.5,1.28,13.13,13.13,0,0,1,1.07,2.13c.58,1.43.51,1.27.91,2.22a10.67,10.67,0,0,0,1.16,2.29A.67.67,0,0,0,272.26,42.74Zm6.89-8.31.39-.52a16.78,16.78,0,0,0-7.19-3.72,19.31,19.31,0,0,0-4.42-.44c-.8,0-1.31.32-1.31.81-.49-.09-.62-.71-.69-.82,0,.26-.28.76-.68.82,0-.49-.51-.8-1.3-.81a19.34,19.34,0,0,0-4.43.44,15.88,15.88,0,0,0-7.14,3.62l.38.51A14.81,14.81,0,0,1,258.65,31a18.71,18.71,0,0,1,5.16-.69c.93,0,1.06.57.95.86a1.51,1.51,0,0,1,2.35,0c-.11-.29,0-.82.95-.86a18.66,18.66,0,0,1,5.16.69A15.54,15.54,0,0,1,279.15,34.43Zm1-1.89a3.63,3.63,0,0,0,1,1.9l.26.17h0a5.78,5.78,0,0,1,.77-2.78h0a5.85,5.85,0,0,0,2.41,0c-1.23-.83-1-1.76-1.87-2.77a3.58,3.58,0,0,0-.34-.33,1.45,1.45,0,0,0-.74-.32.48.48,0,0,0-.42.19c-.12.13-1.4,1.5-2.25,2.45C279.77,31.05,280,31.74,280.19,32.54ZM281,28a12.94,12.94,0,0,0-3.85-2.5c-4.27-1.88-9.69-1.88-11.24-1.88h0c-1.55,0-7,0-11.24,1.88a12.94,12.94,0,0,0-3.85,2.5s1.93,2.17,2.43,2.75a.93.93,0,0,1,.2,1c3-2,6.34-3,12.35-3h.27c5.9.06,9.38,1.05,12.31,3a.93.93,0,0,1,.2-1C279.1,30.16,281,28,281,28Zm-30.41.63h0c-.12-.14-.43-.4-1.17.13-1.32,1.14-.9,2.18-2.26,3.1a6.62,6.62,0,0,0,1.21.12c.21,0,.4,0,.57,0l.64-.1h0a5.77,5.77,0,0,1,.77,2.77c1.59-.85.94-3.57,2.42-3.54Zm1,5.49c1.17,1.55,2,2.72,2.22,3a12,12,0,0,0,1.8,2,20.41,20.41,0,0,0-1.4-2.06l-2.42-3.24Zm5.78,10.55A11.42,11.42,0,0,0,258,48,6.48,6.48,0,0,0,257.43,44.66Zm-.81-1.28a4.73,4.73,0,0,0,.05,1.68,6.85,6.85,0,0,0,.38,1A6.8,6.8,0,0,0,256.62,43.38Zm3,9.94c.2-.63.43-4.64-1.16-6.36A31.11,31.11,0,0,1,259.63,53.32Zm-4.37,22.34a17.25,17.25,0,0,0,5.67.29,9.47,9.47,0,0,0,4.45-1.63l-1.08-1a7,7,0,0,1-1.53,1,20,20,0,0,1-5.12,1.12,30.73,30.73,0,0,0,5.12-1.58A9,9,0,0,0,264,73l-1.34-1.3a7.72,7.72,0,0,1-.7.55,9.86,9.86,0,0,1-1.76.85A23.16,23.16,0,0,0,255.26,75.66Zm9.06,0a6,6,0,0,0,.45,1.07,3.21,3.21,0,0,0,.92-1.91,4.21,4.21,0,0,1-.54.4C264.82,75.4,264.53,75.55,264.32,75.65ZM278.18,37c.16-.23,1-1.31,2.06-2.76A1.7,1.7,0,0,1,280,34c-.75,1-1.51,2-2.24,3A19.36,19.36,0,0,0,276.38,39,12,12,0,0,0,278.18,37Zm6.28-7.2c-.13.16-.39.52-.39.52a3.7,3.7,0,0,0,1.66,1.75C285.34,31.28,284.92,30.53,284.46,29.79Zm-.89-.53s.15.26.18.31L288,23.94a14.59,14.59,0,0,1-2.09,1.18,2.64,2.64,0,0,1-.46,1.7C285.37,26.9,284.64,27.85,283.57,29.26Zm-35.27-.84.33.44a14.53,14.53,0,0,1,6.51-4.62,1.29,1.29,0,0,1,.27-1.77h0a1.54,1.54,0,0,1,1.51,1.19,32.71,32.71,0,0,1,7.27-1,2.44,2.44,0,0,1,1.43-2.34.61.61,0,0,1,.31-.48h0a.58.58,0,0,1,.31.48,2.46,2.46,0,0,1,1.44,2.34,32.7,32.7,0,0,1,7.26,1,1.54,1.54,0,0,1,1.51-1.19h0a1.29,1.29,0,0,1,.27,1.77,14.71,14.71,0,0,1,6.58,4.68l.34-.45a15.39,15.39,0,0,0-6-4.41,1.7,1.7,0,0,0-.44-1.83.79.79,0,0,0-.36-.67h0a1,1,0,0,0-.77.31A2.15,2.15,0,0,0,274.38,23a33.4,33.4,0,0,0-6.11-.82A2.55,2.55,0,0,0,266.74,20a.81.81,0,0,0-1.61,0,2.53,2.53,0,0,0-1.52,2.23,33.52,33.52,0,0,0-6.12.82,2.15,2.15,0,0,0-1.68-1.15,1,1,0,0,0-.77-.31h0a.79.79,0,0,0-.37.67,1.72,1.72,0,0,0-.44,1.83A14.78,14.78,0,0,0,248.3,28.42Zm-.13,1a1.82,1.82,0,0,1,.19-.29c-1-1.31-1.68-2.19-1.75-2.27a2.62,2.62,0,0,1-.45-1.7A15,15,0,0,1,244.07,24Zm-2.07,2.62A4.19,4.19,0,0,0,247.31,31a6.43,6.43,0,0,0,.48-.79l-.42-.54C246.91,30.47,246.49,31.27,246.1,32.09Zm-3.47,16.13A37.12,37.12,0,0,0,248.17,52a33.69,33.69,0,0,1,4.17-15.87l-1.11-1.47a3,3,0,0,1-1.38.78,6.08,6.08,0,0,0-.68-3.06,11.78,11.78,0,0,1-3.09-.29C244,36.5,243,41.54,242.63,48.22ZM261.08,78.9l0-.06c.12-.31.64-1.56.91-2.19,0-.11-.07-.22-.11-.33q-.54.09-1.08.15c-.24,0-3.84.57-6.45-.65.31-.22.91-.71,1.72-1.23a.76.76,0,0,1,0-.16,3.14,3.14,0,0,1-1.69.39,3.89,3.89,0,0,1,.28-1.55,2.16,2.16,0,0,1-1.05,0,16.11,16.11,0,0,1,1.24-2.78,32,32,0,0,1,2.86-4,2,2,0,0,1,.51-.9l.15-.18-.31-.25a.77.77,0,0,1-.25.2,1.61,1.61,0,0,1-.65.19c-.33,0-.52,0-.64-.22l0,0a.63.63,0,0,1-.47-.4.3.3,0,0,1,0-.13.43.43,0,0,1-.48-.06c-.23-.2.09-1.21,1.19-2.25a7.31,7.31,0,0,1,2.17-1.45c.52-.23.82.21.57.52a1.59,1.59,0,0,0-.23,1.68c.32-.1.44-.16.49-.17a.87.87,0,0,0,.43-.31.38.38,0,0,0,.05-.11l-.46.05c.24-.58-.12-2,.11-2.9a1.81,1.81,0,0,1-.31.18,11.18,11.18,0,0,1-.08-2.8,1.83,1.83,0,0,0-.57-.79,8.93,8.93,0,0,1-1.46,2.39,6.91,6.91,0,0,0-2.17,3.67h0a4.88,4.88,0,0,1-.38,1,2.69,2.69,0,0,0-.33,1.15h0a33.57,33.57,0,0,1-.38,6.13,6.69,6.69,0,0,1-.84,2.23l-.08-.07a5.38,5.38,0,0,1-.95,2.07s-.49-1-1.39-8.48c-1-8.25-1.48-16.87-1.48-16.87h0a13.07,13.07,0,0,1,.68-4.61A16.16,16.16,0,0,1,253.21,40a1.83,1.83,0,0,1,1.69-.52c-.16-.22-.34-.46-.33-.46-.57-.75-1.22-1.57-1.78-2.31-4,7.1-3.93,15.57-3.93,15.63v.91l-.71-.38a34.05,34.05,0,0,1-5.57-3.74c-.05.86-.13,3.78-.13,3.78s0,.66,0,1.77c0,3.39.6,11.7,3.36,17.41a17,17,0,0,0,3.29,4.37A12.61,12.61,0,0,0,254,79.36l.42.14A8.72,8.72,0,0,0,261.08,78.9Zm-.16,2.36a1.76,1.76,0,0,1,1.9-.27,36,36,0,0,1,.42-3.8,2,2,0,0,1-.63.47s-.1,0-.16-.13C261.81,79.07,260.93,81.23,260.92,81.26Zm8,.73a39.91,39.91,0,0,0-.64-5.48.57.57,0,0,1-.08-.13c-.05-.07-.11-.14-.16-.22a6.38,6.38,0,0,1-.36,1,2.58,2.58,0,0,1-.51.8,3.67,3.67,0,0,1-1.29-1.59,3.79,3.79,0,0,1-1.28,1.57,2.63,2.63,0,0,1-.52-.81c-.08-.18-.15-.36-.21-.53a42.8,42.8,0,0,0-.57,5.39c-1.57-1-2.52,0-2.19.72a1,1,0,0,0,.1.17,1,1,0,0,0,.78.41,4.92,4.92,0,0,1,1.93.44,6.16,6.16,0,0,1,2.19,1.8,6.25,6.25,0,0,1,2.19-1.8,4.92,4.92,0,0,1,1.93-.44,1.07,1.07,0,0,0,.78-.41,1,1,0,0,0,.1-.17C271.46,82,270.51,81,268.94,82Zm2.4-.73-1.53-3.93c-.14.19-.28.34-.31.33a1.94,1.94,0,0,1-.52-.37,30.88,30.88,0,0,1,.46,3.7A1.76,1.76,0,0,1,271.34,81.26ZM289.4,53c0-1.14-.08-3-.12-3.85a34.25,34.25,0,0,1-5.42,3.65l-.87.47v-.62a34.14,34.14,0,0,0-3.87-15.82c-.26.35-1.13,1.45-2,2.58a1.82,1.82,0,0,1,1.54.55,15.78,15.78,0,0,1,3,4.92,12.85,12.85,0,0,1,.69,4.61h0s-.5,8.61-1.49,16.86c-.89,7.5-1.38,8.48-1.38,8.48a5.38,5.38,0,0,1-.95-2.07l-.08.07a6.69,6.69,0,0,1-.84-2.23,33.57,33.57,0,0,1-.38-6.13h0a2.71,2.71,0,0,0-.33-1.16,4.4,4.4,0,0,1-.38-1.05h0a6.91,6.91,0,0,0-2.17-3.67,10.94,10.94,0,0,1-1.53-2.5l-.05,0a2.17,2.17,0,0,0-.69,1,8.93,8.93,0,0,1,.06,3,2,2,0,0,1-.28-.23c.09.89-.33,1.92-.07,2.74l-.52-.07.05.13a.87.87,0,0,0,.27.23l.17.08.54.19a1.6,1.6,0,0,0-.23-1.68c-.25-.3.06-.75.57-.52a7.38,7.38,0,0,1,2.17,1.45c1.1,1,1.42,2,1.19,2.25s-.32.12-.53,0c0,0,0,.08,0,.12a.63.63,0,0,1-.48.4l0,0c-.12.17-.31.23-.64.22a1.61,1.61,0,0,1-.64-.19.78.78,0,0,1-.22-.16l-.2.16A46.72,46.72,0,0,1,277,70.53a15.65,15.65,0,0,1,1.25,2.79,2.27,2.27,0,0,1-1.05,0,3.92,3.92,0,0,1,.28,1.55,3.14,3.14,0,0,1-1.69-.39,2.5,2.5,0,0,1,.05.29c.54.39,1.13.83,1.4,1-2.62,1.23-6.4.67-6.47.66l-.49-.07c0,.07-.06.15-.09.24.25.6.85,2,1,2.29a8.72,8.72,0,0,0,5.58.87,7.53,7.53,0,0,0,1.42-.39,14.65,14.65,0,0,0,4.49-2.89A17.26,17.26,0,0,0,286,72.18c2.89-5.64,3.37-14,3.37-17.4Z"/><rect class="cls-5" width="308.85" height="105.57"/></g></g></svg>