<svg id="Layer_1" class="emirates-svg" data-name="Layer 1" xmlns="http://www.w3.org/2000/svg" viewBox="0 0 305 108"><defs><style>.emirates-svg .cls-1{fill:#ec1c24;} .emirates-svg .cls-2{fill:#009148;}</style></defs><path d="M161.2,42.11l-2.48,2.19a2.86,2.86,0,0,0-1,2.14V65.9h3.44Z"/><path d="M150.17,60.29a2.2,2.2,0,0,1-2.2,2.19H126.34a2.19,2.19,0,0,1-2.19-2.19V53.78H120.7v6.51a5.65,5.65,0,0,0,5.64,5.64H148a5.65,5.65,0,0,0,5.64-5.64V53.78h-3.44Z"/><path d="M275.37,71a2.64,2.64,0,0,0,.15.89h-3.64v1.87h7.94V71.84h-1.68a.9.9,0,1,1,0-1.79h1.68V68.18h-1.68A2.77,2.77,0,0,0,275.37,71"/><path d="M299.35,46.44V66h3.45V42.11l-2.48,2.19a2.83,2.83,0,0,0-1,2.14"/><path d="M292.14,60.26A2.19,2.19,0,0,1,290,62.45H279.82V47.51l-2.48,2.19a2.83,2.83,0,0,0-1,2.14V62.45h-9.76l2,2.41a2.86,2.86,0,0,0,2.2,1H290a5.65,5.65,0,0,0,5.64-5.64V42.11l-2.48,2.19a2.83,2.83,0,0,0-1,2.14V60.26Z"/><path d="M168.91,68.09a2.19,2.19,0,0,1-2.2,2.19H158.1l2,2.41a2.84,2.84,0,0,0,2.2,1h4.42a5.65,5.65,0,0,0,5.64-5.64V52.45l-2.49,2.19a2.86,2.86,0,0,0-1,2.14V68.09Z"/><path d="M259.05,55.09a5.64,5.64,0,0,0-5.64,5.69,2.18,2.18,0,0,1-2.2,2.15H181.49a2.19,2.19,0,0,1-2.19-2.2V42.11l-2.48,2.19a2.87,2.87,0,0,0-1,2.14V60.73a5.64,5.64,0,0,0,5.64,5.64h69.72a5.6,5.6,0,0,0,3.92-1.59,5.64,5.64,0,1,0,3.92-9.69m0,7.84a2.2,2.2,0,1,1,2.19-2.2,2.21,2.21,0,0,1-2.19,2.2"/><polygon points="149.67 93.6 140.07 93.6 140.07 85.33 136.56 85.33 136.56 105.8 140.07 105.8 140.07 96.94 149.67 96.94 149.67 105.8 153.18 105.8 153.18 85.33 149.67 85.33 149.67 93.6"/><path d="M160.72,96.82h7.55v-3.1h-7.55V88.51h8.2V85.32H155.24l1.88,2.28.09.1v18.1H169v-3.19h-8.25Z"/><path d="M182.38,96.82h7.54v-3.1h-7.54V88.51h8.19V85.32H176.89l1.88,2.28.09.1v18.1h11.77v-3.19h-8.25V96.82Z"/><rect x="218.97" y="85.32" width="3.51" height="20.48"/><path d="M251.26,85.32h-4l1.65,2-7.49,18.4-6-8.31a5.91,5.91,0,0,0,4.62-5.85c0-4-2.89-6.23-7-6.23h-8.3l1.88,2.27v18.2h3.49V97.7h1.58l5.64,8.1H245l2-5.18h8.25l2.08,5.18h3.69l-8.34-20.47h-1.49Zm-21.08,9.42V88.48h2.92c2.08,0,3.51,1.12,3.51,3.1s-1.43,3.16-3.51,3.16Zm18,2.81,3-7.6,3,7.6Z"/><path d="M278.71,96.82h7.55v-3.1h-7.55V88.51h8.19V85.32H273.22l1.88,2.28a.94.94,0,0,1,.1.1v18.1H287v-3.19h-8.25V96.82Z"/><path d="M292.87,90.77c0-1.76,2.1-2.55,3.65-2.55a10.22,10.22,0,0,1,6.26,2.4V86.7a12,12,0,0,0-6.31-1.76c-3.75,0-7.14,2.17-7.14,6.09-.12,7.4,10.73,4.47,10.67,9,0,2-2.16,2.84-3.92,2.84a10.62,10.62,0,0,1-6.58-2.61v4.1a12.64,12.64,0,0,0,6.64,1.81c3.78,0,7.43-2.22,7.43-6.34,0-7.29-10.7-4.69-10.7-9"/><path d="M258.47,85.32h-1.78l1.88,2.28a2.71,2.71,0,0,0,2.07,1h3.15V105.8h3.54V88.57h4.78V85.32H258.47Z"/><path d="M121.76,85.9H120l1.89,2.28a2.71,2.71,0,0,0,2.07,1h3.15v17.23h3.54V89.15h5.31V85.9H121.76Z"/><polygon points="204.43 95.77 197.56 85.33 193.93 85.33 193.93 105.8 197.35 105.8 197.35 90.85 204.34 101.4 211.37 90.77 211.37 105.8 214.76 105.8 214.76 85.33 211.22 85.33 204.43 95.77"/><path d="M132.82,53.3l2,2,2-2a1.2,1.2,0,0,0,0-1.68l-2-2-2,2a1.2,1.2,0,0,0,0,1.68"/><path d="M140.81,53.3l2,2,2-2a1.18,1.18,0,0,0,0-1.68l-2-2-2,2a1.18,1.18,0,0,0,0,1.68"/><path class="cls-1" d="M1.51,66.88l3,17.53,6.82-5.8a5.7,5.7,0,0,0,1.92-5.33l-3.1-17.46L3.43,61.57a5.71,5.71,0,0,0-1.92,5.31"/><path class="cls-1" d="M20.67,61.45l6.76-5.76,5.44,31.37A5.72,5.72,0,0,1,31,92.37l-6.76,5.75L18.75,66.75a5.7,5.7,0,0,1,1.92-5.3"/><path class="cls-1" d="M39,61.69l6.76-5.75L51.23,87.4a5.68,5.68,0,0,1-1.92,5.31l-6.75,5.75L37.1,67A5.72,5.72,0,0,1,39,61.69"/><path d="M102.8,7.37l6.75-5.75L115,33.08a5.7,5.7,0,0,1-1.92,5.3l-6.76,5.75-5.45-31.45a5.66,5.66,0,0,1,1.92-5.31"/><path class="cls-2" d="M72.13,41.46l6.76-5.75,10.24,59.1a5.7,5.7,0,0,1-1.92,5.3l-6.76,5.76L70.22,46.77a5.69,5.69,0,0,1,1.91-5.31"/><path d="M86.87,21l6.75-5.75,9.06,52.19a5.71,5.71,0,0,1-1.92,5.31L94,78.46l-9-52.2A5.65,5.65,0,0,1,86.87,21"/><path class="cls-2" d="M57.37,62l6.76-5.75,6.66,38.36a5.7,5.7,0,0,1-1.92,5.3l-6.76,5.78L55.46,67.29A5.69,5.69,0,0,1,57.37,62"/></svg>