<svg xmlns="http://www.w3.org/2000/svg" viewBox="0 0 201.19 283.34"><defs><style>.cls-1{fill:#fff;}.cls-2{fill:#ea0029;}.cls-3{fill:#231f20;}.cls-4{fill:#0a0203;}</style></defs><g id="Layer_2" data-name="Layer 2"><g id="Layer_1-2" data-name="Layer 1"><path class="cls-1" d="M201.07,141.19c.5-53.32-11.22-83.17-21.37-97.82,3.46-4.58,5.6-7.38,5.75-7.53a10.36,10.36,0,0,1,6.41-3.15,116,116,0,0,1,3.62-15.38,86.31,86.31,0,0,1-13.59,7.9c.5,3.54-.41,5.7-1.31,7-.13.19-1.76,2.37-4.46,5.94a63.48,63.48,0,0,0-17.22-14.3c-1.82-1-3.77-2-5.86-3a10,10,0,0,0-2.74-7.49A5.47,5.47,0,0,0,147.15,9h0a6.9,6.9,0,0,0-5.63,1.56,12.72,12.72,0,0,0-7.58,4.13,146.4,146.4,0,0,0-21.39-2.8,12.52,12.52,0,0,0-6.67-8.36A7,7,0,0,0,100.65,0h0A7,7,0,0,0,95.4,3.55a12.51,12.51,0,0,0-6.66,8.36,146.36,146.36,0,0,0-21.4,2.8,12.69,12.69,0,0,0-7.58-4.13A6.89,6.89,0,0,0,54.13,9h0A5.44,5.44,0,0,0,51,13.37a10,10,0,0,0-2.74,7.49c-2.1.95-4,1.95-5.86,3C34.8,28.21,30,32.31,25.49,37.94c-2.45-3.24-3.93-5.2-4-5.38-.9-1.29-1.81-3.45-1.31-7a86.85,86.85,0,0,1-13.59-7.9,114.72,114.72,0,0,1,3.63,15.39,10.34,10.34,0,0,1,6.41,3.14c.13.13,2,2.59,5.08,6.65C11.46,57.4-.44,87.5.07,141.17c.06,5-2.07,51.44,13.08,82.78a74.35,74.35,0,0,0,14.54,19.38,55.41,55.41,0,0,0,24.15,13.45l1.12.3c11.39,3.09,21.19,1.32,25.14-1l-.58,1.42c-.16.36-.38,1-.5,1.26-2.13,5.77-.7,11.74,7.09,12.63a20.07,20.07,0,0,1,7,1.58,21.5,21.5,0,0,1,6.31,4.72,28,28,0,0,1,4,5.61h0a28,28,0,0,1,4-5.61,21.76,21.76,0,0,1,6.31-4.72,20.17,20.17,0,0,1,7.05-1.58c7.79-.89,9.24-6.85,7.1-12.6-.12-.33-.36-.94-.52-1.31s-.58-1.4-.58-1.4c5.41,3.14,22,5.56,37.94-4.55,10.9-6.92,18.88-14.77,25.28-27.37C203.16,192.86,201.13,145.45,201.07,141.19Zm-70.37-43a3,3,0,0,1-1.11,1,4.55,4.55,0,0,1-2.6.61,2.85,2.85,0,0,1-2.51-1.28c-1.82-2.53-3-5-4.84-9.53-1.66-3.94-1.37-3.3-3.8-9.24-1.16-2.83-3.22-7.3-4.43-8.88a21.55,21.55,0,0,0-6.28-5.31,18.3,18.3,0,0,0-5.65-1.21,34.5,34.5,0,0,0-9.35.76c-1.28.34-3.53,1.11-4.66,2.48a4.42,4.42,0,0,1-1.41,1.21,16.37,16.37,0,0,0-4.24,2.32c-3.51,2.57-3,6.58-1.13,8.13l.1,0c-.06-1,0-1.93.22-1.88a7.33,7.33,0,0,0,4.59.85c1.94-.26,3.17,2.69,3.17,2.69l.31-.86a7.46,7.46,0,0,0,1.15,2.28,2.85,2.85,0,0,0,.3-.43c.58.72,1.53,1.2,1.61,2.4a4.66,4.66,0,0,1-1.86,3.37c-.52.48-3.61,3-6.89,6.38-1.7,1.72-2.56,2.78-4.27,4.66a4.05,4.05,0,0,1-2.57,1.6h-.39a2.89,2.89,0,0,1-2.16-1C71.66,99,55,77,47,66.43,61.48,52.31,85.45,50,91.44,50.42c1.4.1,3,1.21,1.22,3.51,1.29.58,6.15.15,8-1.56,1.82,1.71,6.68,2.14,8,1.56-1.76-2.3-.18-3.41,1.23-3.51,5.93-.43,28.71.64,44.64,16.35C146.69,77.05,136.29,90.09,130.7,98.2Z"/><path class="cls-2" d="M197.85,126.59c-4.46,3.61-8.69,7.25-22.56,15.23l-3.62,2,0-2.6c0-.29,1-35.52-16.12-65.88-1.08,1.44-4.69,6-8.38,10.73a7.59,7.59,0,0,1,6.4,2.29c3.55,3.47,9.33,11.84,12.68,20.5a54.75,54.75,0,0,1,2.87,19.2h0s-2.07,35.87-6.17,70.24c-3.73,31.21-5.78,35.31-5.78,35.31-2.39-2.88-3.37-6.54-3.94-8.62l-.34.29a27.09,27.09,0,0,1-3.48-9.26c-1.49-7-1.75-19.51-1.59-25.57l0,0a10.91,10.91,0,0,0-1.37-4.8,21.67,21.67,0,0,1-1.59-4.38l0-.06c-2.24-9.59-6.63-12.3-9.05-15.28a45,45,0,0,1-6.34-10.41l-.23.19c-1.61,1.53-2.8,3.08-2.85,4,.55,5.6,1.06,9.59.22,12.44a13.47,13.47,0,0,1-1.17-.95c.38,3.71-1.38,8-.27,11.4l-2.18-.29a2.5,2.5,0,0,0,.23.54,3.2,3.2,0,0,0,1.12.95l.71.34c.2.08.74.3,2.26.79a6.62,6.62,0,0,0-1-7c-1-1.27.22-3.13,2.38-2.17a30.61,30.61,0,0,1,9,6c4.58,4.35,5.92,8.55,4.94,9.37-.74.64-1.32.51-2.22.19a2,2,0,0,1-.07.49,2.6,2.6,0,0,1-2,1.7l-.09.17c-.49.69-1.28.94-2.67.91a7,7,0,0,1-2.67-.8,3.85,3.85,0,0,1-.91-.66c-.26.2-.53.43-.81.66,3.62,4.88,10.57,12.94,15.52,21.79a67.58,67.58,0,0,1,5.2,11.6,9.08,9.08,0,0,1-4.38,0,16.16,16.16,0,0,1,1.17,6.46,13.06,13.06,0,0,1-7-1.64l.21,1.24c2.22,1.6,4.72,3.44,5.81,4.21-10.88,5.1-26.64,2.76-26.95,2.72-.75-.09-1.42-.2-2-.29-.09.28-.23.63-.38,1,1.06,2.53,3.53,8.4,4.09,9.57,6.9,3.17,13.34,5.23,23.24,3.59a31.17,31.17,0,0,0,5.91-1.59c4.33-1.45,12.46-6.21,18.68-12.07a72.26,72.26,0,0,0,14-18c12-23.51,14-58.39,14-72.49,0-4.62,0-7.11,0-7.32C198.29,137.91,198,130.17,197.85,126.59Z"/><path class="cls-2" d="M80.51,250.19c.47-1.29,2.65-6.5,3.77-9.14-.16-.46-.31-.92-.43-1.38-1.5.25-3,.48-4.53.63-1,.1-16,2.4-26.87-2.7,1.33-.93,3.8-3,7.17-5.13,0-.23.08-.45.12-.67a13.09,13.09,0,0,1-7,1.63A16.16,16.16,0,0,1,53.87,227a9.1,9.1,0,0,1-4.38-.05,67.85,67.85,0,0,1,5.2-11.61,130.82,130.82,0,0,1,11.89-16.82,8.9,8.9,0,0,1,2.11-3.76l.65-.71c-.45-.39-.88-.75-1.28-1.06a3.67,3.67,0,0,1-1.07.83,7.51,7.51,0,0,1-2.69.8c-1.38,0-2.17-.23-2.66-.91l-.09-.17a2.59,2.59,0,0,1-2-1.69,1.57,1.57,0,0,1-.08-.52,1.75,1.75,0,0,1-2-.27c-1-.83.37-5,4.95-9.38a30.71,30.71,0,0,1,9-6c2.16-1,3.43.9,2.38,2.17a6.65,6.65,0,0,0-1,7c1.31-.44,1.83-.65,2-.73a3.53,3.53,0,0,0,1.81-1.27,2.88,2.88,0,0,0,.22-.48l-1.91.23c1-2.41-.53-8.29.46-12.1a7,7,0,0,1-1.31.75,47.92,47.92,0,0,1-.33-11.66c0-.7-1-1.91-2.37-3.27a38.13,38.13,0,0,1-6.08,9.94c-2.42,3-6.81,5.68-9.05,15.28l0,.06a21.59,21.59,0,0,1-1.59,4.37,11.06,11.06,0,0,0-1.38,4.81v0c.16,6.05-.1,18.57-1.59,25.56a27.21,27.21,0,0,1-3.48,9.27l-.34-.3c-.56,2.09-1.55,5.75-3.94,8.62,0,0-2.05-4.09-5.78-35.31-4.1-34.36-6.17-70.23-6.17-70.23h0A54.52,54.52,0,0,1,35,109.11c3.34-8.66,9.12-17,12.67-20.5a7.56,7.56,0,0,1,7.06-2.2l-1.41-1.89c-2.36-3.13-5.08-6.57-7.41-9.66C29.09,104.43,29.5,139.71,29.5,140l0,3.77-2.94-1.57c-13.21-7.49-18.93-12-23.23-15.59-.18,3.58-.54,15.73-.54,15.73,0,.21,0,2.77,0,7.39,0,14.1,2.53,48.71,14,72.5A70.64,70.64,0,0,0,30.5,240.42a53,53,0,0,0,20.38,11.93l1.77.58a36.32,36.32,0,0,0,27.76-2.49Z"/><path class="cls-2" d="M87.65,259.13a152.87,152.87,0,0,1,1.77-15.81,9,9,0,0,1-2.62,2c-.18,0-.44-.23-.7-.57-2.63,6.42-6.31,15.45-6.34,15.53A7.36,7.36,0,0,1,87.65,259.13Z"/><path class="cls-2" d="M113.16,263.29c.2-4.37-1.57-16.11-2.66-22.79l-.36-.55c-.22-.28-.43-.59-.64-.92a30.85,30.85,0,0,1-1.5,4.16c-.75,1.64-1.93,3.37-2.16,3.34a15.57,15.57,0,0,1-5.36-6.61,15.6,15.6,0,0,1-5.32,6.5c-.22,0-1.4-1.7-2.16-3.35-.34-.74-.62-1.49-.88-2.23-1,7-2.58,18.29-2.39,22.45-6.51-4.3-10.47,0-9.12,3A5.58,5.58,0,0,0,81,267a4.23,4.23,0,0,0,3.24,1.71,21,21,0,0,1,8,1.83,25.82,25.82,0,0,1,9.14,7.52,25.65,25.65,0,0,1,9.14-7.52,20.93,20.93,0,0,1,8-1.83,4.54,4.54,0,0,0,3.23-1.71,4.23,4.23,0,0,0,.44-.71C123.64,263.28,119.68,259,113.16,263.29Z"/><path class="cls-2" d="M115.47,245.28a8.9,8.9,0,0,1-2.17-1.56,124.17,124.17,0,0,1,2,15.41,7.36,7.36,0,0,1,7.89,1.11c0-.08-4-10.21-6.38-16.36A4.9,4.9,0,0,1,115.47,245.28Z"/><path class="cls-3" d="M90.74,115.06h0"/><path class="cls-3" d="M87.14,116.62h0"/><path class="cls-4" d="M143.91,135.61s-1.45-3.31,1.9-13.3c-4.89,10.17-4.23,12.93-3.15,16.39,2.09-1.47,2.93-2.46,3.38-4.79A5.48,5.48,0,0,1,143.91,135.61Z"/><path class="cls-4" d="M140.66,127s-1.17-2.25,1.82-10.94c-5.48,8.26-3.08,14-3.08,14a7.44,7.44,0,0,0,3.62-4.54A5.08,5.08,0,0,1,140.66,127Z"/><path class="cls-4" d="M160.26,112.18c-.9,8.75-1.61,10.54-2.54,12.07a6.22,6.22,0,0,1-1.42-2.33,6.37,6.37,0,0,0,1.46,5.3C159.59,124.94,160.87,120.09,160.26,112.18Z"/><path class="cls-4" d="M158.53,106.32c-1.39,9.8-2.94,12-4,13.7-.79-.6-1.52-3-1.52-3-.37,1.77-.07,4.51,1.39,6C156.51,120.53,158.86,115.23,158.53,106.32Z"/><path class="cls-4" d="M151.17,115.8a14.38,14.38,0,0,1-.71-5.29c-1.32,3.81-.92,7,.44,8.57,2.26-2.33,5.52-9.63,5.09-16.4C154.65,110.79,152.35,114.21,151.17,115.8Z"/><path class="cls-4" d="M147.65,110.22a27.16,27.16,0,0,1-.3-6.87c-1.69,3.68-1.48,8.72-.28,10.43,2.49-2.14,5.91-8.45,6.14-15.23C151.08,106.52,149,108.74,147.65,110.22Z"/><path class="cls-4" d="M159.58,126.78a4.11,4.11,0,0,0,1.64,3.3s2.85-4.08,1.74-11.16c-.59,6.6-2.05,8.87-2.05,8.87S159.77,127.25,159.58,126.78Z"/><path class="cls-4" d="M162.9,129.8a3.62,3.62,0,0,0,1.56,2.85s2.37-3.67,1.15-9.87c-.3,5.83-1.68,8-1.68,8A3.67,3.67,0,0,1,162.9,129.8Z"/><path class="cls-4" d="M43.5,124.53c-.93-1.52-1.64-3.32-2.54-12.07-.61,7.92.68,12.77,2.5,15.05a6.4,6.4,0,0,0,1.46-5.31A6.15,6.15,0,0,1,43.5,124.53Z"/><path class="cls-4" d="M46.72,120.31c-1.09-1.67-2.64-3.91-4-13.7-.33,8.91,2,14.21,4.16,16.69,1.46-1.49,1.77-4.23,1.39-6C48.24,117.29,47.51,119.7,46.72,120.31Z"/><path class="cls-4" d="M50.05,116.08c-1.18-1.58-3.48-5-4.82-13.11-.44,6.77,2.83,14.06,5.1,16.4,1.36-1.6,1.75-4.76.43-8.58A14.38,14.38,0,0,1,50.05,116.08Z"/><path class="cls-4" d="M53.57,110.51C52.23,109,50.14,106.8,48,98.83c.24,6.79,3.65,13.1,6.13,15.23,1.2-1.71,1.42-6.74-.27-10.43A27.24,27.24,0,0,1,53.57,110.51Z"/><path class="cls-4" d="M40.32,128.08s-1.47-2.28-2.06-8.88C37.15,126.28,40,130.36,40,130.36a4.08,4.08,0,0,0,1.64-3.3C41.45,127.54,40.32,128.08,40.32,128.08Z"/><path class="cls-4" d="M37.29,131.05s-1.39-2.16-1.67-8c-1.23,6.2,1.14,9.88,1.14,9.88a3.64,3.64,0,0,0,1.56-2.86C38.14,130.5,37.29,131.05,37.29,131.05Z"/><path class="cls-4" d="M57.31,135.89a5.34,5.34,0,0,1-2.13-1.69c.46,2.32,1.29,3.31,3.38,4.79,1.08-3.47,1.73-6.22-3.15-16.39C58.76,132.58,57.31,135.89,57.31,135.89Z"/><path class="cls-4" d="M60.57,127.23a5,5,0,0,1-2.37-1.46,7.48,7.48,0,0,0,3.61,4.55s2.41-5.76-3.07-14C61.73,125,60.57,127.23,60.57,127.23Z"/><path class="cls-4" d="M85.13,169.4c.55-4.52-1.89-8.41-2.29-10.26a4.1,4.1,0,0,0-.51,2c-1.63-1.71-2-4.74-2.36-5.77-.37,3.08-1.46,4.61-1.84,6.1a4.15,4.15,0,0,0,2-.71C80.91,164.53,84,165.37,85.13,169.4Z"/><path class="cls-4" d="M117.89,161.45a4,4,0,0,0-.52-2c-.39,1.85-2.84,5.74-2.28,10.26,1.1-4,4.22-4.87,5-8.61a4.15,4.15,0,0,0,2,.71c-.38-1.49-1.48-3-1.84-6.11C119.91,156.71,119.51,159.74,117.89,161.45Z"/><path class="cls-4" d="M93.66,157c-.47-1.52-1.29-6.63-3.24-8.84C89.63,151.87,92.06,155.42,93.66,157Z"/><path class="cls-4" d="M106,162c.88-2.1,2.73-4.14,2.66-10.85C106.68,153.11,105.83,159.4,106,162Z"/><path class="cls-4" d="M102.08,164.55c1-2.7,1-6.07-.18-7.53C101,159.91,101,162.48,102.08,164.55Z"/><path class="cls-4" d="M99.05,156.48c1-3.09.79-6.84-.54-8.47C97.64,151.15,97.69,154.05,99.05,156.48Z"/><path class="cls-4" d="M120.6,129c-1.86,2.52-2.39,8.2-3,10.11C118.3,138.48,121.71,130.4,120.6,129Z"/><path class="cls-4" d="M120.75,119.83c0-.09,3.1-5.45,1.34-8.43C120.05,111.85,120.81,119.86,120.75,119.83Z"/><path class="cls-4" d="M111.83,133c0-.05,4.84-4.66,4.67-10.48a10.35,10.35,0,0,1-4.68,5.56,7.17,7.17,0,0,1-2.65-3.68C108.52,130.26,111.87,133,111.83,133Z"/><path class="cls-4" d="M121.34,126.31c1.3-2,3.09-5,1.62-6.93A53.74,53.74,0,0,0,121.34,126.31Z"/><path class="cls-4" d="M106.26,149.12c.84-2,3-5.57,2.54-9.77C107,140.94,106.09,146.62,106.26,149.12Z"/><path class="cls-4" d="M113.24,142.91c2.87-3.53,4.37-7.61,3.13-11.79C113.81,135.12,113.75,139.18,113.24,142.91Z"/><path class="cls-4" d="M107,130.52a14.57,14.57,0,0,1-4.14,6.79,12.89,12.89,0,0,1-3-4.21,8.84,8.84,0,0,0,3.74,8.44A14.07,14.07,0,0,0,107,130.52Z"/><path class="cls-4" d="M94.49,142.42A14.67,14.67,0,0,1,90.2,138c.44,2.65,4.07,7.87,5.81,8.94.57-1,2.69-5.17.83-11.88A23.91,23.91,0,0,1,94.49,142.42Z"/><path class="cls-4" d="M77.58,110.46c-.36-2.32,2.51-4.46,1.52-8.19A7.36,7.36,0,0,0,77.58,110.46Z"/><path class="cls-4" d="M83.39,138a23.23,23.23,0,0,0,4.16,5.26c-2-3.06-3.63-8.72-5.62-10.25C81.75,133.86,82.46,136.46,83.39,138Z"/><path class="cls-4" d="M82,125.38c-1.1,4.71,3.6,9.24,3.64,9.31S85.63,129.1,82,125.38Z"/><path class="cls-4" d="M85.32,116.51a30.48,30.48,0,0,1-.51,6c-1.33-.33-2-1.23-2.94-2.07.8,2.67,4.1,5.76,4.63,6.53C87,123.38,87.11,119,85.32,116.51Z"/><path class="cls-4" d="M83.25,104.31c1.31-4.72,4-7.41,4.88-10.15C83.39,97.5,82.41,102.66,83.25,104.31Z"/><path class="cls-4" d="M79.19,125c-.63-4-.38-6.7-2.34-10.23C76.22,119,78.75,124.41,79.19,125Z"/><path class="cls-4" d="M91,109.42c-3.19,4,1.72,8.92,1.7,9S93.09,110.89,91,109.42Z"/><path class="cls-4" d="M93.34,98.59c-4.72,3.56-2.47,6.87-1.63,8.7A31.47,31.47,0,0,0,93.34,98.59Z"/><path class="cls-4" d="M96.11,130.45c.81-1.78,3.09-5.15,1.91-10.76a8.63,8.63,0,0,1-3.1,6.09,7.45,7.45,0,0,1-2.72-3.39C92.58,127.54,94.51,129,96.11,130.45Z"/><path class="cls-4" d="M120.17,99.17c-.35,2.66,2.74,8.72,2.86,9.2A8.54,8.54,0,0,0,120.17,99.17Z"/><path class="cls-4" d="M113.78,88.61c-.41,2.28,3.25,5.71,3.24,5.73S117.5,90,113.78,88.61Z"/><path class="cls-4" d="M119.14,106c-1.09,5-3.27,6.93-3.27,6.91a22.46,22.46,0,0,1-3.21-3.34c-.09,4.06,3.38,8,3.32,8S120.22,114.09,119.14,106Z"/><path class="cls-4" d="M109.05,96.61c-1.9,2.06-.12,6.14,1,9.81C111,104.63,112.23,98.55,109.05,96.61Z"/><path class="cls-4" d="M110.68,90.85c0-1.8-.56-4.95-4.65-5.54C105.77,87.42,109.36,88.72,110.68,90.85Z"/><path class="cls-4" d="M106.2,83.17c.94,1,3.94,1.66,5.61,3.22C111.58,83.82,109,82.22,106.2,83.17Z"/><path class="cls-4" d="M102.09,94.85C99.21,98,101,100.59,101,100.56S104.49,96.77,102.09,94.85Z"/><path class="cls-4" d="M106.41,124.72s3.65-3.38,4-10.36a23.32,23.32,0,0,1-4.29,5.37,18.77,18.77,0,0,1-3.55-3.28C102.55,120.88,106.46,124.74,106.41,124.72Z"/><path class="cls-4" d="M101,105.54c-3.23,4.82,0,9.85,0,9.83S103.25,108.65,101,105.54Z"/><path class="cls-4" d="M102.14,71c.88.89,3.69,2.08,5.26,3.54C107.19,72.15,105.08,70.85,102.14,71Z"/><path class="cls-4" d="M103.61,73.82a8.53,8.53,0,0,0-5-2.83C100,72.6,101.32,74,103.61,73.82Z"/><path class="cls-4" d="M109.43,78.75a5.83,5.83,0,0,0-4.28-3,9.63,9.63,0,0,1,1.52,2.5,11,11,0,0,1-2.55.53C105.15,79.52,107.06,79.69,109.43,78.75Z"/><path class="cls-4" d="M84,71.74c-.25.16-.48,1,.44,1,.76,0,.91-.84.91-.84S84.38,71.51,84,71.74Z"/><path class="cls-4" d="M108.62,23.5c-.9-.65-1.48-1.13-2.42-1.77-.81.55-1.75,1.33-2.36,1.82l2.32,1.74C107.12,24.58,107.55,24.25,108.62,23.5Z"/><path class="cls-4" d="M96.16,69.77a29.79,29.79,0,0,1,4.16.24c-4.21-2.18-10.13-1.92-11.85-1.16a4,4,0,0,0-2.18,2.94c.7-.47,1.19-.44,1.49-.81.5-.63.52-1,1-1a2.74,2.74,0,0,0-.29,1.32,2.49,2.49,0,0,0,3.18,2.21,2.41,2.41,0,0,0,2-2.23,2.56,2.56,0,0,0-.19-1.55S94.45,69.67,96.16,69.77Zm-3.32.62a.53.53,0,0,1-.61.31c-.31-.11-1.26-.54-1.11-.81s1.46-.28,1.65-.17A.49.49,0,0,1,92.84,70.39Z"/><path class="cls-4" d="M113.16,30.88A3.05,3.05,0,0,0,112,28.73a5.55,5.55,0,0,0-2.73-1.14,10.09,10.09,0,0,0-3.09.29,38.48,38.48,0,0,0-6.84,2.37c0-1-.16-3.44-.26-4.78a12.69,12.69,0,0,0,2.08-1.76A5.17,5.17,0,0,1,98,21.08c-.72.45-1.45,1-1.36,2.05,0,.41.65,7.12.88,8.89-.91,0-19.68.82-29.93,3.57a10,10,0,0,0-5.83-5.05,10.35,10.35,0,0,0-4,7c2.3-.21,3.87,0,4.74.84-1.57,2-8,3.75-9.8,1.56-1.54-2,1-5.78,1.52-6.44-4.26,3-6.18,10.28.84,9.94a13.54,13.54,0,0,0,6.36-2.22c2.06-1.43,2.73-2,3.61-3.58,0,0-.65-1.91-4.38-2.13,0-.4,1.23-3.85,4.19-.67A17.34,17.34,0,0,1,67,38.76c11.15-3.06,33.82-4.27,45.42-3.63A12,12,0,0,0,113.16,30.88Zm-3,1.1c-1.49-.05-3.72-.06-4.57-.08-2.12,0-3.8,0-5.78,0,3.42-1.41,8.8-3.55,10.24-1.18A1.23,1.23,0,0,1,110.12,32Z"/><path class="cls-4" d="M61.64,43.31c-.67-.21-1.28-.41-2.08-.62-.53.77-1.09,1.78-1.45,2.43,1,.32,1.77.57,2.87.9L62,44.35c.65.21,1.26.41,2,.64.61-1,.88-1.4,1.57-2.43-1.1-.34-1.84-.6-3-.9C62.31,42.16,62,42.77,61.64,43.31Z"/><path class="cls-4" d="M147.34,34.67c2.3-.2,4.41.36,5.4-.7-1.43-.42-2.89-.79-3.39-1.51.62-.5,1.49.19,2,.57.32-.32.48-.44.85-.79a3,3,0,0,0-4.33.76,4.75,4.75,0,0,1,1.31.75A8.4,8.4,0,0,0,147.34,34.67Z"/><path class="cls-4" d="M146,38.93c-.92,2.17-1.74,4.35-2.81,6.31.64.27,1.51-.28,2.12-.66,2.84-1.73,4.88-6.53,6-9.39a9.28,9.28,0,0,0-2.54.73C147.09,36.68,146.8,37.12,146,38.93Z"/><path class="cls-4" d="M124.5,40c.72.71,1.24,1.26,2,2,1.06-.57,1.55-.86,2.73-1.46-.78-.76-1.28-1.3-2.1-2C126.24,38.89,125.19,39.54,124.5,40Z"/><path class="cls-4" d="M142.27,32.81a16.57,16.57,0,0,0-2.64,2.2c.57,1,1.44,1.67,1.13,3a87,87,0,0,0-15.91-3.91c.2-1.87-.23-4.34-2-4.79-2.22-.57-3.75,1.62-4.68,2.83-2,2.67-1,3.82,3.15,4.46a15.4,15.4,0,0,1-7.5,2.19,19.22,19.22,0,0,1-2.32,0,23.31,23.31,0,0,0,7,2c2-.49,4-2.41,5.3-3.84a89.12,89.12,0,0,1,17.54,4.25c.72-1,1.89-1.91,2.35-3.49S143.48,33.49,142.27,32.81Zm-20.08,1-.61-.05c-1.11-.16-1.86-.4-2.23-1a3.26,3.26,0,0,1,1.24-1.33C121.6,31.12,122.71,32.63,122.19,33.84Z"/><path class="cls-4" d="M68.34,41.41c1,.42,1.69.76,2.73,1.21.74-.89,1.06-1.31,1.89-2.25-1-.45-1.74-.79-2.82-1.22C69.49,39.86,68.79,40.81,68.34,41.41Z"/><path class="cls-4" d="M201.07,141.19c.5-53.32-11.22-83.17-21.37-97.82,3.46-4.58,5.6-7.38,5.75-7.53a10.36,10.36,0,0,1,6.41-3.15,116,116,0,0,1,3.62-15.38,86.31,86.31,0,0,1-13.59,7.9c.5,3.54-.41,5.7-1.31,7-.13.19-1.76,2.37-4.46,5.94a63.48,63.48,0,0,0-17.22-14.3c-1.82-1-3.77-2-5.86-3a10,10,0,0,0-2.74-7.49A5.47,5.47,0,0,0,147.15,9h0a6.9,6.9,0,0,0-5.63,1.56,12.72,12.72,0,0,0-7.58,4.13,146.4,146.4,0,0,0-21.39-2.8,12.52,12.52,0,0,0-6.67-8.36A7,7,0,0,0,100.65,0h0A7,7,0,0,0,95.4,3.55a12.51,12.51,0,0,0-6.66,8.36,146.36,146.36,0,0,0-21.4,2.8,12.69,12.69,0,0,0-7.58-4.13A6.89,6.89,0,0,0,54.13,9h0A5.44,5.44,0,0,0,51,13.37a10,10,0,0,0-2.74,7.49c-2.1.95-4,1.95-5.86,3C34.8,28.21,30,32.31,25.49,37.94c-2.45-3.24-3.93-5.2-4-5.38-.9-1.29-1.81-3.45-1.31-7a86.85,86.85,0,0,1-13.59-7.9,114.72,114.72,0,0,1,3.63,15.39,10.34,10.34,0,0,1,6.41,3.14c.13.13,2,2.59,5.08,6.65C11.46,57.4-.44,87.5.07,141.17c.06,5-2.07,51.44,13.08,82.78a74.35,74.35,0,0,0,14.54,19.38,55.41,55.41,0,0,0,24.15,13.45l1.12.3c11.39,3.09,21.19,1.32,25.14-1l-.58,1.42c-.16.36-.38,1-.5,1.26-2.13,5.77-.7,11.74,7.09,12.63a20.07,20.07,0,0,1,7,1.58,21.5,21.5,0,0,1,6.31,4.72,28,28,0,0,1,4,5.61h0a28,28,0,0,1,4-5.61,21.76,21.76,0,0,1,6.31-4.72,20.17,20.17,0,0,1,7.05-1.58c7.79-.89,9.24-6.85,7.1-12.6-.12-.33-.36-.94-.52-1.31s-.58-1.4-.58-1.4c5.41,3.14,22,5.56,37.94-4.55,10.9-6.92,18.88-14.77,25.28-27.37C203.16,192.86,201.13,145.45,201.07,141.19Zm-3.46-18.53a154.07,154.07,0,0,1-23.06,15.89c-.31-7.83-.29-35.58-17.14-65.66,1.92-2.55,2.94-3.89,4.78-6.32a10.84,10.84,0,0,0,5.35,3,25.3,25.3,0,0,1,2.84-12.72,49.34,49.34,0,0,0,12.86-1.21C191.74,73.84,196,94.84,197.61,122.66Zm-45.16,23.48c-.75-1.87-1.51-4.9-.91-14.57a76.11,76.11,0,0,0-1.24,8.67,8.39,8.39,0,0,1-1.87,1.22c-.32-1-1.29-2.39.33-14.55-4.06,13.16-1.8,16.72-1.41,17.68a10,10,0,0,0,2.85-2.45,14.08,14.08,0,0,0,1.31,7,9.53,9.53,0,0,0,3.46-3.45,17.3,17.3,0,0,0,.92,6.61s3.07-3.37,3.81-5.86c-.07,1.58,1,6.29,1.92,7.12,3.37-4.43,4.52-17,4.52-17l.51.37c-.19,3.07-1,13.25-1,13.27-.53,6.27-1.17,13.37-1.72,19.67l-.27,3.1c-.22,2.39-.46,4.77-.68,7.16q-.31,3-.61,6-.33,3.09-.67,6.18c-1.48,13.38-2.78,22.78-2.78,22.78a25.22,25.22,0,0,1-.69,3.82c-.47-1.5-.59-7.56-.29-10.82.06-.83-1.15-2.2-1.08-6.73,0-1.84,2.09-25,2.83-34.1.16-2.05.22-3.57.21-3.6-.06.29-.13.62-.2,1-.45,2.1-.84,4.23-1.14,6.36-.21,1.33-.41,2.67-.62,4-.31,2.06-.62,4.26-.92,6.5a202.13,202.13,0,0,0-1.9,20.25c-.11,4.33,1.32,5.54,1.18,6.5-.76,5.38-.18,10.61,1,13.6a1.75,1.75,0,0,0,.92-.82c-.72,4.12-1.67,7.4-1.67,7.4-1.6-3.45-2.52-7.17-2.25-16.36,0-.72-1.34-2.79-1.57-7.53-.27-5.46,1-16.75,1.41-22.45.6-7.64,1.23-15.07,1.49-18.46.06-.72.36-3.35-.18-.36-.69,3.79-1.43,7.57-2,11.37-.37,2.69-.62,5.22-1,7.86-.32,2.89-.62,5.92-.89,9-.28,3.4-.53,6.89-.71,10.4-.3,5.83,1.88,10.16,1.8,11a25.32,25.32,0,0,0-.2,5.27,13.79,13.79,0,0,0,.3,3.47c-1-2.25-4.17-9.81-3.1-33.38,0-.58,0-1.16.09-1.75.86-16.4,2.17-27.12,2.17-27.12-1.53,4.58-2.85,14.47-3.75,25.93a13.17,13.17,0,0,1-1.53-4.34,29.48,29.48,0,0,1-.53-5.3c0-1.44,0-2.9.1-4.34.56-8.63,1.59-15.72,1.59-15.72s-1.32,4.25-2.17,8.69a52.92,52.92,0,0,0-1.35,10.55c-3.27-4.88-1.87-14.68-.26-24.82-1.43,3.24-4,12.38-3.34,19.26-4.91-4.61-2.24-13.78-.39-24.29-2.8,6.26-4.85,13.91-4.16,18.95-4-5.19-2.5-12.06,1.07-25.52-2.16,3.55-5.15,12.07-5.33,17.29-2.6-6.1.41-16.24,3-24.43-2,2.91-6,12.07-5.85,18.45-2.43-6.28,1.49-18.78,5.26-25.75a5.38,5.38,0,0,0,1,3.48c.72-8,5.73-13.8,6.6-19.39a18.35,18.35,0,0,0,.55,2.45A42.25,42.25,0,0,0,147,99a6,6,0,0,1,.92,3.3c2.49-6.91.08-9.72-.62-10.13-1.9-1.1-4.16.66-5.91,2.61-2.65,2.93-5.41,8.78-14.24,8.93-1.45,0-2-.33-1.26-.47-.08,0-.05,0,0,0,7.33-1.35,8.64-4.3,14.77-11,3.8-4.15,7.59-6.54,12.09-1.25,8.75,10.31,11.55,19,13.11,26.14.89,4.06,1.49,12.69.41,16.9-1-.37-1.11-.65-1.11-.65S164,145.22,162,148.14a19.73,19.73,0,0,1-1.42-7.12,21.63,21.63,0,0,1-3.66,7.33,21.76,21.76,0,0,1-.41-8.87C154.74,143.67,153.41,145.47,152.45,146.14Zm-20.77-29a130.7,130.7,0,0,0-4.82,26.49C126,141,125.08,124.31,131.68,117.11Zm-4.46-10.87c1.22.64,3,3.81.88,10.1C128,110.48,127.17,109.12,127.22,106.24Zm8.81,1.32c0,4.74-1,8.21-2.58,14C133.27,115.44,134.54,109.22,136,107.56Zm1.56,5.64a27.8,27.8,0,0,1,1.8-11,19,19,0,0,1-.23,7A28.1,28.1,0,0,1,137.59,113.2Zm-12.4,50.19a.11.11,0,0,1,0,.06c.2,2.53.57,5.06.37,6.1-.16-.18-1.21-1.26-1.21-1.26s-.12,3.48-.69,9.52a16.06,16.06,0,0,0,.11,3.29,8.15,8.15,0,0,1-2.9-1.18,15.65,15.65,0,0,0,1.24,3.68,4.42,4.42,0,0,0,1.55,1.32c.15.09.42.21.79.38.71.32,2.62.93,2.71,1l3.66,1c.64.19,1.5.35,2.19.55a35.64,35.64,0,0,1,4.51,1.7c.88.44,1.74,1.35,1.53,2s-1.22.87-1.59.87l-.21.43c-.65,1-2.74.38-3.26.15a3.21,3.21,0,0,1-1.14-.8c.1.16.8-.09,1.22-.27a.52.52,0,0,0,.32-.35c.07-.66-2-1-3.18-1.21a19.6,19.6,0,0,0-2.55-.16c-.8,0-1.08.17-1.37.7-.2.32-.45,1.06,2.59,4.42l.4.42a7.17,7.17,0,0,1,1.79,3.21,6.94,6.94,0,0,1,.14,1.26c-.05,1.42-.9,2.21-2.06,2.15-1.82-.2-.88-2.12-1.91-.93-.42.49-1.79-1.09-2.16-1.47a4.61,4.61,0,0,0,1.06.07.81.81,0,0,0,.49-.15.7.7,0,0,0,.2-.53,3.79,3.79,0,0,0-1.07-2.2c-.68-.84-1.22-1.51-1.75-2.29-.77-1.13-1.09-1.15-1.35-1.11l-.08,0c-.5.26-.19,3,.58,4.6,1.63,3.47,1.9,5.75.77,6.41l-.09.06v.1c.17,1.22.17,2.59-1.33,3.41l-.13-.14a4.32,4.32,0,0,0-.09-2.51c0-.13-.1-.52.88-.79l.09,0,0,0a9,9,0,0,1-1.63,0c-.67-.11-1.43-.23-1.58-1.53,0-.44-.09-.88-.13-1.32a49.85,49.85,0,0,0-.86-5.13c-.33-1.57-.73-5.39-.73-5.39a2.37,2.37,0,0,0-.77-.09,1.66,1.66,0,0,0-1.46,1.16,2.29,2.29,0,0,0,0,1.3,1.7,1.7,0,0,1-1-1.37v-.08l-.06,0A2,2,0,0,1,115,191c-.2-1.37,1.39-2.77,1.53-2.88,1-.74.64-2.16.21-3.37l-.45-1.21a6.63,6.63,0,0,1-5.85,2.54,11.29,11.29,0,0,0,.66-2.79,29.35,29.35,0,0,0,.14-3.76l-1.67,1.81a40.31,40.31,0,0,1,0-10.14c.7-6.64,2.5-9.31,2.65-9.52h0c1.1-1.24,5.8-7.17,6.53-9.92,0,0,1.9,2.19,1.4,1.72l.26.25,0-.35a9.74,9.74,0,0,1,2.23-4.3,10,10,0,0,0,1.65-2.67c0,.05.13.27.14.24a24.36,24.36,0,0,1,.74,5.7,14.59,14.59,0,0,0,.71,4.59l-.86-.52c-.42-.27-.64-.4-.82-.39l-.11,0-.07.06a.35.35,0,0,0-.08.31A58.55,58.55,0,0,1,125.19,163.39ZM128.66,179c-.79-1.26.36-1.6,2.64-.18,1.35.83,6.08,3.93,8.47,7.22.58.78.39,1.22-.61.21-2.39-2.4-6-5.72-5.92-4.15a11,11,0,0,1-.68,4.14c-.48-.11-.94-.21-1.36-.34l-2.83-.74C129.35,182.76,129.55,180.45,128.66,179Zm10.68,42.22c-.48-.66-.83-1.15.07.09,1.21,1.66.69.94.13.17a32,32,0,0,0,4.55,5s1.19.74,1.82,4.07c-1.83,0-6.57-2.65-11-8.63-1.39-1.88-2.3-3.36-5.83-8.69a46.83,46.83,0,0,0,6.12,12.27,43.94,43.94,0,0,0,3.8,4.53s.17.57.37,1.43a82.6,82.6,0,0,0-8.16-4.24l-.11-.05c-1.89-3.44-4.09-7.33-4.87-8.41.87,2.53,1.72,5.11,2.45,7.36-3-1.25-7.59-2.94-9.14-3.6a16.7,16.7,0,0,1-4.8-2.95h0l-.22-.22,2-2,.7.59a1.74,1.74,0,0,0,2.34.13c1-.85,5.24-5.61,5.61-6s.81-1.28-.08-2.86c0,0-.08-.1-.19-.27a5,5,0,0,0,1.4-3.6,3.54,3.54,0,0,0,.69-2.92,2.11,2.11,0,0,0,1.3.33,2.8,2.8,0,0,0,1.8.84,3.11,3.11,0,0,0,3.05-1.63,3,3,0,0,0,.2-.4,5.6,5.6,0,0,0,.25-1.89,106.23,106.23,0,0,1,9.52,13.18c4.1,6.54,5,9,5.9,11.5-2.7-.17-4.21-.58-7.73-4.27-1.64-1.71-5.92-8-8.61-11.42A61.12,61.12,0,0,0,139.34,221.24Zm-39.45,8.52a124.05,124.05,0,0,1-14.53-13.91l4.25-3.94s17.57,17.33,23.12,19.57c9.22,3.73,21.35,4.64,21.35,4.64s-15.82-3.58-21.34-6.58c-4.34-2.35-21.5-19.11-21.5-19.11l6.48-6c1.73,1.88,11.48,12,15.2,15.47a29.88,29.88,0,0,0,3.36,2.7c2,1.47,5,2.54,7.35,3.54,11.26,4.53,18.64,9.23,20.38,10.65-4.64,1.8-17.55,2-23.58,1.22C111.68,237,105.23,234.1,99.89,229.76Zm6.79,7.13a9.81,9.81,0,0,1-1.5,4.47c-.67-.56-3.33-3.88-3.36-7.17A27,27,0,0,0,106.68,236.89Zm-40-15.18c-4.45,6-9.2,8.59-11,8.63.64-3.32,1.66-4,1.66-4a32.22,32.22,0,0,0,4.84-5.3A60.6,60.6,0,0,0,69,208.43c-2.7,3.38-7,9.71-8.62,11.43-3.52,3.68-5,4.1-7.73,4.26.86-2.52,1.83-4.9,5.94-11.44,3.3-5.27,5.61-8.58,8.08-11.18a1.34,1.34,0,0,0,.07.18A2.75,2.75,0,0,0,67.76,203a2.94,2.94,0,0,0,1.91.61h.27a2.7,2.7,0,0,0,1.78-.84,2.07,2.07,0,0,0,1.29-.33,3.58,3.58,0,0,0,.7,2.92,5,5,0,0,0,1.51,3.69l0,.08c-1,1.52-.5,2.36-.09,2.85s4.66,5.2,5.61,6A1.74,1.74,0,0,0,83,217.9l.71-.58s2.12,2.13,2.07,2.09c-.38.35-.67.62-.82.73a16.74,16.74,0,0,1-3.74,2.28c-1.22.58-3.75,1.49-6.67,2.64l-1.39.56a36.52,36.52,0,0,0,2.6-7.4c-.69,1-2.87,5-4.71,8.27-1.86.79-3.74,1.65-5.42,2.56l-1.27.64-2.56,1.41.47-.26c.14-.65.25-1.05.25-1.05a40.92,40.92,0,0,0,3.85-4.5A47.64,47.64,0,0,0,72.52,213C69,218.35,68.08,219.84,66.69,221.71Zm6-30.89c-.3-.53-.57-.68-1.38-.7s-5.87.15-5.73,1.37a.55.55,0,0,0,.31.35c.43.18,1.13.43,1.23.27a3.31,3.31,0,0,1-1.14.8c-.52.23-2.6.83-3.26-.15l-.21-.43c-.37,0-1.38-.17-1.59-.87s.65-1.55,1.53-2a42,42,0,0,1,8.42-2.71c2.33-.61,5.5-1.12,7-3.16A15.15,15.15,0,0,0,79.06,180a7.22,7.22,0,0,1-2.64,1,17.74,17.74,0,0,0,.11-3.3,27,27,0,0,1,.54-9.67,20.74,20.74,0,0,0-1.88,1.09,23.5,23.5,0,0,1-.19-5.78,59.85,59.85,0,0,1,1.18-7,.34.34,0,0,0-.07-.32l-.06,0-.13,0c-.18,0-.39.13-.81.39-.23.14-.52.33-.87.52a14.19,14.19,0,0,0,.71-4.58,26.16,26.16,0,0,1,.81-5.84,10.24,10.24,0,0,0,1.65,2.67,9.64,9.64,0,0,1,2.23,4.3l0,.35.27-.25a6.79,6.79,0,0,0,1.39-1.72c.62,2.34,3.1,5.79,4.49,7.53a3.61,3.61,0,0,0,1.33-1.89,19.89,19.89,0,0,1,1.44,3.25,36.49,36.49,0,0,1,2.6,11.1c.64,6.27-.36,9.59-.36,9.59l-1.66-1.81a29.35,29.35,0,0,0,.14,3.76,11.29,11.29,0,0,0,.66,2.79,6.44,6.44,0,0,1-4.41-1.18,7.13,7.13,0,0,1-1.86-1.6l-.54,1.45c-.43,1.21-.73,2.63.21,3.37.14.11,1.73,1.51,1.52,2.88a1.9,1.9,0,0,1-.92,1.34l0,0v.08a1.72,1.72,0,0,1-1,1.37,2.39,2.39,0,0,0,0-1.3,1.66,1.66,0,0,0-1.46-1.16,2.37,2.37,0,0,0-.77.09s-.4,3.82-.73,5.39a47.51,47.51,0,0,0-.85,5.13c0,.44-.09.88-.14,1.32-.15,1.3-.91,1.42-1.58,1.53a9,9,0,0,1-1.63,0l0,0,.09,0c1,.27.91.66.89.79a4.22,4.22,0,0,0-.1,2.51l-.13.14c-1.5-.82-1.5-2.19-1.33-3.41v-.1l-.09-.06c-1.13-.66-.86-2.94.77-6.41.77-1.62,1-4.27.58-4.6-1-.34-2.45,2.47-2.93,3.06a5.12,5.12,0,0,0-1.3,2.22c-.18,1.15,1,1,1.73.9-.37.38-1.74,2-2.16,1.47-1-1.19-.09.73-1.91.93-1.16.06-2-.73-2.06-2.15a7.2,7.2,0,0,1,2.33-4.89C73.1,191.88,72.85,191.14,72.66,190.82Zm-.82-5.71-3.11.82q-.49.15-1.08.27A10.84,10.84,0,0,1,67,182c.06-1.57-3.53,1.75-5.92,4.15-1,1-1.19.57-.62-.22,2.39-3.29,7.13-6.38,8.47-7.22,2.29-1.42,3.43-1.07,2.65.18C70.64,180.36,70.85,182.68,71.84,185.11ZM69.36,155.9c-.18-5.22-3.17-13.74-5.34-17.28,3.59,13.45,5.07,20.32,1.08,25.51.69-5-1.36-12.69-4.16-18.95,1.85,10.52,4.52,19.68-.39,24.3.71-6.88-1.91-16-3.34-19.27,1.61,10.15,3,19.95-.26,24.83h0c0-.42,0-.85-.06-1.3a75.93,75.93,0,0,0-1.29-9.25,67.91,67.91,0,0,0-1.92-8c0-.08-.23-.71-.23-.71s1,7,1.57,15.69a31.33,31.33,0,0,1-1.64,13.38,6.08,6.08,0,0,1-.32.59c-.9-11.45-2.22-21.34-3.75-25.93,0,0,1.31,10.72,2.17,27.13,0,.59.06,1.17.09,1.74,1.07,23.58-2.11,31.13-3.1,33.39a13.85,13.85,0,0,0,.3-3.48,25.34,25.34,0,0,0-.2-5.27c-.08-.83,2.11-5.17,1.8-11-.67-12.83-1.76-26-4.54-38.64-.1-.48-.21-.94-.32-1.37,0,.08.1,1.26.14,1.72.78,9.85,1.63,19.69,2.32,29.55.39,5.52.65,10,.58,11.36-.23,4.74-1.59,6.81-1.57,7.53.27,9.19-.65,12.91-2.25,16.37,0,0-.94-3.28-1.67-7.4A1.8,1.8,0,0,0,44,222c1.16-3,1.75-8.22,1-13.6-.14-1,1.29-2.18,1.18-6.51a176.64,176.64,0,0,0-1.9-20.25c-.3-2.24-.61-4.43-.92-6.49-.51-3.46-1.06-6.93-1.76-10.36-.07-.35-.14-.67-.2-1,0,0,.13,2.48.22,3.6.7,9.08,2.79,32.26,2.82,34.09.07,4.54-1.15,5.91-1.07,6.73.29,3.26.17,9.33-.3,10.83a26.69,26.69,0,0,1-.69-3.83q-3-22.53-5-45.17c-.55-6.3-1.19-13.41-1.72-19.68v0c-.46-5.38-.85-10.15-1-13.21l.5-.37s1.15,12.59,4.52,17c.9-.83,2-5.54,1.92-7.12.74,2.49,3.81,5.85,3.81,5.85a17,17,0,0,0,.92-6.6,9.51,9.51,0,0,0,3.46,3.44,13.94,13.94,0,0,0,1.3-6.94,10.21,10.21,0,0,0,2.86,2.44c.39-1,2.66-4.51-1.41-17.67,1.62,12.15.65,13.56.33,14.54a8.07,8.07,0,0,1-1.86-1.21,73.7,73.7,0,0,0-1.25-8.67c.6,9.67-.16,12.7-.91,14.57-1-.68-2.29-2.47-4.07-6.67a21.93,21.93,0,0,1-.41,8.87,21.57,21.57,0,0,1-3.66-7.32,19.78,19.78,0,0,1-1.42,7.12c-2-2.93-3.17-14.69-3.17-14.69s-.06.29-1.1.65c-1.08-4.21-.48-12.84.41-16.9,1.56-7.15,4.36-15.82,13.11-26.13,4.5-5.3,8.29-2.9,12.1,1.24,6.12,6.67,7.43,9.62,14.76,11,.08,0,.11,0,0,0,.74.13.19.49-1.25.46-8.84-.15-11.6-6-14.24-8.93-1.76-1.94-4-3.7-5.92-2.6-.71.41-3.11,3.22-.62,10.12a6,6,0,0,1,.92-3.3,42.66,42.66,0,0,0,4.53,11.4,17.15,17.15,0,0,0,.56-2.45c.87,5.59,5.88,11.4,6.6,19.39a5.55,5.55,0,0,0,1-3.48c3.78,7,7.7,19.47,5.26,25.75.1-6.38-3.82-15.55-5.85-18.45C69,139.67,72,149.81,69.36,155.9ZM110.51,157c-.71,2.49-1.44,5.77-3.82,8.25a6.12,6.12,0,0,0-1.36-2.6s-1.06,6.88-3.79,9a14.36,14.36,0,0,0-2.13-6.31c-.14,1.52-.7,1.33-.59,5-1-.46-2-2.24-2.86-4-.73-1.51-.83-3.41-1.29-4.9-.36,1.74-.83,2.82-.68,4.11-2.7-2.59-2.42-7.28-2.89-8.79a5.89,5.89,0,0,0-.7,2.71,10.34,10.34,0,0,1-3.16-6A3.29,3.29,0,0,0,86,155.13c-2.1-3.56-6.15-14.51-7.5-22.29-.38.13-.71.31-1.15.5-.29-2.09-1.89-12.72-2.1-16.46-.29-7,.42-11.25,2.68-15.35,2-3.68,7.41-8.58,13-13.67-.35.7-.75,2.1-1.23,2.89,1.6-.62,3-2.88,5.16-4.13a10.81,10.81,0,0,0-.17,1.55,20.11,20.11,0,0,0,5-4.22c2.25.44,3.41,0,4.42-.91-.63-.12-2.5-.25-2.84-.88a7,7,0,0,0,4-1.5c-.5,0-1.71-1.26-3.42-1.26a8.75,8.75,0,0,1,.6,1.33c-5-.21-7.49-4.36-12.1-5.08,1.73.87,3.59,3.75,5.81,5.46-4.68.94-5-3.79-9.4-2.77-.26-.45.06-1.19-.25-1.37-.67.15-1,.46-1.66.38s-.57-.76.09-1,2.3-.66,2.83-.85c-1.49.07-2.6-.22-3.8-.22-.82,0-3.2.22-3.3.75a1,1,0,0,1-1.71.77,5.91,5.91,0,0,1,.84-3.06,5.19,5.19,0,0,1,1.62-1.65c.27-.15.65,1.31,2.19,1.54-1.16-1.67-1-2.29-.44-2.73a3.61,3.61,0,0,1,1-.51,7.73,7.73,0,0,0,2-.8c3.51-4.16,11-4,16.49-2.91a9,9,0,0,1,4.94,3.55,24.32,24.32,0,0,0-2.94-.11c5.32,2,6,4.89,8.08,6.78-1.46-.26-2.33-.29-2.84,0a37.41,37.41,0,0,1,3.42,3.35,15.11,15.11,0,0,1-2.51-.21c2.09,1.32,3.05,3.85,5.06,7.78a79.78,79.78,0,0,1,3,7.61,3.43,3.43,0,0,1,1.13-.9,38.66,38.66,0,0,1,4.06,9c1.32,3.65,1.41,10,1.29,13.14-.15,3.61-.61,8.76-1.08,12-.24-.29-.81-.29-1.13-.39-.67,7-2.21,12.08-2.93,13.38-1-.5-.22-.31-1.11-.7-.29,3-3,11.93-4.29,13.57a4.61,4.61,0,0,0-1.39-1.93c-.77,6.64-2.88,8.62-2.88,8.64A14.1,14.1,0,0,0,110.51,157Zm2,42.11s8.85,8.86,9.38,9.36c1.83,1.78,2,2.17,1.43,2.77-.15.16-.08,0-.6.59l-3.62-3.23-5.77-5.13s-4.2-3.91-4.39-4.12a.44.44,0,0,0-.61-.09c-.1.12-.69.72-.78.83a.49.49,0,0,0,.13.58l13.6,12.79c-.87.88-1.76,1.83-2.37,2.45-.27.27-.42.25-.63.06-.84-.77-14.38-13.15-15.51-14.17a.22.22,0,0,1,0-.34c.63-.64,2-2.23,3.06-3.34,1.23-1.31,2.8-2.94,3.79-2.65a20.65,20.65,0,0,0,2.55.63,14.09,14.09,0,0,0,6.22-.39l.08,0c0,.27.06.53.09.77s.13.67.22,1.05a32.47,32.47,0,0,1-5.43.22C112.3,197.7,111.63,198,112.55,199.08ZM92.61,200c-.1-.12-.68-.71-.78-.83a.44.44,0,0,0-.61.08c-.19.22-4.39,4.13-4.39,4.13l-5.77,5.13-3.63,3.22c-.51-.53-.45-.42-.59-.58-.54-.6-.43-1,1.43-2.77L87.65,199c.92-1,.25-1.39-.81-1.39-3.47-.05-4.23,0-5.64-.26.07-.33.14-.63.18-.91s.08-.61.11-.94c.11,0,.2.07.3.09A13.93,13.93,0,0,0,88,196a21.39,21.39,0,0,0,2.55-.64c1-.29,2.58,1.35,3.8,2.65,1,1.12,2.43,2.7,3,3.35a.2.2,0,0,1,0,.33l-15.5,14.17c-.21.2-.36.22-.64-.06-.61-.61-1.5-1.57-2.36-2.44l13.59-12.79C92.67,200.33,92.71,200.07,92.61,200Zm.12-31.57a2.71,2.71,0,0,1-1.16-1.52,6.67,6.67,0,0,1-.27-2.21,1.69,1.69,0,0,0,.41.69,13.47,13.47,0,0,1,1.59,1.74,4.31,4.31,0,0,1,.48,1.82A4.07,4.07,0,0,1,92.73,168.39Zm2.71,21c.27.45-.41,5-.61,6.42l-1.18-1.15A14.88,14.88,0,0,1,95.44,189.37Zm-2.7-.58a40.79,40.79,0,0,0-1.48,4.49h0l-.52.1c-.69.18-2,.75-2.48.94C88.94,193.38,92.34,188.68,92.74,188.79Zm4,8.94a9.12,9.12,0,0,1,1.2-3.16c.12.88.21,2.86.27,4.69C98.08,199.11,96.89,197.89,96.75,197.73ZM97,184.06c1.74.76,2.06,3.09,2.06,3.09S97.12,185.74,97,184.06Zm1.21-2.87a16.93,16.93,0,0,1-3.67-3,4.56,4.56,0,0,1-.73-2.94s.05.5,1.12,1.74c1.64,1.9,4.39,2.68,5.31,4.6a2.77,2.77,0,0,1,.25.87,3,3,0,0,1,.41-1.16c.53-.91,3.52-2.76,4.79-3.5a6.6,6.6,0,0,0,2.19-2,7.42,7.42,0,0,1-1,2.38c-.72,1-4.52,3.28-5.15,3.74a3.72,3.72,0,0,0-1.23,1.35v-.06l0,.06A5.91,5.91,0,0,0,98.25,181.19Zm-3.61-11.1c.76,3,4.07,3.33,4.06,6.34C97.19,174.35,94.26,174.29,94.64,170.09Zm6.46,17a16.62,16.62,0,0,1,1.5-1.54,4.19,4.19,0,0,0,1.29-1.8,3.22,3.22,0,0,1-.3,2.09,5.07,5.07,0,0,1-2,1.87,11.08,11.08,0,0,1-1.37.75A7,7,0,0,1,101.1,187.05Zm4.14,9-1.51,1.53h0c-.08-1.35-.31-5.56-.61-7.36C104.55,192.05,105.13,195.39,105.24,196Zm-4.74-3.1c.76,1.09,1.3,4,1.62,6.3l-.09.1c-.52.54-1.54,1.75-1.61,1.84C100.37,198.08,100.35,194,100.5,192.92Zm1,10.53-1.06,1.13c0-.38,0-1.18,0-2.18C100.71,202.72,101.54,203.45,101.54,203.45Zm.93,1.11,6.49,6-1.75,1.7c-1.66-1.62-4.19-4.26-6.07-6.24C101.74,205.35,102.21,204.85,102.47,204.56Zm8.12,7.46,4.25,3.93c-.49.53-1.09,1.21-1.83,2-1.24-1.24-2.8-2.81-4.21-4.19Zm-.88-18.46a3.83,3.83,0,0,0-.9-.19,1.68,1.68,0,0,0-.82.19,2,2,0,0,0-.25.14h0A37.67,37.67,0,0,0,106,189a34.88,34.88,0,0,1,4,4.68Zm-5.34-18.33a11.08,11.08,0,0,0-2.84,2.07,8.17,8.17,0,0,1,2.29-3.8,14.7,14.7,0,0,0,2.51-3.29,9.36,9.36,0,0,1-.44,2.1,12.3,12.3,0,0,0,2.61-3.06C107.74,171.56,106.83,173.78,104.37,175.23ZM82.11,149.92a8.93,8.93,0,0,1-3.9-6.9A23.57,23.57,0,0,1,82.11,149.92Zm42.37-51.35c-1.82-2.53-3-5-4.84-9.53-1.66-3.94-1.37-3.3-3.8-9.24-1.16-2.83-3.22-7.3-4.43-8.88a21.55,21.55,0,0,0-6.28-5.31,18.3,18.3,0,0,0-5.65-1.21,34.5,34.5,0,0,0-9.35.76c-1.28.34-3.53,1.11-4.66,2.48a4.42,4.42,0,0,1-1.41,1.21,16.37,16.37,0,0,0-4.24,2.32c-3.51,2.57-3,6.58-1.13,8.13l.1,0c-.06-1,0-1.93.22-1.88a7.33,7.33,0,0,0,4.59.85c1.94-.26,3.17,2.69,3.17,2.69l.31-.86a7.46,7.46,0,0,0,1.15,2.28,2.85,2.85,0,0,0,.3-.43c.58.72,1.53,1.2,1.61,2.4a4.66,4.66,0,0,1-1.86,3.37c-.52.48-3.61,3-6.89,6.38-1.7,1.72-2.56,2.78-4.27,4.66a4.05,4.05,0,0,1-2.57,1.6h-.39a2.89,2.89,0,0,1-2.16-1C71.66,99,55,77,47,66.43,61.48,52.31,85.45,50,91.44,50.42c1.4.1,3,1.21,1.22,3.51,1.29.58,6.15.15,8-1.56,1.82,1.71,6.68,2.14,8,1.56-1.76-2.3-.18-3.41,1.23-3.51,5.93-.43,28.71.64,44.64,16.35-7.79,10.28-18.19,23.32-23.78,31.43a3,3,0,0,1-1.11,1,4.55,4.55,0,0,1-2.6.61A2.85,2.85,0,0,1,124.48,98.57ZM131,51.05a78,78,0,0,0-21.51-2.85c-3.87.17-4.43,2.36-4,3.57a6.39,6.39,0,0,1-4.88-2.34,6.39,6.39,0,0,1-4.87,2.34c.46-1.21-.1-3.4-4-3.57a77.89,77.89,0,0,0-21.5,2.85A61.48,61.48,0,0,0,45.77,64.77l-1.61-2.12A66.3,66.3,0,0,1,73.92,47.56a81,81,0,0,1,18.43-1.83c3.3.05,5.42,1.32,5.42,3.39,1.66-.26,2.66-2.36,2.86-3.45.26.48.82,3.07,2.87,3.45,0-2.07,2.12-3.34,5.43-3.39a80.93,80.93,0,0,1,18.42,1.83c11.85,2.57,22.65,9.07,29.93,15.5l-1.62,2.14A65.43,65.43,0,0,0,131,51.05Zm24.12.16c3.5-3.94,8.84-9.66,9.33-10.21a2.15,2.15,0,0,1,1.76-.76,5.86,5.86,0,0,1,3.1,1.32,15.26,15.26,0,0,1,1.4,1.37c3.8,4.23,2.69,8.1,7.81,11.56a24.65,24.65,0,0,1-10.06-.08.08.08,0,0,0,0,0h0c-1.42,3.18-3.26,6.12-3.2,11.54l-.06,0a7.46,7.46,0,0,1-1.08-.71c-2.39-1.91-3.26-5.07-4.07-7.91C159.09,54,158.25,51.14,155.11,51.21Zm-1.73-1.35a3.84,3.84,0,0,0-.81,4.3c-12.24-8.21-26.7-12.37-51.31-12.6h-1.12c-25,.16-39.09,4.29-51.44,12.59a3.84,3.84,0,0,0-.81-4.3c-2.08-2.44-10.14-11.47-10.14-11.47A55.31,55.31,0,0,1,53.82,28c17.78-7.8,40.35-7.83,46.8-7.83,0,0,0,0,0,0v0c6.46,0,29,0,46.81,7.83a55.38,55.38,0,0,1,16.06,10.42S155.46,47.42,153.38,49.86ZM45.94,51.23c-6.18-.12-3.47,11.22-10.1,14.73,0-5.43-1.76-8.34-3.19-11.53h0c-.76.11-1.6.28-2.64.4a19,19,0,0,1-2.41.14,28.52,28.52,0,0,1-5-.48c5.68-3.83,3.9-8.16,9.41-12.93,3.1-2.21,4.36-1.11,4.86-.56l0,0ZM42,62.61c3.34,4.46,6.77,9.06,10,13.49,2.26,3.06,5.81,8,5.85,8.55,0,.9-5.78-6.09-7.48-8.41-.73-1-4.4-5.89-9.26-12.36C41.39,63.5,41.67,63.07,42,62.61Zm25.78,59.21c-1.63-5.76-2.57-9.24-2.58-14C66.68,109.5,68,115.72,67.77,121.82Zm-4.14-8.34a26.84,26.84,0,0,1-1.57-4,18.83,18.83,0,0,1-.22-7A28.08,28.08,0,0,1,63.63,113.48Zm5.91,3.92c6.61,7.19,5.65,23.88,4.82,26.49A130.7,130.7,0,0,0,69.54,117.4Zm7,108.88c2.32-1,5.34-2.08,7.36-3.54a32.17,32.17,0,0,0,2.92-2.31c1.51,1.5,3.51,3.48,5.56,5.44a37.18,37.18,0,0,1-4.94,3.78c-5.52,3-21.35,6.58-21.35,6.58s12.14-.92,21.36-4.65a31.81,31.81,0,0,0,6.36-4.33c1.65,1.54,3.22,3,4.51,4.1-5,3.51-10.87,5.83-18.57,6.8-6,.75-18.94.57-23.58-1.23C57.92,235.51,65.3,230.8,76.56,226.28Zm20.8,8.8a24.85,24.85,0,0,0,2.27-1.68c-.88,5.52-3.86,7.94-3.86,7.94a27.85,27.85,0,0,1-1.87-4.43C94.77,236.49,96,235.88,97.36,235.08ZM144.15,84.29c0-.54,3.59-5.49,5.84-8.56,3-4.11,6.21-8.37,9.33-12.53a9.88,9.88,0,0,0,.9,1.2c-4.53,6-7.9,10.53-8.59,11.47C149.93,78.2,144.1,85.19,144.15,84.29Zm38.91-28.94c-4-2.09-5.51-4.74-6.92-7.29l1.64-2.16A104,104,0,0,1,183.06,55.35Zm-1.19-21.83c.67-.84,2.41-4.31,1.9-7.07a60.64,60.64,0,0,0,8.71-4.92L174.81,45l-.74-1.3C178.54,37.83,181.59,33.87,181.87,33.52Zm-130-11.47a7.19,7.19,0,0,1,1.83-7.63,3.29,3.29,0,0,1,1.54-2.8h0a4.15,4.15,0,0,1,3.22,1.29,9,9,0,0,1,7,4.79,137.76,137.76,0,0,1,25.45-3.4A10.65,10.65,0,0,1,97.29,5a4.93,4.93,0,0,1,3.35-2.87A4.92,4.92,0,0,1,104,5a10.63,10.63,0,0,1,6.36,9.31,138.12,138.12,0,0,1,25.46,3.4,9,9,0,0,1,7-4.79A4.18,4.18,0,0,1,146,11.63h0a3.23,3.23,0,0,1,1.52,2.78,7.17,7.17,0,0,1,1.83,7.63,64,64,0,0,1,25,18.33L173,42.26c-6.88-8.81-16.34-15.34-27.41-19.5.87-1.3,2.11-4.19-1.12-7.35h0c-4.78.6-6,3.48-6.28,5a135.44,135.44,0,0,0-30.25-4.18c-.4-7.87-6-9.77-6-9.77a2.47,2.47,0,0,0-1.29-2h0a2.47,2.47,0,0,0-1.29,2s-5.58,1.9-6,9.77a135.62,135.62,0,0,0-30.26,4.18c-.29-1.5-1.49-4.38-6.27-5h0c-3.23,3.15-2,6-1.12,7.34C44.6,26.93,35.43,33.21,28.56,42l-1.38-1.83A61.58,61.58,0,0,1,51.87,22.05ZM9.55,21.89a60.64,60.64,0,0,0,8.71,4.92c-.52,2.77,1.22,6.23,1.89,7.07.27.33,3.09,4,7.28,9.49a9,9,0,0,0-.8,1.21ZM23.3,45.51l1.75,2.24a24.46,24.46,0,0,1-2,3.32A17.73,17.73,0,0,1,18,55.49Q20.43,50.36,23.3,45.51ZM18,55.65a49.37,49.37,0,0,0,12.87,1.21,25.52,25.52,0,0,1,2.83,12.72,12.46,12.46,0,0,0,5.76-3.24L44,72.46C27.16,102.53,27,130.72,26.64,138.55A154.07,154.07,0,0,1,3.58,122.66C5.15,94.84,9.44,73.84,18,55.65Zm34.7,197.28-1.77-.58A53,53,0,0,1,30.5,240.42a70.64,70.64,0,0,1-13.67-18.19c-11.49-23.79-14-58.4-14-72.5,0-4.62,0-7.18,0-7.39,0,0,.36-12.15.54-15.73,4.3,3.57,10,8.1,23.23,15.59l2.94,1.57,0-3.77c0-.29-.41-35.57,16.37-65.14,2.33,3.09,5.05,6.53,7.41,9.66l1.41,1.89a7.56,7.56,0,0,0-7.06,2.2c-3.55,3.47-9.33,11.84-12.67,20.5a54.52,54.52,0,0,0-2.88,19.2h0s2.07,35.87,6.17,70.23C42,229.75,44,233.84,44,233.84c2.39-2.87,3.38-6.53,3.94-8.62l.34.3a27.21,27.21,0,0,0,3.48-9.27c1.49-7,1.75-19.51,1.59-25.56v0a11.06,11.06,0,0,1,1.38-4.81,21.59,21.59,0,0,0,1.59-4.37l0-.06c2.24-9.6,6.63-12.3,9.05-15.28a38.13,38.13,0,0,0,6.08-9.94c1.35,1.36,2.33,2.57,2.37,3.27a47.92,47.92,0,0,0,.33,11.66,7,7,0,0,0,1.31-.75c-1,3.81.51,9.69-.46,12.1l1.91-.23a2.88,2.88,0,0,1-.22.48,3.53,3.53,0,0,1-1.81,1.27c-.19.08-.71.29-2,.73a6.65,6.65,0,0,1,1-7c1-1.27-.22-3.12-2.38-2.17a30.71,30.71,0,0,0-9,6c-4.58,4.35-5.93,8.55-4.95,9.38a1.75,1.75,0,0,0,2,.27,1.57,1.57,0,0,0,.08.52,2.59,2.59,0,0,0,2,1.69l.09.17c.49.68,1.28,1,2.66.91a7.51,7.51,0,0,0,2.69-.8,3.67,3.67,0,0,0,1.07-.83c.4.31.83.67,1.28,1.06l-.65.71a8.9,8.9,0,0,0-2.11,3.76,130.82,130.82,0,0,0-11.89,16.82,67.85,67.85,0,0,0-5.2,11.61,9.1,9.1,0,0,0,4.38.05,16.16,16.16,0,0,0-1.17,6.46,13.09,13.09,0,0,0,7-1.63c0,.22-.09.44-.12.67-3.37,2.16-5.84,4.2-7.17,5.13,10.88,5.1,25.86,2.8,26.87,2.7,1.51-.15,3-.38,4.53-.63.12.46.27.92.43,1.38-1.12,2.64-3.3,7.85-3.77,9.14l-.1.25A36.32,36.32,0,0,1,52.65,252.93Zm33.45-8.22c.26.34.52.56.7.57a9,9,0,0,0,2.62-2,152.87,152.87,0,0,0-1.77,15.81,7.36,7.36,0,0,0-7.89,1.11C79.79,260.16,83.47,251.13,86.1,244.71Zm36.19,21.58a4.23,4.23,0,0,1-.44.71,4.54,4.54,0,0,1-3.23,1.71,20.93,20.93,0,0,0-8,1.83,25.65,25.65,0,0,0-9.14,7.52,25.82,25.82,0,0,0-9.14-7.52,21,21,0,0,0-8-1.83A4.23,4.23,0,0,1,81,267a5.58,5.58,0,0,1-.43-.71c-1.35-3,2.61-7.3,9.12-3-.19-4.16,1.35-15.43,2.39-22.45.26.74.54,1.49.88,2.23.76,1.65,1.94,3.38,2.16,3.35a15.6,15.6,0,0,0,5.32-6.5,15.57,15.57,0,0,0,5.36,6.61c.23,0,1.41-1.7,2.16-3.34a30.85,30.85,0,0,0,1.5-4.16c.21.33.42.64.64.92l.36.55c1.09,6.68,2.86,18.42,2.66,22.79C119.68,259,123.64,263.28,122.29,266.29Zm-7-7.16a124.17,124.17,0,0,0-2-15.41,8.9,8.9,0,0,0,2.17,1.56,4.9,4.9,0,0,0,1.29-1.4c2.4,6.15,6.34,16.28,6.38,16.36A7.36,7.36,0,0,0,115.25,259.13ZM198.35,150c0,14.1-2,49-14,72.49a72.26,72.26,0,0,1-14,18c-6.22,5.86-14.35,10.62-18.68,12.07a31.17,31.17,0,0,1-5.91,1.59c-9.9,1.64-16.34-.42-23.24-3.59-.56-1.17-3-7-4.09-9.57.15-.36.29-.71.38-1,.61.09,1.28.2,2,.29.31,0,16.07,2.38,27-2.72-1.09-.77-3.59-2.61-5.81-4.21l-.21-1.24a13.06,13.06,0,0,0,7,1.64,16.16,16.16,0,0,0-1.17-6.46,9.08,9.08,0,0,0,4.38,0,67.58,67.58,0,0,0-5.2-11.6c-5-8.85-11.9-16.91-15.52-21.79.28-.23.55-.46.81-.66a3.85,3.85,0,0,0,.91.66,7,7,0,0,0,2.67.8c1.39,0,2.18-.22,2.67-.91l.09-.17a2.6,2.6,0,0,0,2-1.7,2,2,0,0,0,.07-.49c.9.32,1.48.45,2.22-.19,1-.82-.36-5-4.94-9.37a30.61,30.61,0,0,0-9-6c-2.16-1-3.42.9-2.38,2.17a6.62,6.62,0,0,1,1,7c-1.52-.49-2.06-.71-2.26-.79l-.71-.34a3.2,3.2,0,0,1-1.12-.95,2.5,2.5,0,0,1-.23-.54l2.18.29c-1.11-3.4.65-7.69.27-11.4a13.47,13.47,0,0,0,1.17.95c.84-2.85.33-6.84-.22-12.44,0-.88,1.24-2.43,2.85-4l.23-.19a45,45,0,0,0,6.34,10.41c2.42,3,6.81,5.69,9.05,15.28l0,.06a21.67,21.67,0,0,0,1.59,4.38,10.91,10.91,0,0,1,1.37,4.8l0,0c-.16,6.06.1,18.57,1.59,25.57a27.09,27.09,0,0,0,3.48,9.26l.34-.29c.57,2.08,1.55,5.74,3.94,8.62,0,0,2.05-4.1,5.78-35.31,4.1-34.37,6.17-70.24,6.17-70.24h0a54.75,54.75,0,0,0-2.87-19.2c-3.35-8.66-9.13-17-12.68-20.5a7.59,7.59,0,0,0-6.4-2.29c3.69-4.71,7.3-9.29,8.38-10.73,17.12,30.36,16.12,65.59,16.12,65.88l0,2.6,3.62-2c13.87-8,18.1-11.62,22.56-15.23.17,3.58.44,11.32.51,16.06C198.36,142.86,198.35,145.35,198.35,150Z"/></g></g></svg>