<svg height='300px' width='300px' fill="currentColor" xmlns="http://www.w3.org/2000/svg" xmlns:xlink="http://www.w3.org/1999/xlink" xml:space="preserve" version="1.1" style="shape-rendering:geometricPrecision;text-rendering:geometricPrecision;image-rendering:optimizeQuality;" viewBox="0 0 846.66 846.66" x="0px" y="0px" fill-rule="evenodd" clip-rule="evenodd">
  <defs></defs>
  <g>
    <path class="fil0" d="M587.45 740.09l0 69.99 87.79 0 0 -104.43c5.5,-9.52 8.12,-10.71 8.12,-21.68l0 -231.68 41.82 -0.83c63.51,-1.28 24.14,-107.19 -25.25,-111.75l-24.08 -2.21 -19.18 -149.27c-2.97,-23.21 -27.11,-43.02 -51.4,-42.97l-363.88 0c-24.29,-0.05 -48.43,19.76 -51.41,42.97l-19.17 149.27 -24.08 2.21c-49.39,4.56 -88.76,110.47 -25.26,111.75l41.83 0.83 0 231.68c0,10.97 2.62,12.16 8.12,21.68l0 104.43 87.79 0 0 -69.99 61.25 0 0 -48.17 205.74 0 0 48.17 61.25 0zm-199.47 -703.51l70.68 0c8.12,0 14.76,6.63 14.76,14.75l0 20.81 -100.18 0 0 -20.81c0,-8.12 6.62,-14.75 14.74,-14.75zm-70.98 0l52.52 0c-7.95,0.21 -14.38,6.75 -14.38,14.75l0 20.81 -52.89 0 0 -20.81c0,-8.12 6.64,-14.75 14.75,-14.75zm160.13 0l52.52 0c8.11,0 14.75,6.63 14.75,14.75l0 20.81 -52.89 0 0 -20.81c0,-8 -6.43,-14.54 -14.38,-14.75zm40.41 178.77l62.85 128.31c11.51,23.54 -24.08,40.96 -35.55,17.42l-71.05 -145.73 -196.86 0 54.41 111.1c11.52,23.54 -24.02,40.94 -35.55,17.42l-63.16 -128.52 -19.8 207 197.91 0 -44.78 -91.44c-11.52,-23.54 24.01,-40.94 35.54,-17.42l53.32 108.86 178.99 0 -19.8 -207 -96.47 0zm-250.92 -81l313.41 0c33.39,0 33.39,-50.47 0,-50.47l-313.41 0c-33.38,0 -33.38,50.47 0,50.47zm80.81 574.2l151.8 0 0 57.4 -151.8 0 0 -57.4zm297.85 -170.19c-11.45,-14.65 -40.85,-10.75 -65.72,8.68 -24.86,19.44 -35.73,47.05 -24.28,61.68 11.45,14.65 40.86,10.77 65.72,-8.68 24.86,-19.43 35.73,-47.04 24.28,-61.68zm-443.9 0c11.44,-14.65 40.85,-10.75 65.72,8.68 24.86,19.44 35.73,47.05 24.28,61.68 -11.45,14.65 -40.86,10.77 -65.72,-8.68 -24.86,-19.43 -35.73,-47.04 -24.28,-61.68zm183.44 108.99l77 0 0 -38.74 38.48 0 0 -77.51 -38.48 0 0 -38.74 -77 0 0 38.74 -38.47 0 0 77.51 38.47 0 0 38.74z"></path>
  </g>
</svg>