<svg width="44" height="44" viewBox="0 -10 58 57" fill="none" xmlns="http://www.w3.org/2000/svg">
<path d="M44 24.4797C44 22.7048 42.5564 21.2605 40.7815 21.2605C39.9221 21.2605 39.114 21.5956 38.5055 22.2038L35.4839 25.2254V0H7.5126L0 7.5126V44H35.4839V34.3293L43.0575 26.7557C43.6649 26.1482 44 25.3398 44 24.4797ZM26.6108 36.8104L28.4574 38.657L25.8727 39.4114L26.6108 36.8104ZM29.8064 37.9982L29.0365 37.2283L39.1684 27.0956L39.9391 27.8663L29.8064 37.9982ZM28.0323 36.2247L27.2616 35.4541L37.3949 25.3214L38.1656 26.0921L28.0323 36.2247ZM7.09677 2.42288V7.09677H2.42288L7.09677 2.42288ZM34.0645 42.5806H1.41935V8.51613H8.51613V1.41935H34.0645V26.6448L25.6257 35.0829L23.8054 41.4926L30.1797 39.6335L34.0645 35.7486V42.5806ZM42.0539 25.7521L40.9433 26.8627L38.3985 24.3179L39.5091 23.2073C39.849 22.8673 40.3012 22.6799 40.7815 22.6799C41.7729 22.6799 42.5806 23.4876 42.5806 24.4797C42.5806 24.9607 42.3932 25.4129 42.0539 25.7521Z" fill="#4DA1FF"/>
<path d="M14.3781 29.3289L11.3238 32.6891C10.4232 31.7857 9.17918 31.2257 7.80661 31.2257C5.06804 31.2257 2.83887 33.4549 2.83887 36.1935C2.83887 38.932 5.06804 41.1612 7.80661 41.1612C10.5452 41.1612 12.7744 38.932 12.7744 36.1935C12.7744 35.3469 12.5609 34.5499 12.1853 33.8517L15.4287 30.2839L14.3781 29.3289ZM11.355 36.1935C11.355 38.1499 9.76307 39.7418 7.80661 39.7418C5.85014 39.7418 4.25822 38.1499 4.25822 36.1935C4.25822 34.237 5.85014 32.6451 7.80661 32.6451C8.81222 32.6451 9.71699 33.0703 10.3636 33.7449L7.69226 36.6838L6.07157 35.6037L5.28427 36.7846L7.92165 38.5432L11.1363 35.007C11.2691 35.3795 11.355 35.7749 11.355 36.1935Z" fill="#4DA1FF"/>
<path d="M31.2256 22.7097H32.6449V24.1291H31.2256V22.7097Z" fill="#4DA1FF"/>
<path d="M15.6128 22.7097H29.8063V24.1291H15.6128V22.7097Z" fill="#4DA1FF"/>
<path d="M15.6128 25.5483H32.6451V26.9677H15.6128V25.5483Z" fill="#4DA1FF"/>
<path d="M15.6128 35.4839H23.4192V36.9032H15.6128V35.4839Z" fill="#4DA1FF"/>
<path d="M15.6128 38.3225H23.4192V39.7419H15.6128V38.3225Z" fill="#4DA1FF"/>
<path d="M13.4839 15.6128H29.0968C31.0533 15.6128 32.6452 14.0209 32.6452 12.0644V6.38701C32.6452 4.43055 31.0533 2.83862 29.0968 2.83862H13.4839C11.5275 2.83862 9.93555 4.43055 9.93555 6.38701V12.0644C9.93555 14.0209 11.5275 15.6128 13.4839 15.6128ZM11.3549 6.38701C11.3549 5.21334 12.3103 4.25798 13.4839 4.25798H29.0968C30.2705 4.25798 31.2259 5.21334 31.2259 6.38701V12.0644C31.2259 13.2381 30.2705 14.1935 29.0968 14.1935H13.4839C12.3103 14.1935 11.3549 13.2381 11.3549 12.0644V6.38701Z" fill="#4DA1FF"/>
<path d="M29.8064 7.09668H25.5483V11.3547H29.8064V7.09668ZM28.387 9.93539H26.9677V8.51603H28.387V9.93539Z" fill="#4DA1FF"/>
<path d="M23.4192 7.09668H19.1611V11.3547H23.4192V7.09668ZM21.9998 9.93539H20.5805V8.51603H21.9998V9.93539Z" fill="#4DA1FF"/>
</svg>
