<svg height='300px' width='300px' fill="#000000" xmlns="http://www.w3.org/2000/svg" xmlns:xlink="http://www.w3.org/1999/xlink" version="1.1" x="0px" y="0px" viewBox="0 0 100 100" enable-background="new 0 0 100 100" xml:space="preserve">
    <g>
        <path fill="#000000" d="M30.2,34.4c0,0.2,0,0.4,0,0.6c0,11.4,8.8,20.6,19.6,20.6S69.4,46.4,69.4,35c0-0.2,0-0.4,0-0.6H30.2z"></path>
        <path fill="#000000" d="M18.9,35C21.1,41.7,32.1,52,32.1,52s-6-7-5.8-21.1h0.9h44.6h0.7C73.4,44.5,66.9,52,66.9,52   c-0.1,0.3,11-9.9,13.2-17l0,0c1.6-3.4,0.1-4.2,0.1-4.2l-8.6-4.3c-0.8-6.5-3.3-12-7.7-14.5l0,0l0,0c-0.4-0.2-0.7-0.4-1.1-0.5L49.8,5   l-13.7,6.6l0,0.1c-4.9,2.4-7.6,8.3-8.6,15.1l-7.9,3.7c-0.8,0.4-1.4,1.2-1.4,2.1C18.3,33.2,18.4,34,18.9,35L18.9,35z M49.8,14   L49.8,14c2,3.2,5.9,2.3,5.9,2.3c-1.1,6.8-5.9,8.6-5.9,8.6v0c0,0-4.9-1.9-5.9-8.6C43.9,16.3,47.7,17.2,49.8,14z"></path>
        <path fill="#000000" d="M89.2,81.3C86.9,62.9,62.9,56.9,60,56.3l-10,7.9l-10-7.9c-2.9,0.6-26.9,6.6-29.1,25.1   c-0.2,1.8,0.6,3.7,2.1,4.7C17.3,89.1,28.4,95,50,95l0-0.1l0,0.1c21.5,0,32.7-5.9,37.1-8.9C88.6,85,89.4,83.2,89.2,81.3z M39.9,77.4   H26v-3h13.9V77.4z M49.6,88.5c-1-0.2-1.8-1-2-2c-0.2-1.6,1.1-2.9,2.7-2.7c1,0.2,1.8,1,2,2C52.6,87.4,51.2,88.7,49.6,88.5z    M49.6,76.5c-1-0.2-1.8-1-2-2c-0.2-1.6,1.1-2.9,2.7-2.7c1,0.2,1.8,1,2,2C52.6,75.4,51.2,76.8,49.6,76.5z M74.2,77.4H60.3v-3h13.9   V77.4z"></path>
    </g>
</svg>