<svg width="44" height="44" viewBox="0 -10 58 57" fill="none" xmlns="http://www.w3.org/2000/svg">
<path d="M36.026 42.5332H34.4668V43.9999H36.645C36.8181 43.9999 36.9856 43.9386 37.1179 43.827C37.2502 43.7153 37.3388 43.5604 37.3679 43.3898L42.8653 11.1231L41.4194 10.8767L36.026 42.5332Z" fill="#384149"/>
<path d="M43.394 3.67771L34.594 2.12598L34.3394 3.57037L42.4213 4.99569L41.6692 9.41027L43.115 9.65667L43.9896 4.52333C44.0222 4.33229 43.9779 4.1361 43.8663 3.97765C43.7547 3.81919 43.5849 3.71136 43.394 3.67771Z" fill="#384149"/>
<path d="M32.2667 0H0.733333C0.538841 0 0.352315 0.0772617 0.214788 0.214788C0.0772617 0.352315 0 0.538841 0 0.733333V30.8H1.46667V1.46667H31.5333V42.5333H1.46667V32.2667H0V43.2667C0 43.4612 0.0772617 43.6477 0.214788 43.7852C0.352315 43.9227 0.538841 44 0.733333 44H32.2667C32.4612 44 32.6477 43.9227 32.7852 43.7852C32.9227 43.6477 33 43.4612 33 43.2667V0.733333C33 0.538841 32.9227 0.352315 32.7852 0.214788C32.6477 0.0772617 32.4612 0 32.2667 0Z" fill="#384149"/>
<path d="M3.6665 27.4999C3.66728 28.1804 3.93795 28.8328 4.41912 29.314C4.9003 29.7952 5.55269 30.0658 6.23317 30.0666H9.89984C10.5803 30.0658 11.2327 29.7952 11.7139 29.314C12.1951 28.8328 12.4657 28.1804 12.4665 27.4999V27.1333H10.9998V27.4999C10.9995 27.7916 10.8835 28.0712 10.6773 28.2774C10.4711 28.4836 10.1915 28.5996 9.89984 28.5999H6.23317C5.94153 28.5996 5.66192 28.4836 5.4557 28.2774C5.24948 28.0712 5.13349 27.7916 5.13317 27.4999V23.8333C5.13349 23.5416 5.24948 23.262 5.4557 23.0558C5.66192 22.8496 5.94153 22.7336 6.23317 22.7333H9.53317V21.2666H6.23317C5.55269 21.2674 4.9003 21.538 4.41912 22.0192C3.93795 22.5004 3.66728 23.1528 3.6665 23.8333V27.4999Z" fill="#384149"/>
<path d="M3.6665 38.4999C3.66728 39.1804 3.93795 39.8328 4.41912 40.314C4.9003 40.7952 5.55269 41.0658 6.23317 41.0666H9.89984C10.5803 41.0658 11.2327 40.7952 11.7139 40.314C12.1951 39.8328 12.4657 39.1804 12.4665 38.4999V38.1333H10.9998V38.4999C10.9995 38.7916 10.8835 39.0712 10.6773 39.2774C10.4711 39.4836 10.1915 39.5996 9.89984 39.5999H6.23317C5.94153 39.5996 5.66192 39.4836 5.4557 39.2774C5.24948 39.0712 5.13349 38.7916 5.13317 38.4999V34.8333C5.13349 34.5416 5.24948 34.262 5.4557 34.0558C5.66192 33.8496 5.94153 33.7336 6.23317 33.7333H9.53317V32.2666H6.23317C5.55269 32.2674 4.9003 32.538 4.41912 33.0192C3.93795 33.5004 3.66728 34.1528 3.6665 34.8333V38.4999Z" fill="#384149"/>
<path d="M15.3999 32.2666H26.3999V33.7333H15.3999V32.2666Z" fill="#384149"/>
<path d="M15.3999 35.9333H19.0666V37.4H15.3999V35.9333Z" fill="#384149"/>
<path d="M20.5332 35.9333H26.3999V37.4H20.5332V35.9333Z" fill="#384149"/>
<path d="M15.3999 24.9333H19.0666V26.4H15.3999V24.9333Z" fill="#384149"/>
<path d="M20.5332 24.9333H26.3999V26.4H20.5332V24.9333Z" fill="#384149"/>
<path d="M3.6665 2.93335H8.0665V4.40002H3.6665V2.93335Z" fill="#384149"/>
<path d="M3.6665 5.8667H6.59984V7.33337H3.6665V5.8667Z" fill="#384149"/>
<path d="M25.6665 2.93335H27.1332V4.40002H25.6665V2.93335Z" fill="#384149"/>
<path d="M28.6001 2.93335H30.0668V4.40002H28.6001V2.93335Z" fill="#384149"/>
<rect x="15.6001" y="7.06665" width="2.13333" height="8.53333" fill="#384149"/>
<rect x="15.6001" y="16.6667" width="2.13333" height="2.13333" rx="1" fill="#384149"/>
</svg>
