<svg xmlns="http://www.w3.org/2000/svg" viewBox="0 0 24 24" width="24" height="24">
    <path d="M20.55,4.38,12.18,2a.73.73,0,0,0-.36,0L3.45,4.38A.58.58,0,0,0,3,4.94v8.63A5.4,5.4,0,0,0,4.44,17a14.33,14.33,0,0,0,3,2.61A28.23,28.23,0,0,0,11.74,22a.7.7,0,0,0,.52,0,28.23,28.23,0,0,0,4.29-2.36,14.33,14.33,0,0,0,3-2.61A5.4,5.4,0,0,0,21,13.57V4.94A.58.58,0,0,0,20.55,4.38Z" opacity="0.5" fill="#E19525"></path>
    <path d="M13,14.56a.44.44,0,0,1-.32.48,2.88,2.88,0,0,1-.65,0A4,4,0,0,1,8.89,8.54l.57.57a3.26,3.26,0,0,0,.28,4.24,3.17,3.17,0,0,0,2.83.89A.4.4,0,0,1,13,14.56ZM14.58,13l.57.56a4,4,0,0,0-3.84-6.5.39.39,0,0,0,.12.77,3.36,3.36,0,0,1,2.83.89A3.32,3.32,0,0,1,14.58,13Z" fill="black"></path>
    <path d="M8,7.66h2a.39.39,0,0,1,.41.4v2ZM13.61,12v2a.39.39,0,0,0,.41.4h2Z" fill="black"></path>
</svg>