<svg height='300px' width='300px'  fill="#000000" xmlns="http://www.w3.org/2000/svg" xmlns:xlink="http://www.w3.org/1999/xlink" version="1.1" x="0px" y="0px" viewBox="0 0 90 90" style="enable-background:new 0 0 90 90;" xml:space="preserve"><path d="M69.7509766,41.368042V19.8125c0-3.6376953-2.9599609-6.5976563-6.5981445-6.5976563H12.7783203  c-3.6381836,0-6.5981445,2.9599609-6.5981445,6.5976563v50.375c0,3.6376953,2.9599609,6.5976563,6.5981445,6.5976563H63.152832  c3.2171631,0,5.901123-2.2984009,6.477356-5.3746338c7.8991699-0.4592285,14.1896362-7.0119629,14.1896362-15.0238037  C83.8198242,48.4147339,77.5935059,41.8866577,69.7509766,41.368042z M8.1801758,19.8125  c0-2.5351563,2.0625-4.5976563,4.5981445-4.5976563H63.152832c2.5356445,0,4.5981445,2.0625,4.5981445,4.5976563v7.8406982  L37.965332,43.8613281L8.1801758,27.6531982V19.8125z M63.152832,74.7851563H12.7783203  c-2.5356445,0-4.5981445-2.0625-4.5981445-4.5976563V29.9293823L37.965332,46.1386719l29.7856445-16.2093506V41.368042  c-7.8425903,0.5186157-14.0693359,7.0466919-14.0693359,15.0186768c0,7.9139404,6.1370239,14.4087524,13.9001465,15.0091553  C67.0493774,73.3575439,65.2684937,74.7851563,63.152832,74.7851563z M68.7509766,69.4550781  c-7.206543,0-13.0693359-5.8623047-13.0693359-13.0683594s5.862793-13.0693359,13.0693359-13.0693359  c7.2060547,0,13.0688477,5.8632813,13.0688477,13.0693359S75.9570313,69.4550781,68.7509766,69.4550781z"></path><path d="M73.7905273,53.2138672h-5.3491211V50.484375c0-0.3730469-0.2080078-0.7158203-0.5390625-0.8876953  c-0.3300781-0.1708984-0.7304688-0.1445313-1.0361328,0.0693359l-8.3901367,5.9023438  c-0.2666016,0.1875-0.4248047,0.4931641-0.4248047,0.8183594s0.1586914,0.6308594,0.4248047,0.8183594l8.3901367,5.9013672  c0.1713867,0.1201172,0.3730469,0.1816406,0.5751953,0.1816406c0.1577148,0,0.315918-0.0371094,0.4609375-0.1123047  c0.3310547-0.171875,0.5390625-0.5146484,0.5390625-0.8876953v-2.7294922h5.3491211c0.5522461,0,1-0.4472656,1-1v-4.3447266  C74.7905273,53.6611328,74.3427734,53.2138672,73.7905273,53.2138672z M72.7905273,57.5585938h-5.3491211  c-0.5522461,0-1,0.4472656-1,1v1.8037109l-5.6518555-3.9755859l5.6518555-3.9765625v1.8037109c0,0.5527344,0.4477539,1,1,1  h5.3491211V57.5585938z"></path><path d="M76.4501953,50.484375v11.8037109c0,0.5527344,0.4477539,1,1,1s1-0.4472656,1-1V50.484375c0-0.5527344-0.4477539-1-1-1  S76.4501953,49.9316406,76.4501953,50.484375z"></path></svg>