<svg height='300px' width='300px'  fill="#000000" xmlns="http://www.w3.org/2000/svg" xmlns:xlink="http://www.w3.org/1999/xlink" version="1.1" x="0px" y="0px" viewBox="0 0 90 90" style="enable-background:new 0 0 90 90;" xml:space="preserve"><path d="M69.7509766,41.368042V19.8125c0-3.6376953-2.9599609-6.5976563-6.5986328-6.5976563H12.7783203  c-3.6386719,0-6.5986328,2.9599609-6.5986328,6.5976563v50.375c0,3.6376953,2.9599609,6.5976563,6.5986328,6.5976563h50.3740234  c3.2180176,0,5.9016724-2.2983398,6.477478-5.3745728c7.8998413-0.4590454,14.1904907-7.0119019,14.1904907-15.0238647  C83.8203125,48.4146729,77.5939941,41.8866577,69.7509766,41.368042z M8.1796875,19.8125  c0-2.5351563,2.0625-4.5976563,4.5986328-4.5976563h50.3740234c2.5361328,0,4.5986328,2.0625,4.5986328,4.5976563v7.8409424  L37.9658203,43.8613281L8.1796875,27.6534424V19.8125z M63.1523438,74.7851563H12.7783203  c-2.5361328,0-4.5986328-2.0625-4.5986328-4.5976563V29.9290771l29.7861328,16.2095947l29.7851563-16.2095947V41.368042  c-7.8430176,0.5186157-14.0693359,7.0466309-14.0693359,15.0186768c0,7.9139404,6.1365356,14.4086304,13.8999634,15.0090942  C67.0496826,73.3574829,65.2684326,74.7851563,63.1523438,74.7851563z M68.7509766,69.4550781  c-7.2060547,0-13.0693359-5.8623047-13.0693359-13.0683594s5.8632813-13.0693359,13.0693359-13.0693359  s13.0693359,5.8632813,13.0693359,13.0693359S75.9570313,69.4550781,68.7509766,69.4550781z"></path><path d="M75.3652344,55.5693359l-8.3896484-5.9033203c-0.3056641-0.2138672-0.703125-0.2412109-1.0361328-0.0693359  c-0.3310547,0.171875-0.5390625,0.5146484-0.5390625,0.8876953v2.7294922h-5.3486328c-0.5527344,0-1,0.4472656-1,1v4.3447266  c0,0.5527344,0.4472656,1,1,1h5.3486328v2.7294922c0,0.3730469,0.2080078,0.7158203,0.5390625,0.8876953  c0.1455078,0.0751953,0.3037109,0.1123047,0.4609375,0.1123047c0.2021484,0,0.4033203-0.0615234,0.5751953-0.1816406  l8.3896484-5.9013672c0.2666016-0.1875,0.4248047-0.4931641,0.4248047-0.8183594S75.6318359,55.7558594,75.3652344,55.5693359z   M67.4003906,60.3623047v-1.8037109c0-0.5527344-0.4472656-1-1-1h-5.3486328v-2.3447266h5.3486328c0.5527344,0,1-0.4472656,1-1  v-1.8037109l5.6513672,3.9765625L67.4003906,60.3623047z"></path><path d="M76.4501953,50.484375v11.8037109c0,0.5527344,0.4472656,1,1,1s1-0.4472656,1-1V50.484375c0-0.5527344-0.4472656-1-1-1  S76.4501953,49.9316406,76.4501953,50.484375z"></path></svg>