<svg height='300px' width='300px' fill="currentColor" xmlns:x="http://ns.adobe.com/Extensibility/1.0/" xmlns:i="http://ns.adobe.com/AdobeIllustrator/10.0/" xmlns:graph="http://ns.adobe.com/Graphs/1.0/" xmlns="http://www.w3.org/2000/svg" xmlns:xlink="http://www.w3.org/1999/xlink" version="1.1" x="0px" y="0px" viewBox="0 0 64 64" enable-background="new 0 0 64 64" xml:space="preserve">
    <metadata>
        <sfw xmlns="http://ns.adobe.com/SaveForWeb/1.0/">
            <slices></slices>
            <sliceSourceBounds height="16384" width="16389" x="-8165" y="-8160" bottomLeftOrigin="true"></sliceSourceBounds>
        </sfw>
    </metadata>
    <g>
        <g>
            <path d="M54,55H11c-1.104,0-2,0.896-2,2s0.896,2,2,2h43c1.104,0,2-0.896,2-2S55.104,55,54,55z"></path>
            <path d="M17,51.117c0,1.104,0.896,2,2,2h26c1.104,0,2-0.896,2-2V32c0-8.271-6.729-15-15-15c-8.271,0-15,6.729-15,15V51.117z     M32,24c4.411,0,8,3.589,8,8v14c0,0.553-0.447,1-1,1s-1-0.447-1-1V32c0-3.309-2.691-6-6-6c-0.552,0-1-0.448-1-1S31.448,24,32,24z"></path>
            <path d="M57,31h-7c-0.553,0-1,0.448-1,1s0.447,1,1,1h7c0.553,0,1-0.448,1-1S57.553,31,57,31z"></path>
            <path d="M15,32c0-0.552-0.448-1-1-1H7c-0.552,0-1,0.448-1,1s0.448,1,1,1h7C14.552,33,15,32.552,15,32z"></path>
            <path d="M31.999,15c0.552,0,1-0.448,1-1V7c0-0.552-0.448-1-1-1s-1,0.448-1,1v7C30.999,14.552,31.447,15,31.999,15z"></path>
            <path d="M44.728,20.272c0.256,0,0.512-0.098,0.707-0.293l4.95-4.95c0.391-0.391,0.391-1.023,0-1.414s-1.023-0.391-1.414,0    l-4.95,4.95c-0.391,0.391-0.391,1.023,0,1.414C44.216,20.174,44.472,20.272,44.728,20.272z"></path>
            <path d="M18.564,19.98c0.195,0.195,0.451,0.293,0.707,0.293s0.512-0.098,0.707-0.293c0.391-0.391,0.391-1.023,0-1.414l-4.95-4.95    c-0.391-0.391-1.023-0.391-1.414,0s-0.391,1.023,0,1.414L18.564,19.98z"></path>
        </g>
    </g>
</svg>