<svg height='300px' width='300px' fill="#000000" xmlns="http://www.w3.org/2000/svg" xmlns:xlink="http://www.w3.org/1999/xlink" version="1.1" x="0px" y="0px" viewBox="0 0 60 60" enable-background="new 0 0 60 60" xml:space="preserve">
    <g>
        <path d="M28.86,30.01c-1.167-0.115-3.117-0.538-5.31-1.953l2.514,5.743L28.86,30.01z"></path>
        <path d="M36.514,28.018c-2.194,1.431-4.148,1.866-5.331,1.986l2.799,3.796L36.514,28.018z"></path>
        <path d="M37.126,28.193l-3.003,6.86L30.839,30.6v0.264h-1.679v-0.2l-3.236,4.389l-3.01-6.874l-7.934,2.87l4.23,9.874v14.186H30   h10.791V40.923l4.23-9.874L37.126,28.193z M30,52.249L30,52.249l-2.226-2.818l1.391-17.745H30h0.835l1.391,17.745h0L30,52.249z    M37.545,41.101c-1.644,0-2.975-1.494-2.975-3.338c0-1.842,1.332-3.338,2.975-3.338c1.643,0,2.976,1.496,2.976,3.338   C40.521,39.607,39.188,41.101,37.545,41.101z"></path>
    </g>
    <path d="M36.26,20.224c0-1.107-0.104-1.991-0.271-2.701c-1.759,0.54-3.802,0.855-5.988,0.855c-2.434,0-4.695-0.384-6.578-1.044  c-0.147,1.382-0.121,2.89-0.121,2.89c-0.89,0.026-1.17-0.589-1.284-1.335c-0.096,0.046-0.181,0.099-0.244,0.183  c-0.257,0.35-0.147,1.106-0.147,1.631c0,1.067,0.649,1.929,1.45,1.932c1,3.824,2.636,6.575,6.934,6.575  c4.298,0,5.934-2.75,6.934-6.579c0.792-0.016,1.43-0.871,1.43-1.928c0-0.526,0.109-1.282-0.147-1.631  c-0.081-0.108-0.199-0.173-0.33-0.217C37.679,19.647,37.153,20.396,36.26,20.224z"></path>
    <path d="M21.619,12.523v2.321h17.04v-2.321c-2.412-0.502-5.842-0.709-8.52-0.709S24.031,12.021,21.619,12.523z"></path>
    <path d="M30.139,17.589c4.206,0,7.692-1.079,8.386-1.969H21.753C22.447,16.51,25.933,17.589,30.139,17.589z"></path>
    <path d="M48.242,37.998c0-0.347,0-0.618,0-0.777c0-1.869-1.42-5.282-2.457-5.801l-3.987,9.634v14.055h6.444c0,0,0-5.859,0-10.904  c-0.947,0-1.714-1.389-1.714-3.103C46.529,39.388,47.296,37.998,48.242,37.998z"></path>
    <path d="M14.215,31.42c-1.037,0.519-2.456,3.931-2.456,5.801c0,0.159,0,0.43,0,0.777c0.946,0,1.714,1.39,1.714,3.103  c0,1.715-0.767,3.103-1.714,3.103c0,5.045,0,10.904,0,10.904h6.444V41.054L14.215,31.42z"></path>
    <path d="M36.773,6.699L30,4.891l-6.773,1.808l-4.98,3.616l2.328,1.498c2.668-0.562,6.462-0.794,9.424-0.794s6.756,0.232,9.424,0.794  l2.328-1.498L36.773,6.699z M30,10.223c-1.034,0-1.871-0.837-1.871-1.871c0-1.034,0.837-1.872,1.871-1.872  c1.034,0,1.872,0.838,1.872,1.872C31.872,9.386,31.034,10.223,30,10.223z"></path>
</svg>