<?xml version="1.0" encoding="utf-8"?>
<!-- Generator: Adobe Illustrator 24.3.0, SVG Export Plug-In . SVG Version: 6.00 Build 0)  -->
<svg version="1.1" id="Layer_1" xmlns="http://www.w3.org/2000/svg" xmlns:xlink="http://www.w3.org/1999/xlink" x="0px" y="0px"
	 viewBox="0 0 150 32.9" style="enable-background:new 0 0 150 32.9;" xml:space="preserve">
<style type="text/css">
	.st0{fill:#FFFFFF;}
	.st1{fill:#00933C;}
	.st2{fill:#D71612;}
	.st3{fill:#33308B;}
</style>
<g>
	<path class="st0" d="M0.8,30V16.9C1.2,14,2.2,11.3,3.7,9c1.2-1.9,2.8-3.5,4.7-5c2.8-2,5.4-3,6.1-3.2C15.3,1,18,2,20.7,4
		c1.9,1.4,3.5,3.1,4.7,5c1.5,2.3,2.5,5,2.8,7.9v9.3l0,0v3.9L0.8,30z"/>
	<g>
		<g>
			<defs>
				<path id="SVGID_1_" d="M5.4,15.4C5.2,16.3,5,17.6,5,18.8C5,22.2,5,26,5,26l18.4-0.1c-0.7-0.1-0.8-0.3-1.4-0.4
					c-6.4-0.9-7.3-4.3-6.9-5.5c0.4-1,1.3-3,3.4-3c0.2,0.2,0.2,0.3,0.2,0.3c0.4-0.8,0.3-1.2-0.1-1.7c-0.1-0.1-0.3-0.4-0.4-0.5
					c0,0,0-0.4-0.2-0.7c-0.3-0.6-1.2-1.1-2.1-1.2c-1-0.1-2.8,1-3.6,1.1C11.6,14.5,9.7,14,9.6,12c-0.1-2.1,1.9-4.1,4.9-6.1
					C14.5,5.8,7.4,7.9,5.4,15.4"/>
			</defs>
			<clipPath id="SVGID_2_">
				<use xlink:href="#SVGID_1_"  style="overflow:visible;"/>
			</clipPath>
		</g>
	</g>
	<path d="M15.7,22.4c-0.7-1-0.7-2-0.5-2.5c0.1-0.4,0.9-2.2,2.5-2.7c0.3-0.1,0.5-0.1,0.8-0.1l0,0c0.1,0.1,0.1,0.2,0.1,0.2l0.1,0.2
		l0.1-0.2c0.1-0.3,0.2-0.5,0.2-0.7c0-0.4-0.1-0.7-0.3-1c0,0,0-0.1-0.1-0.1c-0.1-0.1-0.2-0.3-0.3-0.3c0-0.3-0.1-0.6-0.2-0.7
		c-0.4-0.7-1.3-1.2-2.2-1.3c-0.7,0-1.5,0.3-2.3,0.7c-0.5,0.2-1,0.4-1.3,0.5c-0.5,0.1-1.3-0.1-1.9-0.6c-0.5-0.4-0.8-1-0.8-1.8
		c-0.1-1.8,1.4-3.8,4.8-6.1c0,0-0.4,0.1-1,0.4c-1.2,0.9-2,1.7-2.7,2.5C9.9,9.9,9.4,10.9,9.5,12c0,0.8,0.4,1.5,0.9,1.9
		c0.7,0.5,1.5,0.7,2.1,0.6c0.3-0.1,0.8-0.3,1.4-0.5c0.8-0.3,1.6-0.7,2.2-0.6c0.8,0.1,1.7,0.5,2,1.1c0.1,0.1,0.1,0.3,0.1,0.7v0.1l0,0
		l0,0c0.1,0,0.2,0.2,0.3,0.4l0.1,0.1c0.2,0.2,0.3,0.4,0.3,0.6c0,0.2,0,0.4-0.1,0.7c0-0.1-0.1-0.1-0.1-0.2l0,0
		c-0.3-0.3-0.8-0.8-1.7-0.4h-0.1c1-0.2,1.3,0.1,1.5,0.3l0,0c0,0-0.1,0-0.1,0.1c-0.2,0-0.2,0-0.4,0c-0.1,0-0.5-0.2-0.5-0.2
		s0.1,0.1,0.2,0.2s0.2,0.1,0.1,0.1c-0.3,0.1-0.5,0.2-0.7,0.3c-0.3,0.2-0.6,0.4-0.8,0.7c-0.7,0.8-1.1,1.7-1.2,2
		c-0.2,0.6-0.1,1.5,0.6,2.6c0.7,1,2.1,2.3,5.2,2.8h1.9C18.4,25.1,16.5,23.6,15.7,22.4"/>
	<path class="st0" d="M16.9,15.2L16.9,15.2L16.9,15.2"/>
	<path class="st0" d="M17,14.7c0,0.2-0.2,0.4-0.4,0.4c-0.2,0-0.4-0.2-0.4-0.5v-0.1c-0.2,0-0.3,0-0.4,0c0.1,0,0.2,0,0.2,0l0,0l0,0
		c0,0.1,0.1,0.6,0.5,0.7c0.4,0.1,0.7-0.4,0.7-0.4l0,0l0,0c0,0,0,0,0.1,0C17.2,14.7,17.1,14.7,17,14.7"/>
	<path d="M15.7,14.5c0.1,0,0.2,0.1,0.2,0.1c0,0.1,0.1,0.7,0.5,0.7c0.1,0,0.3,0,0.4-0.1h0.1c0.2-0.1,0.3-0.3,0.3-0.3h0.1h0.1
		c-0.7-0.8-1.9-0.4-1.9-0.4H15.7L15.7,14.5 M17.2,14.8L17.2,14.8c0,0-0.3,0.5-0.7,0.4c-0.4-0.1-0.5-0.6-0.5-0.7l0,0l0,0
		c0,0-0.1,0-0.2,0c0.1,0,0.3,0,0.4,0v0.1c0,0.2,0.1,0.5,0.4,0.5c0.2,0,0.4-0.2,0.4-0.4C17.1,14.7,17.2,14.7,17.2,14.8
		C17.3,14.8,17.2,14.8,17.2,14.8L17.2,14.8z"/>
	<path d="M27,17.4v8h2.1v-8.5C27.4,3.5,14.5,0,14.5,0v2.3C25.8,5.7,27,17.4,27,17.4"/>
	<path d="M25,17.5v7.9h1.3v-7.6c0,0-0.6-11.2-11.8-14.9v1.3C14.5,4.3,23.5,6.9,25,17.5"/>
	<path d="M14.5,5.9c0,0,7.4,2.3,9,11.5v8.1h0.9v-7.9c0,0-0.9-9.4-9.9-12.6V5.9L14.5,5.9z"/>
	<path class="st1" d="M2.1,17.4c0,0,1.2-11.8,12.4-15.1V0C14.5,0,1.7,3.5,0,16.9v8.5h2.1V17.4z"/>
	<path class="st1" d="M4,17.5C5.6,6.9,14.5,4.3,14.5,4.3V3C3.3,6.6,2.7,17.8,2.7,17.8v7.6H4V17.5z"/>
	<path class="st1" d="M5.5,25.4L5.5,25.4v-8.1c1.3-7,5.9-10,8-11c0.6-0.3,1-0.4,1-0.4v-1c-9,3.2-9.9,12.6-9.9,12.6v7.9H5.5z"/>
	<path class="st2" d="M29.1,25.4H27l0,0v3.8H15.5c0,0-0.3,0-0.6,0.2c-0.2,0.1-0.3,0.2-0.3,0.4c0-0.2-0.2-0.3-0.3-0.4
		c-0.3-0.2-0.6-0.2-0.6-0.2H2.1v-3.8l0,0H0l0,0V31h12.1c0,0,0.1,0.7,0.7,1.2c0.4,0.4,1,0.7,1.7,0.7l0,0c0.7,0,1.4-0.3,1.8-0.7
		C16.9,31.7,17,31,17,31h12.1V25.4L29.1,25.4z"/>
	<path class="st2" d="M25,25.4L25,25.4v1.7h-9.8c0,0-0.5,0.1-0.7,0.5c-0.2-0.4-0.7-0.5-0.7-0.5H4v-1.7l0,0H2.7l0,0v3.1h11.1
		c0,0,0.4,0.1,0.7,0.5l0,0c0.3-0.4,0.7-0.4,0.7-0.4h11.1v-3.1l0,0L25,25.4z"/>
	<path class="st2" d="M24.5,25.4h-0.9h-0.9h-1.9H15c0,0-0.2,0.1-0.4,0.4c-0.2-0.3-0.4-0.4-0.4-0.4H5.9H5.5H4.6l0,0v1.1H14
		c0,0,0.3,0,0.5,0.4l0,0c0.2-0.3,0.6-0.3,0.6-0.3h9.3L24.5,25.4L24.5,25.4z"/>
	<polygon class="st3" points="33.5,26.5 34.5,26.5 34.5,28.2 36.3,28.2 36.3,26.5 37.3,26.5 37.3,31 36.3,31 36.3,29.1 34.5,29.1 
		34.5,31 33.5,31 	"/>
	<rect x="38.2" y="26.5" class="st3" width="1" height="4.5"/>
	<path class="st3" d="M43.2,30.5c-0.3,0.4-0.8,0.6-1.2,0.6c-1.4,0-2.2-1-2.2-2.3s0.8-2.4,2.2-2.4c0.9,0,1.8,0.6,1.9,1.6H43
		c-0.1-0.5-0.5-0.8-0.9-0.8c-0.9,0-1.2,0.8-1.2,1.5s0.3,1.5,1.2,1.5c0.6,0,1-0.3,1.1-1h-1v-0.7H44V31h-0.6L43.2,30.5z"/>
	<polygon class="st3" points="44.8,26.5 45.8,26.5 45.8,28.2 47.6,28.2 47.6,26.5 48.5,26.5 48.5,31 47.6,31 47.6,29.1 45.8,29.1 
		45.8,31 44.8,31 	"/>
	<polygon class="st3" points="49.4,26.5 52.8,26.5 52.8,27.3 50.4,27.3 50.4,28.3 52.6,28.3 52.6,29.1 50.4,29.1 50.4,30.2 
		52.8,30.2 52.8,31 49.4,31 	"/>
	<path class="st3" d="M53.5,26.5h2.4c0.8,0,1.3,0.6,1.3,1.2c0,0.5-0.2,0.9-0.7,1.1l0,0c0.5,0.1,0.6,0.6,0.7,1c0,0.3,0,0.8,0.2,1.1
		h-1c-0.1-0.3-0.1-0.7-0.2-1.1c-0.1-0.5-0.3-0.7-0.7-0.7h-1V31h-1V26.5z M54.5,28.5h1.1c0.4,0,0.7-0.2,0.7-0.6s-0.2-0.6-0.7-0.6
		h-1.1V28.5z"/>
	<path class="st3" d="M62.7,28c-0.1-0.4-0.5-0.8-1-0.8c-0.9,0-1.2,0.8-1.2,1.5s0.3,1.5,1.2,1.5c0.6,0,0.9-0.4,1-1h1
		c-0.1,1.1-0.9,1.8-2,1.8c-1.4,0-2.2-1-2.2-2.3s0.8-2.4,2.2-2.4c1,0,1.8,0.6,1.9,1.6L62.7,28L62.7,28z"/>
	<path class="st3" d="M66.4,26.4c1.4,0,2.2,1,2.2,2.4c0,1.3-0.8,2.3-2.2,2.3c-1.4,0-2.2-1-2.2-2.3C64.2,27.4,65,26.4,66.4,26.4
		 M66.4,30.3c0.9,0,1.2-0.8,1.2-1.5c0-0.8-0.3-1.5-1.2-1.5c-0.9,0-1.2,0.8-1.2,1.5C65.2,29.5,65.5,30.3,66.4,30.3"/>
	<polygon class="st3" points="69.3,26.5 70.3,26.5 70.3,30.2 72.5,30.2 72.5,31 69.3,31 	"/>
	<polygon class="st3" points="73,26.5 74,26.5 74,30.2 76.2,30.2 76.2,31 73,31 	"/>
	<polygon class="st3" points="76.7,26.5 80.1,26.5 80.1,27.3 77.7,27.3 77.7,28.3 79.9,28.3 79.9,29.1 77.7,29.1 77.7,30.2 
		80.1,30.2 80.1,31 76.7,31 	"/>
	<path class="st3" d="M84,30.5c-0.3,0.4-0.8,0.6-1.2,0.6c-1.4,0-2.2-1-2.2-2.3s0.8-2.4,2.2-2.4c0.9,0,1.8,0.6,1.9,1.6h-0.9
		c-0.1-0.5-0.5-0.8-0.9-0.8c-0.9,0-1.2,0.8-1.2,1.5s0.3,1.5,1.2,1.5c0.6,0,1-0.3,1.1-1h-1v-0.7h1.9V31h-0.6L84,30.5z"/>
	<polygon class="st3" points="85.6,26.5 88.9,26.5 88.9,27.3 86.5,27.3 86.5,28.3 88.7,28.3 88.7,29.1 86.5,29.1 86.5,30.2 89,30.2 
		89,31 85.6,31 	"/>
	<path class="st3" d="M90.3,29.5c0,0.6,0.5,0.8,1,0.8c0.3,0,0.9-0.1,0.9-0.6s-0.7-0.6-1.3-0.7c-0.7-0.2-1.3-0.4-1.3-1.3
		s0.9-1.4,1.7-1.4c0.9,0,1.8,0.4,1.8,1.4h-1c0-0.5-0.4-0.7-0.9-0.7c-0.3,0-0.7,0.1-0.7,0.5c0,0.3,0.2,0.4,1.3,0.7
		c0.3,0.1,1.3,0.3,1.3,1.3c0,0.8-0.6,1.4-1.9,1.4c-1,0-1.9-0.5-1.9-1.6h1V29.5z"/>
	<path class="st3" d="M97.4,26.4c1.4,0,2.2,1,2.2,2.4c0,1.3-0.8,2.3-2.2,2.3c-1.4,0-2.2-1-2.2-2.3C95.2,27.4,96.1,26.4,97.4,26.4
		 M97.4,30.3c0.9,0,1.2-0.8,1.2-1.5c0-0.8-0.3-1.5-1.2-1.5c-0.9,0-1.2,0.8-1.2,1.5C96.2,29.5,96.6,30.3,97.4,30.3"/>
	<polygon class="st3" points="100.3,26.5 103.5,26.5 103.5,27.3 101.3,27.3 101.3,28.4 103.2,28.4 103.2,29.1 101.3,29.1 101.3,31 
		100.3,31 	"/>
	<polygon class="st3" points="106.8,27.3 105.4,27.3 105.4,26.5 109.1,26.5 109.1,27.3 107.8,27.3 107.8,31 106.8,31 	"/>
	<polygon class="st3" points="109.6,26.5 113,26.5 113,27.3 110.6,27.3 110.6,28.3 112.8,28.3 112.8,29.1 110.6,29.1 110.6,30.2 
		113,30.2 113,31 109.6,31 	"/>
	<path class="st3" d="M116.7,28c-0.1-0.4-0.5-0.8-1-0.8c-0.9,0-1.2,0.8-1.2,1.5s0.3,1.5,1.2,1.5c0.6,0,0.9-0.4,1-1h1
		c-0.1,1.1-0.9,1.8-2,1.8c-1.4,0-2.2-1-2.2-2.3s0.8-2.4,2.2-2.4c1,0,1.8,0.6,1.9,1.6L116.7,28L116.7,28z"/>
	<polygon class="st3" points="118.3,26.5 119.3,26.5 119.3,28.2 121.1,28.2 121.1,26.5 122.1,26.5 122.1,31 121.1,31 121.1,29.1 
		119.3,29.1 119.3,31 118.3,31 	"/>
	<polygon class="st3" points="123,26.5 124,26.5 125.8,29.5 125.8,29.5 125.8,26.5 126.8,26.5 126.8,31 125.8,31 123.9,28 123.9,28 
		123.9,31 123,31 	"/>
	<path class="st3" d="M129.6,26.4c1.4,0,2.2,1,2.2,2.4c0,1.3-0.8,2.3-2.2,2.3s-2.2-1-2.2-2.3C127.4,27.4,128.3,26.4,129.6,26.4
		 M129.6,30.3c0.9,0,1.2-0.8,1.2-1.5c0-0.8-0.3-1.5-1.2-1.5s-1.2,0.8-1.2,1.5C128.4,29.5,128.8,30.3,129.6,30.3"/>
	<polygon class="st3" points="132.5,26.5 133.5,26.5 133.5,30.2 135.7,30.2 135.7,31 132.5,31 	"/>
	<path class="st3" d="M138.2,26.4c1.4,0,2.2,1,2.2,2.4c0,1.3-0.8,2.3-2.2,2.3s-2.2-1-2.2-2.3C136,27.4,136.9,26.4,138.2,26.4
		 M138.2,30.3c0.9,0,1.2-0.8,1.2-1.5c0-0.8-0.3-1.5-1.2-1.5s-1.2,0.8-1.2,1.5S137.4,30.3,138.2,30.3"/>
	<path class="st3" d="M144.4,30.5c-0.3,0.4-0.8,0.6-1.2,0.6c-1.4,0-2.2-1-2.2-2.3s0.8-2.4,2.2-2.4c0.9,0,1.8,0.6,1.9,1.6h-0.9
		c-0.1-0.5-0.5-0.8-0.9-0.8c-0.9,0-1.2,0.8-1.2,1.5s0.3,1.5,1.2,1.5c0.6,0,1-0.3,1.1-1h-1v-0.7h1.9V31h-0.6L144.4,30.5z"/>
	<polygon class="st3" points="147,29.2 145.4,26.5 146.5,26.5 147.6,28.3 148.6,26.5 149.7,26.5 148,29.3 148,31 147,31 	"/>
	<path class="st3" d="M48.9,23.7c-0.3-0.1-0.6-0.3-0.8-0.5c-0.2,0.2-0.5,0.6-0.7,0.8c0.1,0.1,0.8,0.6,0.9,0.6c0,0,0.4-0.4,0.5-0.5
		l0.9,0.5c0.2-0.2,0.5-0.6,0.7-0.9l-1-0.5C49.3,23.3,49.1,23.5,48.9,23.7"/>
	<path class="st3" d="M62.7,15.9c-0.1-0.1-0.1-0.3-0.1-0.5c-0.4,0.5-0.6,1-0.9,1.5c0.2,0.1,0.4,0.3,0.5,0.4c0.2,0.7,0.3,1.6,0.4,2.1
		c0.1,0.3,0.1,1,0.1,1c0,0.1,0,0.2,0,0.4h-2.8h-0.2H59v-0.1c0.1-0.3,0.4-0.6,0.4-0.9c0-0.6-0.8-1.2-1.5-1.2c-0.5,0-1,0.2-1.3,0.3
		L56,20.1c0.3,0,0.3,0,0.4,0c0.4,0,0.8,0.2,1.1,0.7h-2.7h-0.2c-0.2,0-0.4-0.1-0.4-0.4c-0.1-1.3-0.3-2.7-0.3-3.7
		c0-0.2-0.1-0.7-0.1-1.1l-1,1.3l0.6,3.8h-2.2h-0.3c-0.4-0.1-0.8-0.2-0.8-0.7c0-0.4,0.2-1,0.1-1.4c-0.3,0.3-0.6,0.5-0.8,0.9
		c-0.1,0.2,0,0.4,0,0.5c0,0.2,0,0.5-0.1,0.7H35.8h-0.1h-0.1c-0.2,0-0.3-0.1-0.5-0.2c-0.1,0-0.1-0.1-0.1-0.1c-0.2-1-0.3-3-0.5-4.2
		c0-0.4-0.1-0.8-0.1-1.1c-0.2,0.2-0.5,0.5-0.7,0.8c-0.1,0.1-0.2,0.2-0.2,0.3L34,22h1.7h0.1h13.1l0.4-0.8c0,0.2,0.4,0.8,0.8,0.8h0.5
		h0.5h1.8c0.2-0.2,0.4-0.5,0.5-0.7c0.1,0.2,0,0.6,0.2,0.7h0.6h0.5h2.8c0.2-0.3,0.3-0.5,0.4-0.7l0.4,0.7h1.3h0.2H63
		c0.1,0,0.1-0.1,0.2-0.1l0.3-1.6l-0.3-2.2c0-0.1,0-0.1,0-0.1c0.2-0.2,0.5-0.6,0.6-0.8c0.1-0.1,0.2-0.3,0.3-0.4
		c-0.3-0.2-0.6-0.4-0.9-0.5C63.1,16.2,62.8,16.1,62.7,15.9"/>
	<path class="st3" d="M65.1,17.2l0.6,4.8c0.6-0.8,0.6-1.5,0.6-2.3l-0.3-4C65.9,15.8,65.1,17,65.1,17.2"/>
	<path class="st3" d="M71.4,16.4c0.3,0.2,0.8,0.5,0.9,0.5s0.5-0.5,0.7-0.7l-1-0.5c-0.2,0.1-0.5,0.5-0.6,0.5s-0.6-0.3-0.8-0.5
		c-0.2,0.3-0.5,0.5-0.6,0.8c0.3,0.2,0.8,0.5,0.9,0.5C70.9,16.9,71.2,16.6,71.4,16.4"/>
	<path class="st3" d="M88.3,23.7c-0.3-0.1-0.6-0.3-0.8-0.5c-0.2,0.2-0.5,0.6-0.7,0.8c0.1,0.1,0.8,0.6,0.9,0.6c0,0,0.4-0.4,0.5-0.5
		l0.9,0.5c0.2-0.2,0.5-0.6,0.7-0.9l-1-0.5C88.7,23.3,88.5,23.5,88.3,23.7"/>
	<path class="st3" d="M92.8,17.5c0.2,0.1,0.4,0.3,0.5,0.3s0.1,0,0.1,0c0.2-0.1,0.5-0.3,0.7-0.5c0,0,0.1-0.1,0.1-0.2
		s-0.8-0.8-0.9-0.8s-0.1,0.1-0.2,0.1c-0.2,0.2-0.5,0.5-0.6,0.6c0,0-0.1,0.1-0.1,0.2C92.3,17.1,92.6,17.4,92.8,17.5"/>
	<path class="st3" d="M98.4,17l1.1,0.6c0.2-0.2,0.5-0.5,0.7-0.8l-1-0.5c-0.2,0.2-0.6,0.5-0.7,0.5s-0.8-0.5-0.9-0.5s-0.5,0.5-0.7,0.7
		c0.3,0.2,0.6,0.4,0.9,0.5L98.4,17z"/>
	<path class="st3" d="M102.6,17.5c0,0,0.4-0.3,0.5-0.5c0.3,0.2,0.9,0.5,1,0.5s0.1-0.1,0.1-0.1c0.3-0.3,0.5-0.5,0.6-0.7l-1-0.5
		c-0.2,0.2-0.6,0.5-0.6,0.5c-0.1,0-0.1,0-0.1,0c-0.3-0.1-0.7-0.4-0.7-0.4c-0.1,0-0.6,0.6-0.7,0.8C102,17.3,102.2,17.5,102.6,17.5
		C102.5,17.5,102.6,17.5,102.6,17.5"/>
	<path class="st3" d="M108.5,15.9c-0.1-0.1-0.1-0.3-0.1-0.5c-0.4,0.5-0.6,1-0.9,1.5c0.2,0.1,0.4,0.3,0.5,0.4
		c0.2,0.7,0.3,1.6,0.4,2.1c0.1,0.3,0.1,1,0.1,1c0,0.1,0,0.2,0,0.4h-3h-0.3c-0.1,0-0.5-0.2-0.6-0.5c0-0.1,0-0.1,0-0.2l0.1-1.5
		c-0.3,0.3-0.7,0.5-0.8,0.9c-0.1,0.3,0,0.8-0.2,1.2h-2h-1.3H100c0.3-0.7,0.5-0.7,0.5-1.2c0-0.3-0.1-1.3-0.7-1.3
		c-0.8,0-2.2,1.3-2.6,1.9c-0.1,0.1,0,0.4-0.1,0.6h-2h-0.3c-0.2,0-0.4,0-0.6-0.3c0-0.1-0.1-0.2-0.1-0.3c0-0.1,0.1-0.6,0.1-0.7v-0.8
		c-0.3,0.3-0.7,0.6-0.8,1c-0.1,0.3,0,0.7-0.1,1h-2.8h-0.3c-0.4-0.1-0.8-0.2-0.8-0.7c0-0.4,0.2-1,0.1-1.4c-0.3,0.3-0.6,0.5-0.8,0.9
		c-0.1,0.2,0,0.4,0,0.5c0,0.2,0,0.5-0.1,0.7h-14h-0.2h-0.2c-0.2,0-0.4,0-0.5-0.2c-0.3-1.2-0.4-2.6-0.6-3.6c-0.2,0.4-0.7,1-0.7,1.1
		s0.1,0.2,0.1,0.4c-0.3,0.2-0.7,0.4-1,0.6c-0.2,0.1-0.8,0.5-0.9,0.8c-0.2,0.5-0.5,1.3-0.5,1.3v0.2l1.9,0.4c0.5,0,0.5-0.8,0.9-1
		c0.1,0.3,0.1,0.7,0.2,1c0,0.1,0.2,0.3,0.3,0.3c0,0,0.1,0.1,0.2,0.1h0.7h0.2h13.7l0.4-0.8c0,0.2,0.4,0.8,0.8,0.8h0.7h0.3h2.5
		l0.4-0.8c0.1,0.2,0.2,0.5,0.5,0.7c0,0,0.1,0.1,0.2,0.1h0.5h0.4h5.4h1.3h1.8l0.4-0.8c0.1,0.2,0.1,0.3,0.2,0.4s0.3,0.2,0.3,0.3
		l0.2,0.1h0.3h0.5h3.3c0.1,0,0.1-0.1,0.2-0.1l0.3-1.6l-0.3-2.2c0-0.1,0-0.1,0-0.1c0.2-0.2,0.5-0.6,0.6-0.8c0.1-0.1,0.2-0.3,0.3-0.4
		c-0.3-0.2-0.6-0.4-0.9-0.5C108.9,16.2,108.6,16.1,108.5,15.9 M73.1,20.3h-0.7c-0.1,0-0.6-0.1-1-0.2c0.3-0.2,1-0.3,1.2-1
		c0-0.1,0.1-0.2,0.2-0.2c0.1,0.4,0.2,1.1,0.2,1.2v0.2H73.1z M98.9,20.8c-0.1,0-1-0.2-1-0.6c0-0.3,0.9-0.6,1.1-0.6
		c0.4,0,0.7,0.5,0.7,0.9C99.4,20.7,99.1,20.8,98.9,20.8"/>
	<path class="st3" d="M110.9,17.2l0.6,4.8c0.6-0.8,0.6-1.5,0.6-2.3l-0.3-4C111.7,15.8,110.9,17,110.9,17.2"/>
	<path class="st3" d="M118.9,17.2l0.9,0.5c0.2-0.2,0.5-0.5,0.7-0.8l-0.9-0.5c-0.2,0.1-0.5,0.4-0.6,0.4s-0.7-0.4-0.8-0.4
		c-0.1,0-0.5,0.5-0.7,0.7c0.3,0.2,0.7,0.4,1,0.5C118.6,17.5,118.8,17.3,118.9,17.2"/>
	<path class="st3" d="M121,19.4c0.1,0.2,0.5,0.8,0.5,1.1c0,0.1,0,0.1-0.1,0.2h-4.2c-0.3,0-0.9-0.3-1-0.6c-0.1-0.2-0.1-0.4-0.1-0.5
		s0.1-0.9,0.1-1.2h-0.1c-0.3,0.2-0.7,1.7-0.7,2.2c0,0.1,0,0.2,0,0.3c0.1,0.5,0.7,1,1.1,1c0.1,0,0.1,0,0.2,0h4.8
		c0.3-0.7,0.7-1.5,0.7-2.3c0-0.5-0.4-1.2-0.7-1.4L121,19.4z"/>
	<path class="st3" d="M138.2,23.7c-0.3-0.1-0.6-0.3-0.8-0.5c-0.2,0.2-0.5,0.6-0.7,0.8c0.1,0.1,0.8,0.6,0.9,0.6c0,0,0.4-0.4,0.5-0.5
		l0.9,0.5c0.2-0.2,0.5-0.6,0.7-0.9l-1-0.5C138.7,23.3,138.4,23.5,138.2,23.7"/>
	<path class="st3" d="M141.3,13.3c0.1,0,0.2,0,0.2-0.1c0.2-0.1,0.4-0.3,0.4-0.3c0.1,0,0.2,0,0.2,0c0.5,0,0.6-0.6,0.6-0.9v-0.5
		c-0.3,0.2-0.3,0.5-0.3,0.8c0,0,0,0-0.1,0.1h-0.1h-0.1c-0.2-0.1-0.1-0.3-0.1-0.5c-0.4,0.2-0.1,0.7-0.7,0.8c0,0-0.1-0.1-0.1-0.2
		c0-0.1,0.1-0.4,0.1-0.5h-0.1c-0.1,0.2-0.3,0.4-0.3,0.6c0,0.1,0,0.2,0,0.3C141,13,141.1,13.3,141.3,13.3"/>
	<path class="st3" d="M146.9,17.7c0.9-0.3,1.8-0.6,2.7-0.9c0.2-0.4,0.3-0.9,0.3-1.2c-1.3,0.4-2.6,0.8-3.8,1.2
		c-0.1,0.5-0.4,1.5-0.4,1.6s0.4,0.5,0.6,0.7c0.1,0.2,0.3,0.3,0.4,0.4c0-0.1,0.1-0.2,0.2-0.2l1.8,1.5h-4.9h-0.2l0,0
		c-0.2,0-0.4-0.1-0.4-0.4c-0.1-1.3-0.2-2.7-0.3-3.7c0-0.2-0.1-0.7-0.1-1.1l-1,1.3l0.6,3.8h-1.8h-0.3c-0.4-0.1-0.8-0.2-0.8-0.7
		c0-0.4,0.2-1,0.1-1.4c-0.3,0.3-0.6,0.5-0.8,0.9c-0.1,0.2,0,0.4,0,0.5c0,0.2,0,0.5-0.1,0.7h-12.9h-0.2h-0.1c-0.2,0-0.3-0.1-0.5-0.2
		c-0.1,0-0.1-0.1-0.1-0.1c-0.2-1-0.3-3-0.5-4.2c0-0.4-0.1-0.8-0.1-1.1c-0.2,0.2-0.5,0.5-0.7,0.8c-0.1,0.1-0.2,0.2-0.2,0.3l0.5,5.8
		h1.6h0.2h12.6l0.4-0.8c0,0.2,0.4,0.8,0.8,0.8h0.5h0.5h1.4c0.2-0.2,0.4-0.5,0.5-0.7c0.1,0.2,0,0.6,0.3,0.7h0.9h0.2h5.6l0.4-1.5
		c0-0.1,0-0.2-0.1-0.3C148.8,19.2,147.8,18.5,146.9,17.7"/>
</g>
</svg>
